<svg width="3040" height="230" viewBox="0 0 3040 230" fill="none" xmlns="http://www.w3.org/2000/svg">
<path d="M2897.36 25.873C2936.68 0.0199564 2991.12 -9.76529 3031.39 14.582L3040 19.7852V230H0V160H0.0185547L0.157227 19.6367L30.1465 30.3291C60.1363 40.6224 120.115 62.6039 180.115 62.3643C239.646 62.7197 299.199 41.1994 358.725 46.4688L361.537 46.7285C421.063 52.4376 480.563 84.0529 540.073 105.171C600.052 126.854 660.042 136.877 720.052 126.673C780.062 116.07 840.094 84.2419 900.115 63.0762C960.137 41.5119 1020.15 31.6056 1080.13 47.3096C1140.11 63.6114 1200.07 105.523 1260.09 84.6562C1294.97 72.5316 1339.91 50.4882 1377.34 25.8828C1416.68 0.02741 1471.12 -9.75312 1511.4 14.6064L1520.18 19.918L1534.5 28L1552 36.5C1600 58.5 1640.13 62.6039 1700.13 62.3643C1760.13 62.7224 1820.15 40.8595 1880.15 46.5986C1940.14 51.9393 2000.11 83.8857 2060.08 105.17C2120.06 126.853 2180.05 136.877 2240.06 126.673C2300.07 116.07 2360.1 84.2409 2420.12 63.0752C2480.14 41.5109 2540.15 31.6056 2600.14 47.3096C2660.12 63.6114 2720.08 105.523 2780.1 84.6562C2814.98 72.5301 2859.93 50.4821 2897.36 25.873Z" fill="#111827"/>
</svg>
