<svg width="3040" height="230" viewBox="0 0 3040 230" fill="none" xmlns="http://www.w3.org/2000/svg">
<path d="M142.641 204.127C103.316 229.98 48.8811 239.765 8.60645 215.418L0 210.215V0L3040 0V70H3039.98L3039.84 210.363L3009.85 199.671C2979.86 189.378 2919.88 167.396 2859.88 167.636C2800.35 167.28 2740.8 188.801 2681.28 183.531L2678.46 183.271C2618.94 177.562 2559.44 145.947 2499.93 124.829C2439.95 103.146 2379.96 93.1228 2319.95 103.327C2259.94 113.93 2199.91 145.758 2139.88 166.924C2079.86 188.488 2019.85 198.394 1959.87 182.69C1899.89 166.389 1839.93 124.477 1779.91 145.344C1745.03 157.468 1700.09 179.512 1662.66 204.117C1623.32 229.973 1568.88 239.753 1528.6 215.394L1519.82 210.082L1505.5 202L1488 193.5C1440 171.5 1399.87 167.396 1339.87 167.636C1279.87 167.278 1219.85 189.141 1159.85 183.401C1099.86 178.061 1039.89 146.114 979.915 124.83C919.937 103.147 859.948 93.1227 799.938 103.327C739.929 113.93 679.897 145.759 619.877 166.925C559.856 188.489 499.847 198.394 439.863 182.69C379.88 166.389 319.922 124.477 259.902 145.344C225.023 157.47 180.073 179.518 142.641 204.127Z" fill="#111827"/>
</svg>
