<svg width="3041" height="260" viewBox="0 0 3041 260" fill="none" xmlns="http://www.w3.org/2000/svg">
<rect x="3040.21" y="70" width="3040" height="70" transform="rotate(-180 3040.21 70)" fill="#20283C"/>
<path d="M3040.05 210.363L3010.06 199.671C2980.07 189.378 2920.09 167.396 2860.09 167.636C2800.09 167.277 2740.07 189.141 2680.07 183.402C2620.08 178.061 2560.11 146.114 2500.13 124.83C2440.15 103.147 2380.16 93.1226 2320.15 103.327C2260.14 113.93 2200.11 145.759 2140.09 166.924C2080.07 188.489 2020.06 198.395 1960.07 182.69C1900.09 166.389 1840.13 124.477 1780.11 145.344C1745.24 157.468 1700.29 179.512 1662.86 204.118C1623.53 229.973 1569.08 239.754 1528.81 215.394L1519.71 209.889L1519.71 147L1520.21 50.9305L1630.21 49.5328C1660.21 49.5624 1720.21 49.6217 1780.21 49.681C1840.21 49.7402 1900.21 49.7995 1960.21 49.8587C2020.21 49.918 2080.21 49.9773 2140.21 50.0365C2200.21 50.0958 2260.21 50.1551 2320.21 50.2143C2380.21 50.2736 2440.21 50.3328 2500.21 50.3921C2560.21 50.4514 2620.21 50.5106 2680.21 50.5699C2740.21 50.6292 2800.21 50.6884 2860.21 50.7477C2920.21 50.8069 2980.21 50.8662 3010.21 50.8958L3040.21 50.9255L3040.05 210.363Z" fill="#20283C"/>
<path d="M1520.2 210.18L1505.71 202L1488.21 193.5C1440.21 171.5 1400.07 167.396 1340.07 167.636C1280.07 167.278 1220.05 189.141 1160.06 183.402C1100.07 178.061 1040.1 146.114 980.12 124.83C920.142 103.147 860.153 93.1227 800.144 103.327C740.134 113.93 680.102 145.759 620.082 166.925C560.061 188.489 500.052 198.395 440.069 182.691C380.085 166.389 320.127 124.477 260.107 145.344C225.228 157.47 180.278 179.518 142.846 204.127C103.521 229.98 49.0864 239.766 8.81162 215.418L0.204936 210.215L0.204919 147.078L0.204914 50.9306L110.205 49.5329C140.205 49.5625 200.202 49.6218 260.202 49.6811C320.201 49.7403 380.201 49.7996 440.2 49.8588C500.199 49.9181 560.198 49.9774 620.197 50.0366C680.197 50.0959 740.197 50.1551 800.196 50.2144C860.195 50.2737 920.194 50.3329 980.194 50.3922C1040.19 50.4515 1100.19 50.5107 1160.19 50.57C1220.19 50.6292 1280.19 50.6885 1340.19 50.7478C1400.19 50.807 1460.19 50.8663 1490.19 50.8959L1520.19 50.9255L1520.2 210.18Z" fill="#20283C"/>
</svg>
