<svg width="3041" height="260" viewBox="0 0 3039 260" fill="none" xmlns="http://www.w3.org/2000/svg">
<rect y="190" width="3040" height="70" fill="#C5EDFF"/>
<path d="M0.157517 49.6366L30.147 60.3286C60.1368 70.622 120.115 92.6041 180.115 92.3644C240.115 92.7226 300.137 70.8592 360.131 76.5984C420.126 81.939 480.094 113.886 540.073 135.17C600.052 156.853 660.042 166.877 720.052 156.673C780.063 146.07 840.094 114.241 900.115 93.0755C960.136 71.5112 1020.15 61.6055 1080.13 77.3095C1140.11 93.6113 1200.07 135.523 1260.09 114.656C1294.97 102.532 1339.91 80.4879 1377.34 55.8824C1416.68 30.027 1471.12 20.2463 1511.4 44.6061L1520.5 50.1106L1520.5 113L1520 209.07L1410 210.467C1380 210.438 1320 210.378 1260 210.319C1200 210.26 1140 210.201 1080 210.141C1020 210.082 960 210.023 900 209.963C840 209.904 780 209.845 720 209.786C660 209.726 600 209.667 540 209.608C480 209.549 420 209.489 360 209.43C300 209.371 240 209.312 180 209.252C120 209.193 60 209.134 30 209.104L3.94279e-05 209.075L0.157517 49.6366Z" fill="#C5EDFF"/>
<path d="M0.157517 49.6366L30.147 60.3286C60.1368 70.622 120.115 92.6041 180.115 92.3644C240.115 92.7226 300.137 70.8592 360.131 76.5984C420.126 81.939 480.094 113.886 540.073 135.17C600.052 156.853 660.042 166.877 720.052 156.673C780.063 146.07 840.094 114.241 900.115 93.0755C960.136 71.5112 1020.15 61.6055 1080.13 77.3095C1140.11 93.6113 1200.07 135.523 1260.09 114.656C1294.97 102.532 1339.91 80.4879 1377.34 55.8824C1416.68 30.027 1471.12 20.2463 1511.4 44.6061L1520.5 50.1106L1520.5 113L1520 209.07L1410 210.467C1380 210.438 1320 210.378 1260 210.319C1200 210.26 1140 210.201 1080 210.141C1020 210.082 960 210.023 900 209.963C840 209.904 780 209.845 720 209.786C660 209.726 600 209.667 540 209.608C480 209.549 420 209.489 360 209.43C300 209.371 240 209.312 180 209.252C120 209.193 60 209.134 30 209.104L3.94279e-05 209.075L0.157517 49.6366Z" fill="#C5EDFF"/>
<path d="M1520.01 49.8203L1534.5 58.0001L1552 66.5001C1600 88.5001 1640.13 92.604 1700.13 92.3643C1760.13 92.7225 1820.15 70.8591 1880.15 76.5983C1940.14 81.9389 2000.11 113.886 2060.08 135.17C2120.06 156.853 2180.05 166.877 2240.06 156.673C2300.07 146.07 2360.1 114.241 2420.12 93.0754C2480.14 71.5111 2540.15 61.6054 2600.14 77.3094C2660.12 93.6112 2720.08 135.523 2780.1 114.656C2814.98 102.53 2859.93 80.4824 2897.36 55.8733C2936.68 30.0201 2991.12 20.2343 3031.39 44.5817L3040 49.7847L3040 112.922L3040 209.069L2930 210.467C2900 210.437 2840 210.378 2780 210.319C2720 210.26 2660 210.2 2600.01 210.141C2540.01 210.082 2480.01 210.023 2420.01 209.963C2360.01 209.904 2300.01 209.845 2240.01 209.786C2180.01 209.726 2120.01 209.667 2060.01 209.608C2000.01 209.549 1940.01 209.489 1880.01 209.43C1820.01 209.371 1760.02 209.311 1700.02 209.252C1640.02 209.193 1580.02 209.134 1550.02 209.104L1520.02 209.074L1520.01 49.8203Z" fill="#C5EDFF"/>
<path d="M1520.01 49.8203L1534.5 58.0001L1552 66.5001C1600 88.5001 1640.13 92.604 1700.13 92.3643C1760.13 92.7225 1820.15 70.8591 1880.15 76.5983C1940.14 81.9389 2000.11 113.886 2060.08 135.17C2120.06 156.853 2180.05 166.877 2240.06 156.673C2300.07 146.07 2360.1 114.241 2420.12 93.0754C2480.14 71.5111 2540.15 61.6054 2600.14 77.3094C2660.12 93.6112 2720.08 135.523 2780.1 114.656C2814.98 102.53 2859.93 80.4824 2897.36 55.8733C2936.68 30.0201 2991.12 20.2343 3031.39 44.5817L3040 49.7847L3040 112.922L3040 209.069L2930 210.467C2900 210.437 2840 210.378 2780 210.319C2720 210.26 2660 210.2 2600.01 210.141C2540.01 210.082 2480.01 210.023 2420.01 209.963C2360.01 209.904 2300.01 209.845 2240.01 209.786C2180.01 209.726 2120.01 209.667 2060.01 209.608C2000.01 209.549 1940.01 209.489 1880.01 209.43C1820.01 209.371 1760.02 209.311 1700.02 209.252C1640.02 209.193 1580.02 209.134 1550.02 209.104L1520.02 209.074L1520.01 49.8203Z" fill="#C5EDFF"/>
</svg>
