<svg width="317" height="323" viewBox="0 0 317 323" fill="none" xmlns="http://www.w3.org/2000/svg">
<path d="M222.191 7.78624L207.503 115.062C206.824 120.023 209.433 124.854 213.954 127.006L310.19 172.812C312.366 173.848 311.962 177.059 309.598 177.523L203.958 198.263C199.135 199.21 195.447 203.118 194.78 207.988L180.034 315.682C179.705 318.087 176.489 318.659 175.35 316.516L125.153 222.052C122.777 217.579 117.753 215.188 112.783 216.164L7.81393 236.773C5.43271 237.24 3.8488 234.383 5.5072 232.611L79.7932 153.257C83.1524 149.668 83.8596 144.342 81.5531 140.001L31.036 44.9333C29.9054 42.8056 32.1426 40.4673 34.3181 41.5028L130.554 87.3091C135.075 89.4612 140.47 88.4402 143.892 84.7846L217.889 5.73859C219.555 3.95942 222.522 5.37171 222.191 7.78624Z" fill="#FF3E4A" stroke="#FF6969" stroke-width="9"/>
</svg>
