<svg width="1440" height="1440" viewBox="0 0 1440 1440" fill="none" xmlns="http://www.w3.org/2000/svg">
<circle cx="287.5" cy="243.5" r="1.5" fill="white"/>
<circle cx="818.5" cy="659.5" r="1.5" fill="white"/>
<circle cx="124.5" cy="612.5" r="1.5" transform="rotate(90 124.5 612.5)" fill="white"/>
<circle cx="0.5" cy="0.5" r="0.5" transform="matrix(1 0 0 -1 741 1238)" fill="white"/>
<circle cx="0.5" cy="0.5" r="0.5" transform="matrix(1 0 0 -1 1114 1048)" fill="white"/>
<circle cx="1" cy="1" r="1" transform="matrix(0 -1 -1 0 656 976)" fill="white"/>
<circle cx="1" cy="1" r="1" transform="matrix(0 -1 -1 0 420 990)" fill="white"/>
<circle cx="1" cy="1" r="1" transform="matrix(0 -1 -1 0 183 366)" fill="white"/>
<circle cx="1" cy="1" r="1" transform="matrix(0 -1 -1 0 877 366)" fill="white"/>
<circle cx="0.5" cy="0.5" r="0.5" transform="matrix(1 0 0 -1 597 450)" fill="white"/>
<circle cx="1272.5" cy="700.5" r="1.5" fill="white"/>
<circle cx="0.5" cy="0.5" r="0.5" transform="matrix(1 0 0 -1 1051 491)" fill="white"/>
<circle cx="0.5" cy="0.5" r="0.5" transform="matrix(1 0 0 -1 970 260)" fill="white"/>
<circle cx="0.5" cy="0.5" r="0.5" transform="matrix(1 0 0 -1 223 863)" fill="white"/>
<circle cx="0.5" cy="0.5" r="0.5" transform="matrix(1 0 0 -1 374 362)" fill="white"/>
<circle cx="0.5" cy="0.5" r="0.5" transform="matrix(1 0 0 -1 1030 961)" fill="white"/>
<circle cx="0.5" cy="0.5" r="0.5" transform="matrix(1 0 0 -1 807 873)" fill="white"/>
<circle cx="0.5" cy="0.5" r="0.5" transform="matrix(1 0 0 -1 669 778)" fill="white"/>
<circle cx="0.5" cy="0.5" r="0.5" transform="matrix(1 0 0 -1 446 690)" fill="white"/>
<circle cx="0.5" cy="0.5" r="0.5" transform="matrix(1 0 0 -1 338 597)" fill="white"/>
<circle cx="1" cy="1" r="1" transform="matrix(0 -1 -1 0 512 188)" fill="white"/>
<circle cx="847.5" cy="114.5" r="1.5" fill="white"/>
<circle cx="1290.5" cy="468.5" r="1.5" transform="rotate(90 1290.5 468.5)" fill="white"/>
<circle cx="167.5" cy="1104.5" r="1.5" transform="rotate(90 167.5 1104.5)" fill="white"/>
<circle cx="1199.5" cy="310.5" r="1.5" transform="rotate(90 1199.5 310.5)" fill="white"/>
<circle cx="783.5" cy="841.5" r="1.5" transform="rotate(90 783.5 841.5)" fill="white"/>
<circle cx="830.5" cy="147.5" r="1.5" transform="rotate(180 830.5 147.5)" fill="white"/>
<circle cx="0.5" cy="0.5" r="0.5" transform="matrix(0 1 1 0 205 764)" fill="white"/>
<circle cx="0.5" cy="0.5" r="0.5" transform="matrix(0 1 1 0 395 1137)" fill="white"/>
<circle cx="1" cy="1" r="1" transform="matrix(1 0 0 -1 467 679)" fill="white"/>
<circle cx="1" cy="1" r="1" transform="matrix(1 0 0 -1 453 443)" fill="white"/>
<circle cx="1" cy="1" r="1" transform="matrix(1 0 0 -1 1077 206)" fill="white"/>
<circle cx="1" cy="1" r="1" transform="matrix(1 0 0 -1 1077 900)" fill="white"/>
<circle cx="0.5" cy="0.5" r="0.5" transform="matrix(0 1 1 0 993 620)" fill="white"/>
<circle cx="742.5" cy="1295.5" r="1.5" transform="rotate(90 742.5 1295.5)" fill="white"/>
<circle cx="0.5" cy="0.5" r="0.5" transform="matrix(0 1 1 0 952 1074)" fill="white"/>
<circle cx="0.5" cy="0.5" r="0.5" transform="matrix(0 1 1 0 1183 993)" fill="white"/>
<circle cx="0.5" cy="0.5" r="0.5" transform="matrix(0 1 1 0 580 246)" fill="white"/>
<circle cx="0.5" cy="0.5" r="0.5" transform="matrix(0 1 1 0 1081 397)" fill="white"/>
<circle cx="0.5" cy="0.5" r="0.5" transform="matrix(0 1 1 0 482 1053)" fill="white"/>
<circle cx="0.5" cy="0.5" r="0.5" transform="matrix(0 1 1 0 570 830)" fill="white"/>
<circle cx="0.5" cy="0.5" r="0.5" transform="matrix(0 1 1 0 665 692)" fill="white"/>
<circle cx="0.5" cy="0.5" r="0.5" transform="matrix(0 1 1 0 753 469)" fill="white"/>
<circle cx="0.5" cy="0.5" r="0.5" transform="matrix(0 1 1 0 846 361)" fill="white"/>
<circle cx="1" cy="1" r="1" transform="matrix(1 0 0 -1 1255 535)" fill="white"/>
<circle cx="1328.5" cy="870.5" r="1.5" transform="rotate(90 1328.5 870.5)" fill="white"/>
<circle cx="974.5" cy="1313.5" r="1.5" transform="rotate(180 974.5 1313.5)" fill="white"/>
<circle cx="338.5" cy="190.5" r="1.5" transform="rotate(180 338.5 190.5)" fill="white"/>
<circle cx="154.5" cy="149.5" r="0.5" fill="white"/>
<circle cx="685.5" cy="565.5" r="0.5" fill="white"/>
<circle cx="0.5" cy="0.5" r="0.5" transform="matrix(1 0 0 -1 609 1145)" fill="white"/>
<circle cx="0.5" cy="0.5" r="0.5" transform="matrix(1 0 0 -1 982 955)" fill="white"/>
<circle cx="0.5" cy="0.5" r="0.5" transform="matrix(0 -1 -1 0 524 883)" fill="white"/>
<circle cx="0.5" cy="0.5" r="0.5" transform="matrix(0 -1 -1 0 288 897)" fill="white"/>
<circle cx="0.5" cy="0.5" r="0.5" transform="matrix(0 -1 -1 0 51 273)" fill="white"/>
<circle cx="0.5" cy="0.5" r="0.5" transform="matrix(0 -1 -1 0 745 273)" fill="white"/>
<circle cx="0.5" cy="0.5" r="0.5" transform="matrix(1 0 0 -1 465 357)" fill="white"/>
<circle cx="1139.5" cy="606.5" r="0.5" fill="white"/>
<circle cx="0.5" cy="0.5" r="0.5" transform="matrix(1 0 0 -1 919 398)" fill="white"/>
<circle cx="0.5" cy="0.5" r="0.5" transform="matrix(1 0 0 -1 838 167)" fill="white"/>
<circle cx="0.5" cy="0.5" r="0.5" transform="matrix(1 0 0 -1 91 770)" fill="white"/>
<circle cx="0.5" cy="0.5" r="0.5" transform="matrix(1 0 0 -1 242 269)" fill="white"/>
<circle cx="0.5" cy="0.5" r="0.5" transform="matrix(1 0 0 -1 898 868)" fill="white"/>
<circle cx="0.5" cy="0.5" r="0.5" transform="matrix(1 0 0 -1 675 780)" fill="white"/>
<circle cx="0.5" cy="0.5" r="0.5" transform="matrix(1 0 0 -1 537 685)" fill="white"/>
<circle cx="0.5" cy="0.5" r="0.5" transform="matrix(1 0 0 -1 314 597)" fill="white"/>
<circle cx="0.5" cy="0.5" r="0.5" transform="matrix(1 0 0 -1 206 504)" fill="white"/>
<circle cx="0.5" cy="0.5" r="0.5" transform="matrix(0 -1 -1 0 380 95)" fill="white"/>
<circle cx="714.5" cy="20.5" r="0.5" fill="white"/>
<circle cx="1159.5" cy="374.5" r="0.5" transform="rotate(90 1159.5 374.5)" fill="white"/>
<circle cx="36.5" cy="1010.5" r="0.5" transform="rotate(90 36.5 1010.5)" fill="white"/>
<circle cx="1068.5" cy="216.5" r="0.5" transform="rotate(90 1068.5 216.5)" fill="white"/>
<circle cx="652.5" cy="747.5" r="0.5" transform="rotate(90 652.5 747.5)" fill="white"/>
<circle cx="699.5" cy="55.5" r="0.5" transform="rotate(180 699.5 55.5)" fill="white"/>
<circle cx="0.5" cy="0.5" r="0.5" transform="matrix(0 1 1 0 73 671)" fill="white"/>
<circle cx="0.5" cy="0.5" r="0.5" transform="matrix(0 1 1 0 263 1044)" fill="white"/>
<circle cx="0.5" cy="0.5" r="0.5" transform="matrix(1 0 0 -1 335 586)" fill="white"/>
<circle cx="0.5" cy="0.5" r="0.5" transform="matrix(1 0 0 -1 321 350)" fill="white"/>
<circle cx="0.5" cy="0.5" r="0.5" transform="matrix(1 0 0 -1 945 113)" fill="white"/>
<circle cx="0.5" cy="0.5" r="0.5" transform="matrix(1 0 0 -1 945 807)" fill="white"/>
<circle cx="0.5" cy="0.5" r="0.5" transform="matrix(0 1 1 0 861 527)" fill="white"/>
<circle cx="611.5" cy="1201.5" r="0.5" transform="rotate(90 611.5 1201.5)" fill="white"/>
<circle cx="0.5" cy="0.5" r="0.5" transform="matrix(0 1 1 0 820 981)" fill="white"/>
<circle cx="0.5" cy="0.5" r="0.5" transform="matrix(0 1 1 0 1051 900)" fill="white"/>
<circle cx="0.5" cy="0.5" r="0.5" transform="matrix(0 1 1 0 448 153)" fill="white"/>
<circle cx="0.5" cy="0.5" r="0.5" transform="matrix(0 1 1 0 949 304)" fill="white"/>
<circle cx="0.5" cy="0.5" r="0.5" transform="matrix(0 1 1 0 350 960)" fill="white"/>
<circle cx="0.5" cy="0.5" r="0.5" transform="matrix(0 1 1 0 438 737)" fill="white"/>
<circle cx="0.5" cy="0.5" r="0.5" transform="matrix(0 1 1 0 533 599)" fill="white"/>
<circle cx="0.5" cy="0.5" r="0.5" transform="matrix(0 1 1 0 621 376)" fill="white"/>
<circle cx="0.5" cy="0.5" r="0.5" transform="matrix(0 1 1 0 714 268)" fill="white"/>
<circle cx="0.5" cy="0.5" r="0.5" transform="matrix(1 0 0 -1 1123 442)" fill="white"/>
<circle cx="1197.5" cy="776.5" r="0.5" transform="rotate(90 1197.5 776.5)" fill="white"/>
<circle cx="893.5" cy="508.5" r="0.5" fill="white"/>
<circle cx="0.5" cy="0.5" r="0.5" transform="matrix(1 0 0 -1 1190 898)" fill="white"/>
<circle cx="0.5" cy="0.5" r="0.5" transform="matrix(0 -1 -1 0 732 826)" fill="white"/>
<circle cx="0.5" cy="0.5" r="0.5" transform="matrix(1 0 0 -1 1106 811)" fill="white"/>
<circle cx="0.5" cy="0.5" r="0.5" transform="matrix(1 0 0 -1 883 723)" fill="white"/>
<circle cx="0.5" cy="0.5" r="0.5" transform="matrix(1 0 0 -1 745 628)" fill="white"/>
<circle cx="860.5" cy="690.5" r="0.5" transform="rotate(90 860.5 690.5)" fill="white"/>
<circle cx="0.5" cy="0.5" r="0.5" transform="matrix(1 0 0 -1 1153 750)" fill="white"/>
<circle cx="0.5" cy="0.5" r="0.5" transform="matrix(0 1 1 0 1069 470)" fill="white"/>
<circle cx="0.5" cy="0.5" r="0.5" transform="matrix(0 1 1 0 1028 924)" fill="white"/>
<circle cx="0.5" cy="0.5" r="0.5" transform="matrix(0 1 1 0 1259 843)" fill="white"/>
<circle cx="0.5" cy="0.5" r="0.5" transform="matrix(0 1 1 0 646 680)" fill="white"/>
<circle cx="0.5" cy="0.5" r="0.5" transform="matrix(0 1 1 0 741 542)" fill="white"/>
<circle cx="761.5" cy="415.5" r="0.5" fill="white"/>
<circle cx="0.5" cy="0.5" r="0.5" transform="matrix(1 0 0 -1 685 995)" fill="white"/>
<circle cx="0.5" cy="0.5" r="0.5" transform="matrix(1 0 0 -1 1058 805)" fill="white"/>
<circle cx="1215.5" cy="456.5" r="0.5" fill="white"/>
<circle cx="0.5" cy="0.5" r="0.5" transform="matrix(1 0 0 -1 974 718)" fill="white"/>
<circle cx="0.5" cy="0.5" r="0.5" transform="matrix(1 0 0 -1 751 630)" fill="white"/>
<circle cx="728.5" cy="597.5" r="0.5" transform="rotate(90 728.5 597.5)" fill="white"/>
<circle cx="0.5" cy="0.5" r="0.5" transform="matrix(1 0 0 -1 1021 657)" fill="white"/>
<circle cx="0.5" cy="0.5" r="0.5" transform="matrix(0 1 1 0 896 831)" fill="white"/>
<circle cx="0.5" cy="0.5" r="0.5" transform="matrix(0 1 1 0 1127 750)" fill="white"/>
<circle cx="1273.5" cy="626.5" r="0.5" transform="rotate(90 1273.5 626.5)" fill="white"/>
<circle cx="170.5" cy="933.5" r="0.5" fill="white"/>
<circle cx="0.5" cy="0.5" r="0.5" transform="matrix(1 0 0 -1 467 1323)" fill="white"/>
<circle cx="0.5" cy="0.5" r="0.5" transform="matrix(0 -1 -1 0 9 1251)" fill="white"/>
<circle cx="0.5" cy="0.5" r="0.5" transform="matrix(1 0 0 -1 383 1236)" fill="white"/>
<circle cx="0.5" cy="0.5" r="0.5" transform="matrix(1 0 0 -1 160 1148)" fill="white"/>
<circle cx="0.5" cy="0.5" r="0.5" transform="matrix(1 0 0 -1 22 1053)" fill="white"/>
<circle cx="137.5" cy="1115.5" r="0.5" transform="rotate(90 137.5 1115.5)" fill="white"/>
<circle cx="0.5" cy="0.5" r="0.5" transform="matrix(1 0 0 -1 430 1175)" fill="white"/>
<circle cx="0.5" cy="0.5" r="0.5" transform="matrix(0 1 1 0 346 895)" fill="white"/>
<circle cx="0.5" cy="0.5" r="0.5" transform="matrix(0 1 1 0 305 1349)" fill="white"/>
<circle cx="0.5" cy="0.5" r="0.5" transform="matrix(0 1 1 0 536 1268)" fill="white"/>
<circle cx="0.5" cy="0.5" r="0.5" transform="matrix(0 1 1 0 18 967)" fill="white"/>
<circle cx="38.5" cy="840.5" r="0.5" fill="white"/>
<circle cx="0.5" cy="0.5" r="0.5" transform="matrix(1 0 0 -1 335 1230)" fill="white"/>
<circle cx="492.5" cy="881.5" r="0.5" fill="white"/>
<circle cx="0.5" cy="0.5" r="0.5" transform="matrix(1 0 0 -1 251 1143)" fill="white"/>
<circle cx="0.5" cy="0.5" r="0.5" transform="matrix(1 0 0 -1 28 1055)" fill="white"/>
<circle cx="5.5" cy="1022.5" r="0.5" transform="rotate(90 5.5 1022.5)" fill="white"/>
<circle cx="0.5" cy="0.5" r="0.5" transform="matrix(1 0 0 -1 298 1082)" fill="white"/>
<circle cx="0.5" cy="0.5" r="0.5" transform="matrix(0 1 1 0 173 1256)" fill="white"/>
<circle cx="0.5" cy="0.5" r="0.5" transform="matrix(0 1 1 0 404 1175)" fill="white"/>
<circle cx="550.5" cy="1051.5" r="0.5" transform="rotate(90 550.5 1051.5)" fill="white"/>
<circle cx="225.5" cy="231.5" r="0.5" fill="white"/>
<circle cx="0.5" cy="0.5" r="0.5" transform="matrix(1 0 0 -1 522 621)" fill="white"/>
<circle cx="0.5" cy="0.5" r="0.5" transform="matrix(0 -1 -1 0 64 549)" fill="white"/>
<circle cx="0.5" cy="0.5" r="0.5" transform="matrix(1 0 0 -1 438 534)" fill="white"/>
<circle cx="0.5" cy="0.5" r="0.5" transform="matrix(1 0 0 -1 215 446)" fill="white"/>
<circle cx="0.5" cy="0.5" r="0.5" transform="matrix(1 0 0 -1 77 351)" fill="white"/>
<circle cx="192.5" cy="413.5" r="0.5" transform="rotate(90 192.5 413.5)" fill="white"/>
<circle cx="0.5" cy="0.5" r="0.5" transform="matrix(1 0 0 -1 485 473)" fill="white"/>
<circle cx="0.5" cy="0.5" r="0.5" transform="matrix(0 1 1 0 401 193)" fill="white"/>
<circle cx="0.5" cy="0.5" r="0.5" transform="matrix(0 1 1 0 360 647)" fill="white"/>
<circle cx="0.5" cy="0.5" r="0.5" transform="matrix(0 1 1 0 591 566)" fill="white"/>
<circle cx="0.5" cy="0.5" r="0.5" transform="matrix(0 1 1 0 73 265)" fill="white"/>
<circle cx="93.5" cy="138.5" r="0.5" fill="white"/>
<circle cx="0.5" cy="0.5" r="0.5" transform="matrix(1 0 0 -1 17 718)" fill="white"/>
<circle cx="0.5" cy="0.5" r="0.5" transform="matrix(1 0 0 -1 390 528)" fill="white"/>
<circle cx="547.5" cy="179.5" r="0.5" fill="white"/>
<circle cx="0.5" cy="0.5" r="0.5" transform="matrix(1 0 0 -1 306 441)" fill="white"/>
<circle cx="0.5" cy="0.5" r="0.5" transform="matrix(1 0 0 -1 83 353)" fill="white"/>
<circle cx="60.5" cy="320.5" r="0.5" transform="rotate(90 60.5 320.5)" fill="white"/>
<circle cx="0.5" cy="0.5" r="0.5" transform="matrix(1 0 0 -1 353 380)" fill="white"/>
<circle cx="0.5" cy="0.5" r="0.5" transform="matrix(0 1 1 0 228 554)" fill="white"/>
<circle cx="0.5" cy="0.5" r="0.5" transform="matrix(0 1 1 0 459 473)" fill="white"/>
<circle cx="605.5" cy="349.5" r="0.5" transform="rotate(90 605.5 349.5)" fill="white"/>
<circle cx="1145.5" cy="1054.5" r="0.5" fill="white"/>
<circle cx="0.5" cy="0.5" r="0.5" transform="matrix(0 -1 -1 0 984 1372)" fill="white"/>
<circle cx="0.5" cy="0.5" r="0.5" transform="matrix(1 0 0 -1 1358 1357)" fill="white"/>
<circle cx="0.5" cy="0.5" r="0.5" transform="matrix(1 0 0 -1 1135 1269)" fill="white"/>
<circle cx="0.5" cy="0.5" r="0.5" transform="matrix(1 0 0 -1 997 1174)" fill="white"/>
<circle cx="1112.5" cy="1236.5" r="0.5" transform="rotate(90 1112.5 1236.5)" fill="white"/>
<circle cx="0.5" cy="0.5" r="0.5" transform="matrix(1 0 0 -1 1405 1296)" fill="white"/>
<circle cx="0.5" cy="0.5" r="0.5" transform="matrix(0 1 1 0 1321 1016)" fill="white"/>
<circle cx="0.5" cy="0.5" r="0.5" transform="matrix(0 1 1 0 898 1226)" fill="white"/>
<circle cx="0.5" cy="0.5" r="0.5" transform="matrix(0 1 1 0 993 1088)" fill="white"/>
<circle cx="1013.5" cy="961.5" r="0.5" fill="white"/>
<circle cx="0.5" cy="0.5" r="0.5" transform="matrix(1 0 0 -1 1310 1351)" fill="white"/>
<circle cx="0.5" cy="0.5" r="0.5" transform="matrix(1 0 0 -1 1226 1264)" fill="white"/>
<circle cx="0.5" cy="0.5" r="0.5" transform="matrix(1 0 0 -1 1003 1176)" fill="white"/>
<circle cx="980.5" cy="1143.5" r="0.5" transform="rotate(90 980.5 1143.5)" fill="white"/>
<circle cx="0.5" cy="0.5" r="0.5" transform="matrix(1 0 0 -1 1273 1203)" fill="white"/>
<circle cx="0.5" cy="0.5" r="0.5" transform="matrix(0 1 1 0 1148 1377)" fill="white"/>
<circle cx="0.5" cy="0.5" r="0.5" transform="matrix(0 1 1 0 1379 1296)" fill="white"/>
<circle cx="843.5" cy="1221.5" r="0.5" transform="rotate(180 843.5 1221.5)" fill="white"/>
<circle cx="207.5" cy="98.5" r="0.5" transform="rotate(180 207.5 98.5)" fill="white"/>
<ellipse cx="1264" cy="1235.5" rx="3" ry="2.5" transform="rotate(180 1264 1235.5)" fill="white"/>
<ellipse cx="482.5" cy="665.5" rx="2.5" ry="1.5" transform="rotate(180 482.5 665.5)" fill="white"/>
<circle cx="0.5" cy="0.5" r="0.5" transform="matrix(-1 0 0 1 47 133)" fill="white"/>
<ellipse cx="1.5" cy="1" rx="1.5" ry="1" transform="matrix(0 1 1 0 722 231)" fill="white"/>
<circle cx="1.5" cy="1.5" r="1.5" transform="matrix(0 1 1 0 1069 212)" fill="white"/>
<circle cx="1.5" cy="1.5" r="1.5" transform="matrix(0 1 1 0 1418 1067)" fill="white"/>
<circle cx="1.5" cy="1.5" r="1.5" transform="matrix(0 1 1 0 396 1067)" fill="white"/>
<ellipse cx="1.5" cy="0.5" rx="1.5" ry="0.5" transform="matrix(-1 0 0 1 809 952)" fill="white"/>
<ellipse cx="0.5" cy="1" rx="0.5" ry="1" transform="matrix(-1 0 0 1 140 896)" fill="white"/>
<ellipse cx="1.5" cy="1" rx="1.5" ry="1" transform="matrix(-1 0 0 1 260 1212)" fill="white"/>
<circle cx="0.5" cy="0.5" r="0.5" transform="matrix(-1 0 0 1 1359 387)" fill="white"/>
<ellipse cx="0.5" cy="1" rx="0.5" ry="1" transform="matrix(-1 0 0 1 1136 1073)" fill="white"/>
<circle cx="0.5" cy="0.5" r="0.5" transform="matrix(-1 0 0 1 171 252)" fill="white"/>
<circle cx="0.5" cy="0.5" r="0.5" transform="matrix(-1 0 0 1 499 373)" fill="white"/>
<ellipse cx="1" cy="0.5" rx="1" ry="0.5" transform="matrix(-1 0 0 1 703 503)" fill="white"/>
<ellipse cx="0.5" cy="1" rx="0.5" ry="1" transform="matrix(-1 0 0 1 1031 623)" fill="white"/>
<circle cx="0.5" cy="0.5" r="0.5" transform="matrix(-1 0 0 1 1190 751)" fill="white"/>
<circle cx="1.5" cy="1.5" r="1.5" transform="matrix(0 1 1 0 934 1311)" fill="white"/>
<ellipse cx="439.5" cy="1412" rx="2.5" ry="2" transform="rotate(180 439.5 1412)" fill="white"/>
<ellipse cx="534" cy="415.5" rx="2.5" ry="2" transform="rotate(-90 534 415.5)" fill="white"/>
<circle cx="464.5" cy="1366.5" r="2.5" fill="white"/>
<circle cx="0.5" cy="0.5" r="0.5" transform="matrix(0 -1 -1 0 1385 522)" fill="white"/>
<circle cx="0.5" cy="0.5" r="0.5" transform="matrix(0 -1 -1 0 1105 11)" fill="white"/>
<circle cx="1.5" cy="1.5" r="1.5" transform="matrix(-1 0 0 1 1000 638)" fill="white"/>
<ellipse cx="1" cy="1.5" rx="1" ry="1.5" transform="matrix(-1 0 0 1 1020 962)" fill="white"/>
<ellipse cx="1.5" cy="1" rx="1.5" ry="1" transform="matrix(-1 0 0 1 101 1287)" fill="white"/>
<circle cx="1.5" cy="1.5" r="1.5" transform="matrix(-1 0 0 1 101 336)" fill="white"/>
<circle cx="0.5" cy="0.5" r="0.5" transform="matrix(0 -1 -1 0 225 719)" fill="white"/>
<circle cx="0.5" cy="0.5" r="0.5" transform="matrix(0 -1 -1 0 285 97)" fill="white"/>
<circle cx="0.5" cy="0.5" r="0.5" transform="matrix(0 -1 -1 0 833 1231)" fill="white"/>
<ellipse cx="0.5" cy="1" rx="0.5" ry="1" transform="matrix(0 -1 -1 0 96 1025)" fill="white"/>
<circle cx="0.5" cy="0.5" r="0.5" transform="matrix(0 -1 -1 0 977 126)" fill="white"/>
<circle cx="0.5" cy="0.5" r="0.5" transform="matrix(0 -1 -1 0 848 431)" fill="white"/>
<ellipse cx="1" cy="0.5" rx="1" ry="0.5" transform="matrix(0 -1 -1 0 708 621)" fill="white"/>
<ellipse cx="1.5" cy="1" rx="1.5" ry="1" transform="matrix(0 -1 -1 0 579 927)" fill="white"/>
<circle cx="1" cy="1" r="1" transform="matrix(0 -1 -1 0 442 1075)" fill="white"/>
<circle cx="1189" cy="1308" r="2" fill="white"/>
<circle cx="678" cy="794" r="1" transform="rotate(180 678 794)" fill="white"/>
<ellipse cx="0.5" cy="1" rx="0.5" ry="1" transform="matrix(-1 0 0 1 241 260)" fill="white"/>
<ellipse cx="0.5" cy="1" rx="0.5" ry="1" transform="matrix(0 1 1 0 915 359)" fill="white"/>
<circle cx="0.5" cy="0.5" r="0.5" transform="matrix(0 1 1 0 1264 340)" fill="white"/>
<circle cx="0.5" cy="0.5" r="0.5" transform="matrix(0 1 1 0 591 1195)" fill="white"/>
<ellipse cx="1" cy="0.5" rx="1" ry="0.5" transform="matrix(-1 0 0 1 1003 1080)" fill="white"/>
<ellipse cx="10" cy="737.5" rx="1" ry="0.5" transform="rotate(180 10 737.5)" fill="white"/>
<circle cx="0.5" cy="0.5" r="0.5" transform="matrix(-1 0 0 1 334 1024)" fill="white"/>
<ellipse cx="1" cy="0.5" rx="1" ry="0.5" transform="matrix(-1 0 0 1 454 1340)" fill="white"/>
<circle cx="0.5" cy="0.5" r="0.5" transform="matrix(-1 0 0 1 1331 1200)" fill="white"/>
<ellipse cx="0.5" cy="1" rx="0.5" ry="1" transform="matrix(-1 0 0 1 365 379)" fill="white"/>
<circle cx="0.5" cy="0.5" r="0.5" transform="matrix(-1 0 0 1 693 501)" fill="white"/>
<ellipse cx="1" cy="0.5" rx="1" ry="0.5" transform="matrix(-1 0 0 1 897 631)" fill="white"/>
<circle cx="0.5" cy="0.5" r="0.5" transform="matrix(-1 0 0 1 1225 751)" fill="white"/>
<ellipse cx="1" cy="0.5" rx="1" ry="0.5" transform="matrix(-1 0 0 1 1384 879)" fill="white"/>
<ellipse cx="114" cy="1272.5" rx="0.5" ry="1" transform="rotate(-90 114 1272.5)" fill="white"/>
<circle cx="726.5" cy="544.5" r="0.5" transform="rotate(-90 726.5 544.5)" fill="white"/>
<circle cx="0.5" cy="0.5" r="0.5" transform="matrix(0 -1 -1 0 1300 138)" fill="white"/>
<circle cx="0.5" cy="0.5" r="0.5" transform="matrix(-1 0 0 1 1194 766)" fill="white"/>
<circle cx="0.5" cy="0.5" r="0.5" transform="matrix(-1 0 0 1 1214 1090)" fill="white"/>
<ellipse cx="0.5" cy="1" rx="0.5" ry="1" transform="matrix(-1 0 0 1 296 1414)" fill="white"/>
<circle cx="0.5" cy="0.5" r="0.5" transform="matrix(-1 0 0 1 296 463)" fill="white"/>
<circle cx="0.5" cy="0.5" r="0.5" transform="matrix(0 -1 -1 0 420 847)" fill="white"/>
<circle cx="0.5" cy="0.5" r="0.5" transform="matrix(0 -1 -1 0 480 225)" fill="white"/>
<ellipse cx="1" cy="0.5" rx="1" ry="0.5" transform="matrix(0 -1 -1 0 140 336)" fill="white"/>
<ellipse cx="0.5" cy="1" rx="0.5" ry="1" transform="matrix(0 -1 -1 0 1028 1359)" fill="white"/>
<ellipse cx="0.5" cy="1.5" rx="0.5" ry="1.5" transform="matrix(0 -1 -1 0 291 1152)" fill="white"/>
<circle cx="0.5" cy="0.5" r="0.5" transform="matrix(0 -1 -1 0 1172 253)" fill="white"/>
<circle cx="0.5" cy="0.5" r="0.5" transform="matrix(0 -1 -1 0 1042 559)" fill="white"/>
<ellipse cx="0.5" cy="1" rx="0.5" ry="1" transform="matrix(0 -1 -1 0 903 748)" fill="white"/>
<ellipse cx="0.5" cy="1" rx="0.5" ry="1" transform="matrix(0 -1 -1 0 773 1053)" fill="white"/>
<ellipse cx="0.5" cy="1.5" rx="0.5" ry="1.5" transform="matrix(0 -1 -1 0 637 1201)" fill="white"/>
<circle cx="1" cy="1" r="1" transform="matrix(-1 0 0 1 34 963)" fill="white"/>
<ellipse cx="372" cy="871.5" rx="1" ry="0.5" transform="rotate(180 372 871.5)" fill="white"/>
<ellipse cx="1" cy="0.5" rx="1" ry="0.5" transform="matrix(0 1 1 0 610 437)" fill="white"/>
<circle cx="0.5" cy="0.5" r="0.5" transform="matrix(-1 0 0 1 59 458)" fill="white"/>
<ellipse cx="1" cy="0.5" rx="1" ry="0.5" transform="matrix(-1 0 0 1 388 578)" fill="white"/>
<ellipse cx="1" cy="0.5" rx="1" ry="0.5" transform="matrix(-1 0 0 1 591 708)" fill="white"/>
<circle cx="420.5" cy="622.5" r="0.5" transform="rotate(-90 420.5 622.5)" fill="white"/>
<circle cx="0.5" cy="0.5" r="0.5" transform="matrix(0 -1 -1 0 113 924)" fill="white"/>
<ellipse cx="0.5" cy="1" rx="0.5" ry="1" transform="matrix(0 -1 -1 0 174 302)" fill="white"/>
<circle cx="0.5" cy="0.5" r="0.5" transform="matrix(0 -1 -1 0 736 637)" fill="white"/>
<ellipse cx="1.5" cy="0.5" rx="1.5" ry="0.5" transform="matrix(0 -1 -1 0 596 827)" fill="white"/>
<ellipse cx="566" cy="999.5" rx="1" ry="0.5" transform="rotate(180 566 999.5)" fill="white"/>
<ellipse cx="1" cy="0.5" rx="1" ry="0.5" transform="matrix(-1 0 0 1 679 206)" fill="white"/>
<ellipse cx="0.5" cy="1.5" rx="0.5" ry="1.5" transform="matrix(-1 0 0 1 129 465)" fill="white"/>
<ellipse cx="0.5" cy="1" rx="0.5" ry="1" transform="matrix(-1 0 0 1 253 585)" fill="white"/>
<circle cx="1" cy="1" r="1" transform="matrix(-1 0 0 1 582 705)" fill="white"/>
<circle cx="614.5" cy="750.5" r="0.5" transform="rotate(-90 614.5 750.5)" fill="white"/>
<circle cx="0.5" cy="0.5" r="0.5" transform="matrix(-1 0 0 1 184 669)" fill="white"/>
<ellipse cx="0.5" cy="1" rx="0.5" ry="1" transform="matrix(0 -1 -1 0 368 430)" fill="white"/>
<circle cx="0.5" cy="0.5" r="0.5" transform="matrix(0 -1 -1 0 28 541)" fill="white"/>
<circle cx="1" cy="1" r="1" transform="matrix(0 -1 -1 0 1178 343)" fill="white"/>
<circle cx="962" cy="361" r="1" transform="rotate(180 962 361)" fill="white"/>
<ellipse cx="1" cy="0.5" rx="1" ry="0.5" transform="matrix(-1 0 0 1 1318 3)" fill="white"/>
<circle cx="0.5" cy="0.5" r="0.5" transform="matrix(-1 0 0 1 1249 86)" fill="white"/>
<ellipse cx="877" cy="128.5" rx="0.5" ry="1" transform="rotate(-90 877 128.5)" fill="white"/>
<ellipse cx="1355" cy="1251.5" rx="1" ry="1.5" transform="rotate(180 1355 1251.5)" fill="white"/>
<ellipse cx="1" cy="0.5" rx="1" ry="0.5" transform="matrix(-1 0 0 1 919 718)" fill="white"/>
<circle cx="0.5" cy="0.5" r="0.5" transform="matrix(-1 0 0 1 1042 837)" fill="white"/>
<circle cx="0.5" cy="0.5" r="0.5" transform="matrix(-1 0 0 1 1370 958)" fill="white"/>
<circle cx="1404" cy="1002" r="1" transform="rotate(-90 1404 1002)" fill="white"/>
<ellipse cx="0.5" cy="1" rx="0.5" ry="1" transform="matrix(-1 0 0 1 973 920)" fill="white"/>
<ellipse cx="1" cy="0.5" rx="1" ry="0.5" transform="matrix(0 -1 -1 0 1097 1305)" fill="white"/>
<circle cx="1" cy="1" r="1" transform="matrix(0 -1 -1 0 1158 683)" fill="white"/>
<circle cx="0.5" cy="0.5" r="0.5" transform="matrix(0 -1 -1 0 817 793)" fill="white"/>
<circle cx="0.5" cy="0.5" r="0.5" transform="matrix(-1 0 0 1 1113 846)" fill="white"/>
<circle cx="881" cy="1323" r="1" transform="rotate(180 881 1323)" fill="white"/>
<circle cx="0.5" cy="0.5" r="0.5" transform="matrix(-1 0 0 1 1237 965)" fill="white"/>
<circle cx="0.5" cy="0.5" r="0.5" transform="matrix(-1 0 0 1 1167 1048)" fill="white"/>
<ellipse cx="0.5" cy="1" rx="0.5" ry="1" transform="matrix(0 -1 -1 0 1352 809)" fill="white"/>
<circle cx="0.5" cy="0.5" r="0.5" transform="matrix(0 -1 -1 0 1011 920)" fill="white"/>
<ellipse cx="796" cy="1090.5" rx="0.5" ry="1" transform="rotate(-90 796 1090.5)" fill="white"/>
<circle cx="0.5" cy="0.5" r="0.5" transform="matrix(-1 0 0 1 437 577)" fill="white"/>
<circle cx="139.5" cy="966.5" r="0.5" transform="rotate(180 139.5 966.5)" fill="white"/>
<circle cx="598.5" cy="894.5" r="0.5" transform="rotate(-90 598.5 894.5)" fill="white"/>
<circle cx="377.5" cy="284.5" r="0.5" transform="rotate(-90 377.5 284.5)" fill="white"/>
<circle cx="202.5" cy="409.5" r="0.5" transform="rotate(180 202.5 409.5)" fill="white"/>
<circle cx="223.5" cy="879.5" r="0.5" transform="rotate(180 223.5 879.5)" fill="white"/>
<circle cx="446.5" cy="791.5" r="0.5" transform="rotate(180 446.5 791.5)" fill="white"/>
<circle cx="584.5" cy="696.5" r="0.5" transform="rotate(180 584.5 696.5)" fill="white"/>
<circle cx="0.5" cy="0.5" r="0.5" transform="matrix(0 1 1 0 469 759)" fill="white"/>
<circle cx="176.5" cy="818.5" r="0.5" transform="rotate(180 176.5 818.5)" fill="white"/>
<circle cx="260.5" cy="539.5" r="0.5" transform="rotate(90 260.5 539.5)" fill="white"/>
<circle cx="301.5" cy="993.5" r="0.5" transform="rotate(90 301.5 993.5)" fill="white"/>
<circle cx="70.5" cy="912.5" r="0.5" transform="rotate(90 70.5 912.5)" fill="white"/>
<circle cx="172.5" cy="316.5" r="0.5" transform="rotate(90 172.5 316.5)" fill="white"/>
<circle cx="588.5" cy="611.5" r="0.5" transform="rotate(90 588.5 611.5)" fill="white"/>
<circle cx="500.5" cy="388.5" r="0.5" transform="rotate(90 500.5 388.5)" fill="white"/>
<circle cx="407.5" cy="280.5" r="0.5" transform="rotate(90 407.5 280.5)" fill="white"/>
<circle cx="0.5" cy="0.5" r="0.5" transform="matrix(-1 0 0 1 569 484)" fill="white"/>
<circle cx="271.5" cy="873.5" r="0.5" transform="rotate(180 271.5 873.5)" fill="white"/>
<circle cx="0.5" cy="0.5" r="0.5" transform="matrix(-1 0 0 1 115 525)" fill="white"/>
<circle cx="334.5" cy="316.5" r="0.5" transform="rotate(180 334.5 316.5)" fill="white"/>
<circle cx="355.5" cy="786.5" r="0.5" transform="rotate(180 355.5 786.5)" fill="white"/>
<circle cx="578.5" cy="698.5" r="0.5" transform="rotate(180 578.5 698.5)" fill="white"/>
<circle cx="0.5" cy="0.5" r="0.5" transform="matrix(0 1 1 0 94 293)" fill="white"/>
<circle cx="0.5" cy="0.5" r="0.5" transform="matrix(0 1 1 0 601 666)" fill="white"/>
<circle cx="308.5" cy="725.5" r="0.5" transform="rotate(180 308.5 725.5)" fill="white"/>
<circle cx="392.5" cy="446.5" r="0.5" transform="rotate(90 392.5 446.5)" fill="white"/>
<circle cx="433.5" cy="900.5" r="0.5" transform="rotate(90 433.5 900.5)" fill="white"/>
<circle cx="202.5" cy="819.5" r="0.5" transform="rotate(90 202.5 819.5)" fill="white"/>
<circle cx="130.5" cy="360.5" r="0.5" transform="rotate(180 130.5 360.5)" fill="white"/>
<circle cx="0.5" cy="0.5" r="0.5" transform="matrix(0 1 1 0 56 695)" fill="white"/>
<circle cx="0.5" cy="0.5" r="0.5" transform="matrix(-1 0 0 1 361 427)" fill="white"/>
<circle cx="63.5" cy="816.5" r="0.5" transform="rotate(180 63.5 816.5)" fill="white"/>
<circle cx="522.5" cy="744.5" r="0.5" transform="rotate(-90 522.5 744.5)" fill="white"/>
<circle cx="147.5" cy="729.5" r="0.5" transform="rotate(180 147.5 729.5)" fill="white"/>
<circle cx="370.5" cy="641.5" r="0.5" transform="rotate(180 370.5 641.5)" fill="white"/>
<circle cx="508.5" cy="546.5" r="0.5" transform="rotate(180 508.5 546.5)" fill="white"/>
<circle cx="0.5" cy="0.5" r="0.5" transform="matrix(0 1 1 0 393 609)" fill="white"/>
<circle cx="100.5" cy="668.5" r="0.5" transform="rotate(180 100.5 668.5)" fill="white"/>
<circle cx="184.5" cy="389.5" r="0.5" transform="rotate(90 184.5 389.5)" fill="white"/>
<circle cx="225.5" cy="843.5" r="0.5" transform="rotate(90 225.5 843.5)" fill="white"/>
<circle cx="607.5" cy="599.5" r="0.5" transform="rotate(90 607.5 599.5)" fill="white"/>
<circle cx="512.5" cy="461.5" r="0.5" transform="rotate(90 512.5 461.5)" fill="white"/>
<circle cx="0.5" cy="0.5" r="0.5" transform="matrix(-1 0 0 1 493 334)" fill="white"/>
<circle cx="568.5" cy="913.5" r="0.5" transform="rotate(180 568.5 913.5)" fill="white"/>
<circle cx="195.5" cy="723.5" r="0.5" transform="rotate(180 195.5 723.5)" fill="white"/>
<circle cx="0.5" cy="0.5" r="0.5" transform="matrix(-1 0 0 1 39 375)" fill="white"/>
<circle cx="279.5" cy="636.5" r="0.5" transform="rotate(180 279.5 636.5)" fill="white"/>
<circle cx="502.5" cy="548.5" r="0.5" transform="rotate(180 502.5 548.5)" fill="white"/>
<circle cx="0.5" cy="0.5" r="0.5" transform="matrix(0 1 1 0 525 516)" fill="white"/>
<circle cx="232.5" cy="575.5" r="0.5" transform="rotate(180 232.5 575.5)" fill="white"/>
<circle cx="357.5" cy="750.5" r="0.5" transform="rotate(90 357.5 750.5)" fill="white"/>
<circle cx="126.5" cy="669.5" r="0.5" transform="rotate(90 126.5 669.5)" fill="white"/>
<circle cx="0.5" cy="0.5" r="0.5" transform="matrix(-1 0 0 1 109 973)" fill="white"/>
<circle cx="256.5" cy="1092.5" r="0.5" transform="rotate(180 256.5 1092.5)" fill="white"/>
<circle cx="260.5" cy="1007.5" r="0.5" transform="rotate(90 260.5 1007.5)" fill="white"/>
<circle cx="0.5" cy="0.5" r="0.5" transform="matrix(-1 0 0 1 241 880)" fill="white"/>
<circle cx="250.5" cy="1094.5" r="0.5" transform="rotate(180 250.5 1094.5)" fill="white"/>
<circle cx="0.5" cy="0.5" r="0.5" transform="matrix(0 1 1 0 273 1062)" fill="white"/>
<ellipse cx="446.5" cy="871.5" rx="1.5" ry="0.5" fill="white"/>
<ellipse cx="118.25" cy="992.5" rx="0.25" ry="0.5" fill="white"/>
<ellipse cx="552" cy="422.5" rx="1" ry="0.5" fill="white"/>
<ellipse cx="223.25" cy="542.5" rx="0.25" ry="0.5" fill="white"/>
<circle cx="64.5" cy="670.5" r="0.5" fill="white"/>
<circle cx="254.5" cy="557.5" r="0.5" fill="white"/>
<ellipse cx="234.333" cy="881.5" rx="0.333333" ry="0.5" fill="white"/>
<circle cx="406.5" cy="349.5" r="0.5" transform="rotate(-90 406.5 349.5)" fill="white"/>
<ellipse cx="546.5" cy="539" rx="1" ry="0.5" transform="rotate(-90 546.5 539)" fill="white"/>
<circle cx="0.5" cy="0.5" r="0.5" transform="matrix(1 0 0 -1 575 714)" fill="white"/>
<ellipse cx="338.5" cy="278.25" rx="0.25" ry="0.5" transform="rotate(90 338.5 278.25)" fill="white"/>
<ellipse cx="252" cy="999.5" rx="1" ry="0.5" fill="white"/>
<circle cx="561.5" cy="420.5" r="0.5" fill="white"/>
<ellipse cx="358" cy="550.5" rx="1" ry="0.5" fill="white"/>
<circle cx="29.5" cy="670.5" r="0.5" fill="white"/>
<circle cx="0.5" cy="0.5" r="0.5" transform="matrix(0 -1 -1 0 528 464)" fill="white"/>
<circle cx="60.5" cy="685.5" r="0.5" fill="white"/>
<circle cx="40.5" cy="1009.5" r="0.5" fill="white"/>
<circle cx="212.5" cy="477.5" r="0.5" transform="rotate(-90 212.5 477.5)" fill="white"/>
<ellipse cx="351.5" cy="666.75" rx="0.25" ry="0.5" transform="rotate(-90 351.5 666.75)" fill="white"/>
<ellipse cx="481.5" cy="971.75" rx="0.25" ry="0.5" transform="rotate(-90 481.5 971.75)" fill="white"/>
<ellipse cx="617.5" cy="1119.83" rx="0.166667" ry="0.5" transform="rotate(-90 617.5 1119.83)" fill="white"/>
<circle cx="518.5" cy="555.5" r="0.5" transform="rotate(-90 518.5 555.5)" fill="white"/>
<circle cx="76.5" cy="261.5" r="0.5" transform="rotate(-90 76.5 261.5)" fill="white"/>
<circle cx="0.5" cy="0.5" r="0.5" transform="matrix(1 0 0 -1 291 281)" fill="white"/>
<ellipse cx="336" cy="637.5" rx="1" ry="0.5" fill="white"/>
<circle cx="212.5" cy="756.5" r="0.5" fill="white"/>
<ellipse cx="281.25" cy="839.5" rx="0.25" ry="0.5" fill="white"/>
<circle cx="96.5" cy="601.5" r="0.5" transform="rotate(-90 96.5 601.5)" fill="white"/>
<circle cx="437.5" cy="711.5" r="0.5" transform="rotate(-90 437.5 711.5)" fill="white"/>
<circle cx="141.5" cy="765.5" r="0.5" fill="white"/>
<circle cx="87.5" cy="967.5" r="0.5" fill="white"/>
<circle cx="243.5" cy="838.5" r="0.5" transform="rotate(-90 243.5 838.5)" fill="white"/>
<ellipse cx="0.25" cy="0.5" rx="0.25" ry="0.5" transform="matrix(0 -1 -1 0 459 1010)" fill="white"/>
<circle cx="992.5" cy="345.5" r="1.5" fill="white"/>
<circle cx="1" cy="1" r="1" transform="matrix(0 -1 -1 0 830 662)" fill="white"/>
<circle cx="1" cy="1" r="1" transform="matrix(0 -1 -1 0 594 676)" fill="white"/>
<circle cx="1" cy="1" r="1" transform="matrix(0 -1 -1 0 1051 52)" fill="white"/>
<circle cx="0.5" cy="0.5" r="0.5" transform="matrix(1 0 0 -1 771 136)" fill="white"/>
<circle cx="0.5" cy="0.5" r="0.5" transform="matrix(1 0 0 -1 1225 177)" fill="white"/>
<circle cx="0.5" cy="0.5" r="0.5" transform="matrix(1 0 0 -1 548 48)" fill="white"/>
<circle cx="0.5" cy="0.5" r="0.5" transform="matrix(1 0 0 -1 1204 647)" fill="white"/>
<circle cx="0.5" cy="0.5" r="0.5" transform="matrix(1 0 0 -1 981 559)" fill="white"/>
<circle cx="0.5" cy="0.5" r="0.5" transform="matrix(1 0 0 -1 843 464)" fill="white"/>
<circle cx="0.5" cy="0.5" r="0.5" transform="matrix(1 0 0 -1 620 376)" fill="white"/>
<circle cx="0.5" cy="0.5" r="0.5" transform="matrix(1 0 0 -1 512 283)" fill="white"/>
<circle cx="957.5" cy="527.5" r="1.5" transform="rotate(90 957.5 527.5)" fill="white"/>
<circle cx="1" cy="1" r="1" transform="matrix(1 0 0 -1 641 365)" fill="white"/>
<circle cx="1" cy="1" r="1" transform="matrix(1 0 0 -1 627 129)" fill="white"/>
<circle cx="1" cy="1" r="1" transform="matrix(1 0 0 -1 1251 586)" fill="white"/>
<circle cx="0.5" cy="0.5" r="0.5" transform="matrix(0 1 1 0 1167 306)" fill="white"/>
<circle cx="0.5" cy="0.5" r="0.5" transform="matrix(0 1 1 0 1357 679)" fill="white"/>
<circle cx="0.5" cy="0.5" r="0.5" transform="matrix(0 1 1 0 1255 83)" fill="white"/>
<circle cx="0.5" cy="0.5" r="0.5" transform="matrix(0 1 1 0 744 516)" fill="white"/>
<circle cx="0.5" cy="0.5" r="0.5" transform="matrix(0 1 1 0 839 378)" fill="white"/>
<circle cx="0.5" cy="0.5" r="0.5" transform="matrix(0 1 1 0 927 155)" fill="white"/>
<circle cx="0.5" cy="0.5" r="0.5" transform="matrix(0 1 1 0 1020 47)" fill="white"/>
<circle cx="1" cy="1" r="1" transform="matrix(1 0 0 -1 1429 221)" fill="white"/>
<circle cx="859.5" cy="251.5" r="0.5" fill="white"/>
<circle cx="0.5" cy="0.5" r="0.5" transform="matrix(1 0 0 -1 1156 641)" fill="white"/>
<circle cx="0.5" cy="0.5" r="0.5" transform="matrix(0 -1 -1 0 698 569)" fill="white"/>
<circle cx="0.5" cy="0.5" r="0.5" transform="matrix(0 -1 -1 0 462 583)" fill="white"/>
<circle cx="0.5" cy="0.5" r="0.5" transform="matrix(1 0 0 -1 639 43)" fill="white"/>
<circle cx="1313.5" cy="292.5" r="0.5" fill="white"/>
<circle cx="0.5" cy="0.5" r="0.5" transform="matrix(1 0 0 -1 1093 84)" fill="white"/>
<circle cx="0.5" cy="0.5" r="0.5" transform="matrix(1 0 0 -1 1072 554)" fill="white"/>
<circle cx="0.5" cy="0.5" r="0.5" transform="matrix(1 0 0 -1 849 466)" fill="white"/>
<circle cx="0.5" cy="0.5" r="0.5" transform="matrix(1 0 0 -1 711 371)" fill="white"/>
<circle cx="0.5" cy="0.5" r="0.5" transform="matrix(1 0 0 -1 488 283)" fill="white"/>
<circle cx="1333.5" cy="60.5" r="0.5" transform="rotate(90 1333.5 60.5)" fill="white"/>
<circle cx="826.5" cy="433.5" r="0.5" transform="rotate(90 826.5 433.5)" fill="white"/>
<circle cx="0.5" cy="0.5" r="0.5" transform="matrix(1 0 0 -1 509 272)" fill="white"/>
<circle cx="0.5" cy="0.5" r="0.5" transform="matrix(1 0 0 -1 495 36)" fill="white"/>
<circle cx="0.5" cy="0.5" r="0.5" transform="matrix(1 0 0 -1 1119 493)" fill="white"/>
<circle cx="0.5" cy="0.5" r="0.5" transform="matrix(0 1 1 0 1035 213)" fill="white"/>
<circle cx="0.5" cy="0.5" r="0.5" transform="matrix(0 1 1 0 994 667)" fill="white"/>
<circle cx="0.5" cy="0.5" r="0.5" transform="matrix(0 1 1 0 1225 586)" fill="white"/>
<circle cx="0.5" cy="0.5" r="0.5" transform="matrix(0 1 1 0 524 646)" fill="white"/>
<circle cx="0.5" cy="0.5" r="0.5" transform="matrix(0 1 1 0 612 423)" fill="white"/>
<circle cx="0.5" cy="0.5" r="0.5" transform="matrix(0 1 1 0 707 285)" fill="white"/>
<circle cx="0.5" cy="0.5" r="0.5" transform="matrix(0 1 1 0 795 62)" fill="white"/>
<circle cx="0.5" cy="0.5" r="0.5" transform="matrix(1 0 0 -1 1297 128)" fill="white"/>
<circle cx="1371.5" cy="462.5" r="0.5" transform="rotate(90 1371.5 462.5)" fill="white"/>
<circle cx="1067.5" cy="194.5" r="0.5" fill="white"/>
<circle cx="0.5" cy="0.5" r="0.5" transform="matrix(1 0 0 -1 1364 584)" fill="white"/>
<circle cx="0.5" cy="0.5" r="0.5" transform="matrix(0 -1 -1 0 906 512)" fill="white"/>
<circle cx="0.5" cy="0.5" r="0.5" transform="matrix(1 0 0 -1 1280 497)" fill="white"/>
<circle cx="0.5" cy="0.5" r="0.5" transform="matrix(1 0 0 -1 1057 409)" fill="white"/>
<circle cx="0.5" cy="0.5" r="0.5" transform="matrix(1 0 0 -1 919 314)" fill="white"/>
<circle cx="1034.5" cy="376.5" r="0.5" transform="rotate(90 1034.5 376.5)" fill="white"/>
<circle cx="0.5" cy="0.5" r="0.5" transform="matrix(1 0 0 -1 1327 436)" fill="white"/>
<circle cx="0.5" cy="0.5" r="0.5" transform="matrix(0 1 1 0 1243 156)" fill="white"/>
<circle cx="0.5" cy="0.5" r="0.5" transform="matrix(0 1 1 0 1202 610)" fill="white"/>
<circle cx="0.5" cy="0.5" r="0.5" transform="matrix(0 1 1 0 820 366)" fill="white"/>
<circle cx="0.5" cy="0.5" r="0.5" transform="matrix(0 1 1 0 915 228)" fill="white"/>
<circle cx="935.5" cy="101.5" r="0.5" fill="white"/>
<circle cx="0.5" cy="0.5" r="0.5" transform="matrix(1 0 0 -1 859 681)" fill="white"/>
<circle cx="0.5" cy="0.5" r="0.5" transform="matrix(1 0 0 -1 1232 491)" fill="white"/>
<circle cx="1389.5" cy="142.5" r="0.5" fill="white"/>
<circle cx="0.5" cy="0.5" r="0.5" transform="matrix(1 0 0 -1 1148 404)" fill="white"/>
<circle cx="0.5" cy="0.5" r="0.5" transform="matrix(1 0 0 -1 925 316)" fill="white"/>
<circle cx="902.5" cy="283.5" r="0.5" transform="rotate(90 902.5 283.5)" fill="white"/>
<circle cx="0.5" cy="0.5" r="0.5" transform="matrix(1 0 0 -1 1195 343)" fill="white"/>
<circle cx="0.5" cy="0.5" r="0.5" transform="matrix(0 1 1 0 1070 517)" fill="white"/>
<circle cx="0.5" cy="0.5" r="0.5" transform="matrix(0 1 1 0 1301 436)" fill="white"/>
<circle cx="0.5" cy="0.5" r="0.5" transform="matrix(0 1 1 0 520 581)" fill="white"/>
<circle cx="666.5" cy="567.5" r="0.5" fill="white"/>
<circle cx="0.5" cy="0.5" r="0.5" transform="matrix(1 0 0 -1 696 307)" fill="white"/>
<circle cx="0.5" cy="0.5" r="0.5" transform="matrix(1 0 0 -1 612 220)" fill="white"/>
<circle cx="0.5" cy="0.5" r="0.5" transform="matrix(1 0 0 -1 659 159)" fill="white"/>
<circle cx="0.5" cy="0.5" r="0.5" transform="matrix(0 1 1 0 534 333)" fill="white"/>
<circle cx="0.5" cy="0.5" r="0.5" transform="matrix(0 1 1 0 765 252)" fill="white"/>
<circle cx="0.5" cy="0.5" r="0.5" transform="matrix(1 0 0 -1 564 214)" fill="white"/>
<circle cx="0.5" cy="0.5" r="0.5" transform="matrix(1 0 0 -1 480 127)" fill="white"/>
<circle cx="0.5" cy="0.5" r="0.5" transform="matrix(1 0 0 -1 527 66)" fill="white"/>
<circle cx="0.5" cy="0.5" r="0.5" transform="matrix(0 1 1 0 633 159)" fill="white"/>
<circle cx="779.5" cy="35.5" r="0.5" transform="rotate(90 779.5 35.5)" fill="white"/>
<circle cx="1187.5" cy="647.5" r="0.5" fill="white"/>
<ellipse cx="656.5" cy="351.5" rx="2.5" ry="1.5" transform="rotate(180 656.5 351.5)" fill="white"/>
<ellipse cx="1.5" cy="0.5" rx="1.5" ry="0.5" transform="matrix(-1 0 0 1 983 638)" fill="white"/>
<circle cx="0.5" cy="0.5" r="0.5" transform="matrix(-1 0 0 1 673 59)" fill="white"/>
<ellipse cx="1" cy="0.5" rx="1" ry="0.5" transform="matrix(-1 0 0 1 877 189)" fill="white"/>
<ellipse cx="0.5" cy="1" rx="0.5" ry="1" transform="matrix(-1 0 0 1 1205 309)" fill="white"/>
<circle cx="0.5" cy="0.5" r="0.5" transform="matrix(-1 0 0 1 1364 437)" fill="white"/>
<ellipse cx="708" cy="101.5" rx="2.5" ry="2" transform="rotate(-90 708 101.5)" fill="white"/>
<circle cx="1.5" cy="1.5" r="1.5" transform="matrix(-1 0 0 1 1174 324)" fill="white"/>
<ellipse cx="1" cy="1.5" rx="1" ry="1.5" transform="matrix(-1 0 0 1 1194 648)" fill="white"/>
<circle cx="0.5" cy="0.5" r="0.5" transform="matrix(0 -1 -1 0 1022 117)" fill="white"/>
<ellipse cx="1" cy="0.5" rx="1" ry="0.5" transform="matrix(0 -1 -1 0 882 307)" fill="white"/>
<ellipse cx="1.5" cy="1" rx="1.5" ry="1" transform="matrix(0 -1 -1 0 753 613)" fill="white"/>
<circle cx="852" cy="480" r="1" transform="rotate(180 852 480)" fill="white"/>
<ellipse cx="0.5" cy="1" rx="0.5" ry="1" transform="matrix(0 1 1 0 1089 45)" fill="white"/>
<circle cx="0.5" cy="0.5" r="0.5" transform="matrix(-1 0 0 1 508 710)" fill="white"/>
<ellipse cx="0.5" cy="1" rx="0.5" ry="1" transform="matrix(-1 0 0 1 539 65)" fill="white"/>
<circle cx="0.5" cy="0.5" r="0.5" transform="matrix(-1 0 0 1 867 187)" fill="white"/>
<ellipse cx="1" cy="0.5" rx="1" ry="0.5" transform="matrix(-1 0 0 1 1071 317)" fill="white"/>
<circle cx="0.5" cy="0.5" r="0.5" transform="matrix(-1 0 0 1 1399 437)" fill="white"/>
<circle cx="900.5" cy="230.5" r="0.5" transform="rotate(-90 900.5 230.5)" fill="white"/>
<circle cx="0.5" cy="0.5" r="0.5" transform="matrix(-1 0 0 1 1368 452)" fill="white"/>
<circle cx="0.5" cy="0.5" r="0.5" transform="matrix(-1 0 0 1 470 149)" fill="white"/>
<circle cx="0.5" cy="0.5" r="0.5" transform="matrix(0 -1 -1 0 594 533)" fill="white"/>
<circle cx="0.5" cy="0.5" r="0.5" transform="matrix(0 -1 -1 0 1216 245)" fill="white"/>
<ellipse cx="0.5" cy="1" rx="0.5" ry="1" transform="matrix(0 -1 -1 0 1077 434)" fill="white"/>
<ellipse cx="546" cy="557.5" rx="1" ry="0.5" transform="rotate(180 546 557.5)" fill="white"/>
<ellipse cx="1" cy="0.5" rx="1" ry="0.5" transform="matrix(0 1 1 0 784 123)" fill="white"/>
<ellipse cx="1" cy="0.5" rx="1" ry="0.5" transform="matrix(-1 0 0 1 562 264)" fill="white"/>
<ellipse cx="1" cy="0.5" rx="1" ry="0.5" transform="matrix(-1 0 0 1 765 394)" fill="white"/>
<circle cx="594.5" cy="308.5" r="0.5" transform="rotate(-90 594.5 308.5)" fill="white"/>
<circle cx="0.5" cy="0.5" r="0.5" transform="matrix(0 -1 -1 0 910 323)" fill="white"/>
<ellipse cx="1.5" cy="0.5" rx="1.5" ry="0.5" transform="matrix(0 -1 -1 0 770 513)" fill="white"/>
<ellipse cx="740" cy="685.5" rx="1" ry="0.5" transform="rotate(180 740 685.5)" fill="white"/>
<circle cx="1" cy="1" r="1" transform="matrix(-1 0 0 1 756 391)" fill="white"/>
<circle cx="788.5" cy="436.5" r="0.5" transform="rotate(-90 788.5 436.5)" fill="white"/>
<ellipse cx="0.5" cy="1" rx="0.5" ry="1" transform="matrix(0 -1 -1 0 542 116)" fill="white"/>
<circle cx="1136" cy="47" r="1" transform="rotate(180 1136 47)" fill="white"/>
<ellipse cx="1" cy="0.5" rx="1" ry="0.5" transform="matrix(-1 0 0 1 1093 404)" fill="white"/>
<circle cx="0.5" cy="0.5" r="0.5" transform="matrix(-1 0 0 1 1216 523)" fill="white"/>
<ellipse cx="0.5" cy="1" rx="0.5" ry="1" transform="matrix(-1 0 0 1 1147 606)" fill="white"/>
<circle cx="1" cy="1" r="1" transform="matrix(0 -1 -1 0 1332 369)" fill="white"/>
<circle cx="0.5" cy="0.5" r="0.5" transform="matrix(0 -1 -1 0 991 479)" fill="white"/>
<circle cx="0.5" cy="0.5" r="0.5" transform="matrix(-1 0 0 1 1287 532)" fill="white"/>
<circle cx="0.5" cy="0.5" r="0.5" transform="matrix(-1 0 0 1 1411 651)" fill="white"/>
<circle cx="0.5" cy="0.5" r="0.5" transform="matrix(0 -1 -1 0 1185 606)" fill="white"/>
<circle cx="0.5" cy="0.5" r="0.5" transform="matrix(-1 0 0 1 611 263)" fill="white"/>
<circle cx="772.5" cy="580.5" r="0.5" transform="rotate(-90 772.5 580.5)" fill="white"/>
<circle cx="620.5" cy="477.5" r="0.5" transform="rotate(180 620.5 477.5)" fill="white"/>
<circle cx="758.5" cy="382.5" r="0.5" transform="rotate(180 758.5 382.5)" fill="white"/>
<circle cx="0.5" cy="0.5" r="0.5" transform="matrix(0 1 1 0 643 445)" fill="white"/>
<circle cx="434.5" cy="225.5" r="0.5" transform="rotate(90 434.5 225.5)" fill="white"/>
<circle cx="475.5" cy="679.5" r="0.5" transform="rotate(90 475.5 679.5)" fill="white"/>
<circle cx="762.5" cy="297.5" r="0.5" transform="rotate(90 762.5 297.5)" fill="white"/>
<circle cx="674.5" cy="74.5" r="0.5" transform="rotate(90 674.5 74.5)" fill="white"/>
<circle cx="0.5" cy="0.5" r="0.5" transform="matrix(-1 0 0 1 743 170)" fill="white"/>
<circle cx="445.5" cy="559.5" r="0.5" transform="rotate(180 445.5 559.5)" fill="white"/>
<circle cx="529.5" cy="472.5" r="0.5" transform="rotate(180 529.5 472.5)" fill="white"/>
<circle cx="752.5" cy="384.5" r="0.5" transform="rotate(180 752.5 384.5)" fill="white"/>
<circle cx="0.5" cy="0.5" r="0.5" transform="matrix(0 1 1 0 775 352)" fill="white"/>
<circle cx="482.5" cy="411.5" r="0.5" transform="rotate(180 482.5 411.5)" fill="white"/>
<circle cx="566.5" cy="132.5" r="0.5" transform="rotate(90 566.5 132.5)" fill="white"/>
<circle cx="607.5" cy="586.5" r="0.5" transform="rotate(90 607.5 586.5)" fill="white"/>
<circle cx="0.5" cy="0.5" r="0.5" transform="matrix(-1 0 0 1 535 113)" fill="white"/>
<circle cx="696.5" cy="430.5" r="0.5" transform="rotate(-90 696.5 430.5)" fill="white"/>
<circle cx="544.5" cy="327.5" r="0.5" transform="rotate(180 544.5 327.5)" fill="white"/>
<circle cx="682.5" cy="232.5" r="0.5" transform="rotate(180 682.5 232.5)" fill="white"/>
<circle cx="0.5" cy="0.5" r="0.5" transform="matrix(0 1 1 0 567 295)" fill="white"/>
<circle cx="781.5" cy="285.5" r="0.5" transform="rotate(90 781.5 285.5)" fill="white"/>
<circle cx="686.5" cy="147.5" r="0.5" transform="rotate(90 686.5 147.5)" fill="white"/>
<circle cx="742.5" cy="599.5" r="0.5" transform="rotate(180 742.5 599.5)" fill="white"/>
<circle cx="453.5" cy="322.5" r="0.5" transform="rotate(180 453.5 322.5)" fill="white"/>
<circle cx="676.5" cy="234.5" r="0.5" transform="rotate(180 676.5 234.5)" fill="white"/>
<circle cx="0.5" cy="0.5" r="0.5" transform="matrix(0 1 1 0 699 202)" fill="white"/>
<circle cx="531.5" cy="436.5" r="0.5" transform="rotate(90 531.5 436.5)" fill="white"/>
<circle cx="434.5" cy="693.5" r="0.5" transform="rotate(90 434.5 693.5)" fill="white"/>
<ellipse cx="620.5" cy="557.5" rx="1.5" ry="0.5" fill="white"/>
<ellipse cx="726" cy="108.5" rx="1" ry="0.5" fill="white"/>
<circle cx="580.5" cy="35.5" r="0.5" transform="rotate(-90 580.5 35.5)" fill="white"/>
<ellipse cx="720.5" cy="225" rx="1" ry="0.5" transform="rotate(-90 720.5 225)" fill="white"/>
<circle cx="0.5" cy="0.5" r="0.5" transform="matrix(1 0 0 -1 749 400)" fill="white"/>
<circle cx="735.5" cy="106.5" r="0.5" fill="white"/>
<ellipse cx="532" cy="236.5" rx="1" ry="0.5" fill="white"/>
<circle cx="0.5" cy="0.5" r="0.5" transform="matrix(0 -1 -1 0 702 150)" fill="white"/>
<ellipse cx="525.5" cy="352.75" rx="0.25" ry="0.5" transform="rotate(-90 525.5 352.75)" fill="white"/>
<ellipse cx="655.5" cy="657.75" rx="0.25" ry="0.5" transform="rotate(-90 655.5 657.75)" fill="white"/>
<circle cx="692.5" cy="241.5" r="0.5" transform="rotate(-90 692.5 241.5)" fill="white"/>
<ellipse cx="510" cy="323.5" rx="1" ry="0.5" fill="white"/>
<ellipse cx="455.25" cy="525.5" rx="0.25" ry="0.5" fill="white"/>
<circle cx="611.5" cy="397.5" r="0.5" transform="rotate(-90 611.5 397.5)" fill="white"/>
<ellipse cx="0.25" cy="0.5" rx="0.25" ry="0.5" transform="matrix(0 -1 -1 0 633 696)" fill="white"/>
<circle cx="1.5" cy="1.5" r="1.5" transform="matrix(1 0 0 -1 1306 1020)" fill="white"/>
<circle cx="1144" cy="703" r="1" transform="rotate(90 1144 703)" fill="white"/>
<circle cx="908" cy="689" r="1" transform="rotate(90 908 689)" fill="white"/>
<circle cx="1365" cy="1313" r="1" transform="rotate(90 1365 1313)" fill="white"/>
<circle cx="1086.5" cy="1228.5" r="0.5" fill="white"/>
<circle cx="863.5" cy="1316.5" r="0.5" fill="white"/>
<circle cx="1296.5" cy="805.5" r="0.5" fill="white"/>
<circle cx="1158.5" cy="900.5" r="0.5" fill="white"/>
<circle cx="935.5" cy="988.5" r="0.5" fill="white"/>
<circle cx="827.5" cy="1081.5" r="0.5" fill="white"/>
<circle cx="1.5" cy="1.5" r="1.5" transform="matrix(0 -1 -1 0 1274 838)" fill="white"/>
<circle cx="957" cy="1000" r="1" fill="white"/>
<circle cx="943" cy="1236" r="1" fill="white"/>
<circle cx="1069.5" cy="1431.5" r="0.5" transform="rotate(-90 1069.5 1431.5)" fill="white"/>
<circle cx="971.5" cy="624.5" r="0.5" transform="rotate(-90 971.5 624.5)" fill="white"/>
<circle cx="1059.5" cy="847.5" r="0.5" transform="rotate(-90 1059.5 847.5)" fill="white"/>
<circle cx="1154.5" cy="985.5" r="0.5" transform="rotate(-90 1154.5 985.5)" fill="white"/>
<circle cx="1242.5" cy="1208.5" r="0.5" transform="matrix(0 -1 1 0 34 2451)" fill="white"/>
<circle cx="1335.5" cy="1316.5" r="0.5" transform="matrix(0 -1 1 0 19 2652)" fill="white"/>
<circle cx="0.5" cy="0.5" r="0.5" transform="matrix(1 0 0 -1 1174 1113)" fill="white"/>
<circle cx="1012.5" cy="795.5" r="0.5" transform="rotate(90 1012.5 795.5)" fill="white"/>
<circle cx="1233.5" cy="1405.5" r="0.5" transform="rotate(90 1233.5 1405.5)" fill="white"/>
<circle cx="954.5" cy="1321.5" r="0.5" fill="white"/>
<circle cx="1387.5" cy="810.5" r="0.5" fill="white"/>
<circle cx="1164.5" cy="898.5" r="0.5" fill="white"/>
<circle cx="1026.5" cy="993.5" r="0.5" fill="white"/>
<circle cx="0.5" cy="0.5" r="0.5" transform="matrix(0 -1 -1 0 1142 931)" fill="white"/>
<circle cx="824.5" cy="1092.5" r="0.5" fill="white"/>
<circle cx="1350.5" cy="1150.5" r="0.5" transform="rotate(-90 1350.5 1150.5)" fill="white"/>
<circle cx="1309.5" cy="696.5" r="0.5" transform="rotate(-90 1309.5 696.5)" fill="white"/>
<circle cx="839.5" cy="717.5" r="0.5" transform="rotate(-90 839.5 717.5)" fill="white"/>
<circle cx="927.5" cy="940.5" r="0.5" transform="rotate(-90 927.5 940.5)" fill="white"/>
<circle cx="1022.5" cy="1078.5" r="0.5" transform="rotate(-90 1022.5 1078.5)" fill="white"/>
<circle cx="1110.5" cy="1301.5" r="0.5" transform="rotate(-90 1110.5 1301.5)" fill="white"/>
<circle cx="1203.5" cy="1409.5" r="0.5" transform="rotate(-90 1203.5 1409.5)" fill="white"/>
<circle cx="0.5" cy="0.5" r="0.5" transform="matrix(1 0 0 -1 1382 1170)" fill="white"/>
<circle cx="1220.5" cy="852.5" r="0.5" transform="rotate(90 1220.5 852.5)" fill="white"/>
<circle cx="1372.5" cy="955.5" r="0.5" fill="white"/>
<circle cx="1234.5" cy="1050.5" r="0.5" fill="white"/>
<circle cx="0.5" cy="0.5" r="0.5" transform="matrix(0 -1 -1 0 1350 988)" fill="white"/>
<circle cx="1135.5" cy="997.5" r="0.5" transform="rotate(-90 1135.5 997.5)" fill="white"/>
<circle cx="1230.5" cy="1135.5" r="0.5" transform="matrix(0 -1 1 0 95 2366)" fill="white"/>
<circle cx="0.5" cy="0.5" r="0.5" transform="matrix(1 0 0 -1 1250 1263)" fill="white"/>
<circle cx="1174.5" cy="683.5" r="0.5" fill="white"/>
<circle cx="1240.5" cy="1048.5" r="0.5" fill="white"/>
<circle cx="0.5" cy="0.5" r="0.5" transform="matrix(0 -1 -1 0 1218 1081)" fill="white"/>
<circle cx="1385.5" cy="846.5" r="0.5" transform="rotate(-90 1385.5 846.5)" fill="white"/>
<circle cx="835.5" cy="782.5" r="0.5" transform="rotate(-90 835.5 782.5)" fill="white"/>
<circle cx="0.5" cy="0.5" r="0.5" transform="matrix(1 0 0 -1 981 797)" fill="white"/>
<circle cx="0.5" cy="0.5" r="0.5" transform="matrix(0 -1 -1 0 1040 627)" fill="white"/>
<circle cx="1011.5" cy="1057.5" r="0.5" fill="white"/>
<circle cx="927.5" cy="1144.5" r="0.5" fill="white"/>
<circle cx="974.5" cy="1205.5" r="0.5" fill="white"/>
<circle cx="849.5" cy="1030.5" r="0.5" transform="rotate(-90 849.5 1030.5)" fill="white"/>
<circle cx="1080.5" cy="1111.5" r="0.5" transform="rotate(-90 1080.5 1111.5)" fill="white"/>
<circle cx="879.5" cy="1150.5" r="0.5" fill="white"/>
<circle cx="842.5" cy="1298.5" r="0.5" fill="white"/>
<circle cx="948.5" cy="1204.5" r="0.5" transform="rotate(-90 948.5 1204.5)" fill="white"/>
<circle cx="0.5" cy="0.5" r="0.5" transform="matrix(0 -1 -1 0 1095 1329)" fill="white"/>
<ellipse cx="2.5" cy="1.5" rx="2.5" ry="1.5" transform="matrix(-1 0 0 1 974 1011)" fill="white"/>
<circle cx="886.5" cy="609.5" r="1.5" transform="rotate(-90 886.5 609.5)" fill="white"/>
<ellipse cx="1296.5" cy="725.5" rx="1.5" ry="0.5" transform="rotate(180 1296.5 725.5)" fill="white"/>
<circle cx="987.5" cy="1304.5" r="0.5" transform="rotate(180 987.5 1304.5)" fill="white"/>
<ellipse cx="1191" cy="1174.5" rx="1" ry="0.5" transform="rotate(180 1191 1174.5)" fill="white"/>
<ellipse cx="2.5" cy="2" rx="2.5" ry="2" transform="matrix(0 1 1 0 1021 1260)" fill="white"/>
<circle cx="1336.5" cy="1247.5" r="0.5" transform="rotate(90 1336.5 1247.5)" fill="white"/>
<ellipse cx="1196.5" cy="1058" rx="1" ry="0.5" transform="rotate(90 1196.5 1058)" fill="white"/>
<ellipse cx="1067" cy="752.5" rx="1.5" ry="1" transform="rotate(90 1067 752.5)" fill="white"/>
<circle cx="930" cy="604" r="1" transform="rotate(90 930 604)" fill="white"/>
<circle cx="1" cy="1" r="1" transform="matrix(-1 0 0 1 1168 883)" fill="white"/>
<circle cx="822.5" cy="653.5" r="0.5" transform="rotate(180 822.5 653.5)" fill="white"/>
<ellipse cx="853.5" cy="1298" rx="0.5" ry="1" transform="rotate(180 853.5 1298)" fill="white"/>
<circle cx="1181.5" cy="1176.5" r="0.5" transform="rotate(180 1181.5 1176.5)" fill="white"/>
<ellipse cx="1385" cy="1046.5" rx="1" ry="0.5" transform="rotate(180 1385 1046.5)" fill="white"/>
<circle cx="0.5" cy="0.5" r="0.5" transform="matrix(0 1 1 0 1215 1133)" fill="white"/>
<circle cx="908.5" cy="831.5" r="0.5" transform="rotate(90 908.5 831.5)" fill="white"/>
<ellipse cx="1391" cy="930.5" rx="0.5" ry="1" transform="rotate(90 1391 930.5)" fill="white"/>
<ellipse cx="1261" cy="625.5" rx="0.5" ry="1" transform="rotate(90 1261 625.5)" fill="white"/>
<ellipse cx="1" cy="0.5" rx="1" ry="0.5" transform="matrix(-1 0 0 1 862 806)" fill="white"/>
<ellipse cx="1099.5" cy="1240" rx="1" ry="0.5" transform="rotate(-90 1099.5 1240)" fill="white"/>
<ellipse cx="876" cy="1099.5" rx="1" ry="0.5" transform="rotate(180 876 1099.5)" fill="white"/>
<ellipse cx="1079" cy="969.5" rx="1" ry="0.5" transform="rotate(180 1079 969.5)" fill="white"/>
<circle cx="0.5" cy="0.5" r="0.5" transform="matrix(0 1 1 0 909 1055)" fill="white"/>
<circle cx="1224.5" cy="1041.5" r="0.5" transform="rotate(90 1224.5 1041.5)" fill="white"/>
<ellipse cx="1084.5" cy="852.5" rx="1.5" ry="0.5" transform="rotate(90 1084.5 852.5)" fill="white"/>
<ellipse cx="1" cy="0.5" rx="1" ry="0.5" transform="matrix(-1 0 0 1 1056 678)" fill="white"/>
<circle cx="1070" cy="972" r="1" transform="rotate(180 1070 972)" fill="white"/>
<circle cx="0.5" cy="0.5" r="0.5" transform="matrix(0 1 1 0 1103 927)" fill="white"/>
<ellipse cx="856" cy="1248.5" rx="0.5" ry="1" transform="rotate(90 856 1248.5)" fill="white"/>
<circle cx="1305.5" cy="885.5" r="0.5" transform="rotate(90 1305.5 885.5)" fill="white"/>
<ellipse cx="0.5" cy="1" rx="0.5" ry="1" transform="matrix(0 1 1 0 1284 587)" fill="white"/>
<circle cx="925.5" cy="1100.5" r="0.5" transform="rotate(180 925.5 1100.5)" fill="white"/>
<circle cx="0.5" cy="0.5" r="0.5" transform="matrix(0 1 1 0 1087 783)" fill="white"/>
<circle cx="0.5" cy="0.5" r="0.5" transform="matrix(0 1 1 0 866 1393)" fill="white"/>
<circle cx="0.5" cy="0.5" r="0.5" transform="matrix(-1 0 0 1 936 886)" fill="white"/>
<circle cx="0.5" cy="0.5" r="0.5" transform="matrix(-1 0 0 1 1074 981)" fill="white"/>
<circle cx="958.5" cy="918.5" r="0.5" transform="rotate(-90 958.5 918.5)" fill="white"/>
<circle cx="0.5" cy="0.5" r="0.5" transform="matrix(0 -1 -1 0 1078 1067)" fill="white"/>
<circle cx="0.5" cy="0.5" r="0.5" transform="matrix(0 -1 -1 0 990 1290)" fill="white"/>
<circle cx="0.5" cy="0.5" r="0.5" transform="matrix(0 -1 -1 0 897 1398)" fill="white"/>
<circle cx="1057.5" cy="1193.5" r="0.5" transform="rotate(180 1057.5 1193.5)" fill="white"/>
<circle cx="0.5" cy="0.5" r="0.5" transform="matrix(-1 0 0 1 824 1361)" fill="white"/>
<circle cx="0.5" cy="0.5" r="0.5" transform="matrix(-1 0 0 1 845 891)" fill="white"/>
<circle cx="0.5" cy="0.5" r="0.5" transform="matrix(-1 0 0 1 1068 979)" fill="white"/>
<circle cx="1090.5" cy="1011.5" r="0.5" transform="matrix(0 -1 1 0 79 2102)" fill="white"/>
<circle cx="0.5" cy="0.5" r="0.5" transform="matrix(0 -1 -1 0 882 1232)" fill="white"/>
<circle cx="0.5" cy="0.5" r="0.5" transform="matrix(0 -1 -1 0 923 778)" fill="white"/>
<circle cx="849.5" cy="1250.5" r="0.5" transform="rotate(180 849.5 1250.5)" fill="white"/>
<circle cx="0.5" cy="0.5" r="0.5" transform="matrix(0 1 1 0 1011 933)" fill="white"/>
<circle cx="0.5" cy="0.5" r="0.5" transform="matrix(-1 0 0 1 860 1036)" fill="white"/>
<circle cx="0.5" cy="0.5" r="0.5" transform="matrix(-1 0 0 1 998 1131)" fill="white"/>
<circle cx="882.5" cy="1068.5" r="0.5" transform="rotate(-90 882.5 1068.5)" fill="white"/>
<circle cx="0.5" cy="0.5" r="0.5" transform="matrix(0 -1 -1 0 1097 1079)" fill="white"/>
<circle cx="0.5" cy="0.5" r="0.5" transform="matrix(0 -1 -1 0 1002 1217)" fill="white"/>
<circle cx="981.5" cy="1343.5" r="0.5" transform="rotate(180 981.5 1343.5)" fill="white"/>
<circle cx="0.5" cy="0.5" r="0.5" transform="matrix(-1 0 0 1 1058 764)" fill="white"/>
<circle cx="0.5" cy="0.5" r="0.5" transform="matrix(-1 0 0 1 992 1129)" fill="white"/>
<circle cx="1014.5" cy="1161.5" r="0.5" transform="rotate(-90 1014.5 1161.5)" fill="white"/>
<circle cx="0.5" cy="0.5" r="0.5" transform="matrix(0 -1 -1 0 847 928)" fill="white"/>
<ellipse cx="1.5" cy="0.5" rx="1.5" ry="0.5" transform="matrix(1 0 0 -1 934 807)" fill="white"/>
<ellipse cx="1" cy="0.5" rx="1" ry="0.5" transform="matrix(1 0 0 -1 1040 1256)" fill="white"/>
<circle cx="0.5" cy="0.5" r="0.5" transform="matrix(0 1 1 0 895 1328)" fill="white"/>
<ellipse cx="1" cy="0.5" rx="1" ry="0.5" transform="matrix(0 1 1 0 1035 1138)" fill="white"/>
<circle cx="1064.5" cy="964.5" r="0.5" fill="white"/>
<ellipse cx="0.25" cy="0.5" rx="0.25" ry="0.5" transform="matrix(0 -1 -1 0 828 1400)" fill="white"/>
<circle cx="0.5" cy="0.5" r="0.5" transform="matrix(1 0 0 -1 1050 1258)" fill="white"/>
<ellipse cx="1" cy="0.5" rx="1" ry="0.5" transform="matrix(1 0 0 -1 846 1128)" fill="white"/>
<circle cx="1016.5" cy="1214.5" r="0.5" transform="rotate(90 1016.5 1214.5)" fill="white"/>
<ellipse cx="0.25" cy="0.5" rx="0.25" ry="0.5" transform="matrix(0 1 1 0 840 1011)" fill="white"/>
<ellipse cx="0.25" cy="0.5" rx="0.25" ry="0.5" transform="matrix(0 1 1 0 970 706)" fill="white"/>
<ellipse cx="0.166667" cy="0.5" rx="0.166667" ry="0.5" transform="matrix(0 1 1 0 1106 558)" fill="white"/>
<circle cx="0.5" cy="0.5" r="0.5" transform="matrix(0 1 1 0 1007 1122)" fill="white"/>
<ellipse cx="1" cy="0.5" rx="1" ry="0.5" transform="matrix(1 0 0 -1 824 1041)" fill="white"/>
<circle cx="0.5" cy="0.5" r="0.5" transform="matrix(0 1 1 0 926 966)" fill="white"/>
<ellipse cx="947.5" cy="668.25" rx="0.25" ry="0.5" transform="rotate(90 947.5 668.25)" fill="white"/>
<circle cx="1318" cy="1017" r="1" transform="rotate(90 1318 1017)" fill="white"/>
<circle cx="1082" cy="1003" r="1" transform="rotate(90 1082 1003)" fill="white"/>
<circle cx="1332.5" cy="1214.5" r="0.5" fill="white"/>
<circle cx="1109.5" cy="1302.5" r="0.5" fill="white"/>
<circle cx="1001.5" cy="1395.5" r="0.5" fill="white"/>
<circle cx="1131" cy="1314" r="1" fill="white"/>
<circle cx="1233.5" cy="1161.5" r="0.5" transform="matrix(0 -1 1 0 72 2395)" fill="white"/>
<circle cx="1328.5" cy="1299.5" r="0.5" transform="matrix(0 -1 1 0 29 2628)" fill="white"/>
<circle cx="0.5" cy="0.5" r="0.5" transform="matrix(1 0 0 -1 1348 1427)" fill="white"/>
<circle cx="1186.5" cy="1109.5" r="0.5" transform="rotate(90 1186.5 1109.5)" fill="white"/>
<circle cx="950.5" cy="1095.5" r="0.5" transform="rotate(90 950.5 1095.5)" fill="white"/>
<circle cx="1338.5" cy="1212.5" r="0.5" fill="white"/>
<circle cx="1200.5" cy="1307.5" r="0.5" fill="white"/>
<circle cx="977.5" cy="1395.5" r="0.5" fill="white"/>
<circle cx="0.5" cy="0.5" r="0.5" transform="matrix(0 -1 -1 0 1316 1245)" fill="white"/>
<circle cx="998.5" cy="1406.5" r="0.5" fill="white"/>
<circle cx="1013.5" cy="1031.5" r="0.5" transform="rotate(-90 1013.5 1031.5)" fill="white"/>
<circle cx="1101.5" cy="1254.5" r="0.5" transform="rotate(-90 1101.5 1254.5)" fill="white"/>
<circle cx="1196.5" cy="1392.5" r="0.5" transform="rotate(-90 1196.5 1392.5)" fill="white"/>
<circle cx="1394.5" cy="1166.5" r="0.5" transform="rotate(90 1394.5 1166.5)" fill="white"/>
<circle cx="1309.5" cy="1311.5" r="0.5" transform="matrix(0 -1 1 0 -2 2621)" fill="white"/>
<circle cx="1348.5" cy="997.5" r="0.5" fill="white"/>
<circle cx="0.5" cy="0.5" r="0.5" transform="matrix(0 -1 -1 0 1392 1395)" fill="white"/>
<circle cx="1009.5" cy="1096.5" r="0.5" transform="rotate(-90 1009.5 1096.5)" fill="white"/>
<circle cx="0.5" cy="0.5" r="0.5" transform="matrix(1 0 0 -1 1155 1111)" fill="white"/>
<circle cx="1185.5" cy="1371.5" r="0.5" fill="white"/>
<circle cx="1023.5" cy="1344.5" r="0.5" transform="rotate(-90 1023.5 1344.5)" fill="white"/>
<circle cx="1254.5" cy="1425.5" r="0.5" transform="rotate(-90 1254.5 1425.5)" fill="white"/>
<ellipse cx="2.5" cy="1.5" rx="2.5" ry="1.5" transform="matrix(-1 0 0 1 1148 1325)" fill="white"/>
<ellipse cx="1370.5" cy="1372" rx="1" ry="0.5" transform="rotate(90 1370.5 1372)" fill="white"/>
<ellipse cx="1241" cy="1066.5" rx="1.5" ry="1" transform="rotate(90 1241 1066.5)" fill="white"/>
<circle cx="1" cy="1" r="1" transform="matrix(-1 0 0 1 1342 1197)" fill="white"/>
<circle cx="996.5" cy="967.5" r="0.5" transform="rotate(180 996.5 967.5)" fill="white"/>
<circle cx="1082.5" cy="1145.5" r="0.5" transform="rotate(90 1082.5 1145.5)" fill="white"/>
<ellipse cx="1" cy="0.5" rx="1" ry="0.5" transform="matrix(-1 0 0 1 1036 1120)" fill="white"/>
<ellipse cx="1050" cy="1413.5" rx="1" ry="0.5" transform="rotate(180 1050 1413.5)" fill="white"/>
<ellipse cx="1253" cy="1283.5" rx="1" ry="0.5" transform="rotate(180 1253 1283.5)" fill="white"/>
<circle cx="0.5" cy="0.5" r="0.5" transform="matrix(0 1 1 0 1083 1369)" fill="white"/>
<ellipse cx="1258.5" cy="1166.5" rx="1.5" ry="0.5" transform="rotate(90 1258.5 1166.5)" fill="white"/>
<ellipse cx="1" cy="0.5" rx="1" ry="0.5" transform="matrix(-1 0 0 1 1230 992)" fill="white"/>
<circle cx="1244" cy="1286" r="1" transform="rotate(180 1244 1286)" fill="white"/>
<circle cx="0.5" cy="0.5" r="0.5" transform="matrix(0 1 1 0 1277 1241)" fill="white"/>
<circle cx="1099.5" cy="1414.5" r="0.5" transform="rotate(180 1099.5 1414.5)" fill="white"/>
<circle cx="0.5" cy="0.5" r="0.5" transform="matrix(0 1 1 0 1261 1097)" fill="white"/>
<circle cx="0.5" cy="0.5" r="0.5" transform="matrix(-1 0 0 1 1110 1200)" fill="white"/>
<circle cx="0.5" cy="0.5" r="0.5" transform="matrix(-1 0 0 1 1248 1295)" fill="white"/>
<circle cx="1132.5" cy="1232.5" r="0.5" transform="rotate(-90 1132.5 1232.5)" fill="white"/>
<circle cx="0.5" cy="0.5" r="0.5" transform="matrix(0 -1 -1 0 965 999)" fill="white"/>
<circle cx="0.5" cy="0.5" r="0.5" transform="matrix(0 -1 -1 0 1252 1381)" fill="white"/>
<circle cx="0.5" cy="0.5" r="0.5" transform="matrix(-1 0 0 1 935 1118)" fill="white"/>
<circle cx="0.5" cy="0.5" r="0.5" transform="matrix(-1 0 0 1 1019 1205)" fill="white"/>
<circle cx="0.5" cy="0.5" r="0.5" transform="matrix(-1 0 0 1 1242 1293)" fill="white"/>
<circle cx="1264.5" cy="1325.5" r="0.5" transform="rotate(-90 1264.5 1325.5)" fill="white"/>
<circle cx="0.5" cy="0.5" r="0.5" transform="matrix(-1 0 0 1 972 1266)" fill="white"/>
<circle cx="0.5" cy="0.5" r="0.5" transform="matrix(0 -1 -1 0 1097 1092)" fill="white"/>
<circle cx="0.5" cy="0.5" r="0.5" transform="matrix(0 1 1 0 1185 1247)" fill="white"/>
<circle cx="0.5" cy="0.5" r="0.5" transform="matrix(-1 0 0 1 1034 1350)" fill="white"/>
<circle cx="1056.5" cy="1382.5" r="0.5" transform="rotate(-90 1056.5 1382.5)" fill="white"/>
<circle cx="0.5" cy="0.5" r="0.5" transform="matrix(0 -1 -1 0 1271 1393)" fill="white"/>
<circle cx="0.5" cy="0.5" r="0.5" transform="matrix(-1 0 0 1 1232 1078)" fill="white"/>
<circle cx="0.5" cy="0.5" r="0.5" transform="matrix(-1 0 0 1 943 1355)" fill="white"/>
<circle cx="0.5" cy="0.5" r="0.5" transform="matrix(0 -1 -1 0 1021 1242)" fill="white"/>
<circle cx="0.5" cy="0.5" r="0.5" transform="matrix(0 -1 -1 0 924 985)" fill="white"/>
<ellipse cx="1.5" cy="0.5" rx="1.5" ry="0.5" transform="matrix(1 0 0 -1 1108 1121)" fill="white"/>
<circle cx="1238.5" cy="1278.5" r="0.5" fill="white"/>
<ellipse cx="0.25" cy="0.5" rx="0.25" ry="0.5" transform="matrix(0 1 1 0 1014 1325)" fill="white"/>
<ellipse cx="0.25" cy="0.5" rx="0.25" ry="0.5" transform="matrix(0 1 1 0 1144 1020)" fill="white"/>
<ellipse cx="1" cy="0.5" rx="1" ry="0.5" transform="matrix(1 0 0 -1 998 1355)" fill="white"/>
<ellipse cx="0.25" cy="0.5" rx="0.25" ry="0.5" transform="matrix(1 0 0 -1 944 1153)" fill="white"/>
<circle cx="0.5" cy="0.5" r="0.5" transform="matrix(0 1 1 0 1100 1280)" fill="white"/>
<ellipse cx="1121.5" cy="982.25" rx="0.25" ry="0.5" transform="rotate(90 1121.5 982.25)" fill="white"/>
<circle cx="0.5" cy="0.5" r="0.5" transform="matrix(0 -1 -1 0 225 78)" fill="white"/>
<ellipse cx="194.5" cy="251" rx="0.5" ry="1" transform="rotate(180 194.5 251)" fill="white"/>
<ellipse cx="243.5" cy="2" rx="1" ry="1.5" transform="rotate(-90 243.5 2)" fill="white"/>
<circle cx="1381.5" cy="1434.5" r="0.5" fill="white"/>
<ellipse cx="1441" cy="55.5" rx="2.5" ry="2" transform="rotate(-90 1441 55.5)" fill="white"/>
<circle cx="0.5" cy="0.5" r="0.5" transform="matrix(-1 0 0 1 790 0)" fill="white"/>
<circle cx="0.5" cy="0.5" r="0.5" transform="matrix(0 1 1 0 1128 1439)" fill="white"/>
<ellipse cx="1436.5" cy="290" rx="0.5" ry="1" transform="rotate(180 1436.5 290)" fill="white"/>
<circle cx="0.5" cy="0.5" r="0.5" transform="matrix(0 1 1 0 1181 1436)" fill="white"/>
<circle cx="0.5" cy="124.5" r="0.5" transform="rotate(180 0.5 124.5)" fill="white"/>
</svg>
