<svg width="922" height="129" viewBox="0 0 922 129" fill="none" xmlns="http://www.w3.org/2000/svg">
<mask id="path-1-outside-1_2088_39" maskUnits="userSpaceOnUse" x="0" y="0" width="922" height="129" fill="black">
<rect fill="white" width="922" height="129"/>
<path d="M51.1758 112.198C43.1958 112.198 38.6443 107.469 38.6443 99.0755V45.403H26.0537C19.4333 45.403 15 41.7972 15 35.4133C15 29.0293 19.3151 25.4235 26.0537 25.4235H76.2979C83.0365 25.4235 87.3516 29.0293 87.3516 35.4133C87.3516 41.7972 82.9183 45.403 76.2979 45.403H63.7073V99.0755C63.7073 107.469 59.1557 112.198 51.1758 112.198Z"/>
<path d="M104.851 112.198C96.8708 112.198 92.3192 107.469 92.3192 99.0755V37.0684C92.3192 28.6746 96.8708 23.9458 104.851 23.9458C112.831 23.9458 117.382 28.6746 117.382 37.0684V99.0755C117.382 107.469 112.831 112.198 104.851 112.198Z"/>
<path d="M139.315 110.72C131.335 110.72 126.783 105.992 126.783 97.5978V38.5461C126.783 30.1524 131.335 25.4235 139.315 25.4235H163.255C189.145 25.4235 204.336 40.1421 204.336 67.4513C204.336 94.7605 189.086 110.72 163.255 110.72H139.315ZM151.846 90.8H159.708C172.239 90.8 178.801 83.1747 178.801 67.4513C178.801 53.0874 171.707 45.3439 159.708 45.3439H151.846V90.8Z"/>
<path d="M217.993 112.198C210.013 112.198 205.225 107.647 205.225 100.08C205.225 97.8933 205.876 94.7013 206.999 91.6867L226.092 38.9599C229.756 28.6155 235.963 23.9458 245.953 23.9458C256.652 23.9458 262.799 28.4382 266.642 38.9599L285.912 91.6867C287.094 94.9378 287.567 97.3022 287.567 100.021C287.567 107.115 282.306 112.198 275.035 112.198C267.646 112.198 263.804 108.829 261.676 100.553L260.198 94.7605H232.416L230.939 100.14C228.574 108.711 224.791 112.198 217.993 112.198ZM237.145 76.0815H254.938L246.071 45.1074H245.598L237.145 76.0815Z"/>
<path d="M307.785 110.72C299.805 110.72 295.254 105.992 295.254 97.5978V37.0684C295.254 28.6746 299.805 23.9458 307.785 23.9458C315.765 23.9458 320.316 28.6746 320.316 37.0684V90.7409H343.902C350.522 90.7409 354.955 94.3467 354.955 100.731C354.955 107.115 350.64 110.72 343.902 110.72H307.785Z"/>
<path d="M373.341 112.198C365.361 112.198 360.81 107.469 360.81 99.0755V37.0684C360.81 28.6746 365.361 23.9458 373.341 23.9458C381.321 23.9458 385.873 28.6746 385.873 37.0684V57.8162H415.901V37.0684C415.901 28.6746 420.452 23.9458 428.432 23.9458C436.412 23.9458 440.964 28.6746 440.964 37.0684V99.0755C440.964 107.469 436.412 112.198 428.432 112.198C420.452 112.198 415.901 107.469 415.901 99.0755V77.7366H385.873V99.0755C385.873 107.469 381.321 112.198 373.341 112.198Z"/>
<path d="M461.359 112.198C453.38 112.198 448.592 107.647 448.592 100.08C448.592 97.8933 449.242 94.7013 450.365 91.6867L469.458 38.9599C473.123 28.6155 479.329 23.9458 489.319 23.9458C500.018 23.9458 506.165 28.4382 510.008 38.9599L529.278 91.6867C530.46 94.9378 530.933 97.3022 530.933 100.021C530.933 107.115 525.672 112.198 518.401 112.198C511.013 112.198 507.17 108.829 505.042 100.553L503.565 94.7605H475.783L474.305 100.14C471.94 108.711 468.157 112.198 461.359 112.198ZM480.511 76.0815H498.304L489.437 45.1074H488.964L480.511 76.0815Z"/>
<path d="M573.613 112.198C546.54 112.198 530.64 96.1791 530.64 68.0424C530.64 39.9057 546.895 23.9458 572.667 23.9458C588.982 23.9458 601.041 30.1524 607.779 42.0337C609.493 44.9892 610.38 48.1221 610.38 51.1367C610.38 57.5207 606.065 61.6584 599.504 61.6584C594.065 61.6584 590.755 59.5304 588.036 54.2696C584.253 46.999 579.524 43.6297 572.963 43.6297C562.678 43.6297 556.175 52.7327 556.175 67.9833C556.175 83.4112 562.619 92.5142 573.022 92.5142C579.879 92.5142 584.667 89.0267 588.273 81.4605C590.814 76.0815 593.829 74.0126 599.09 74.0126C606.242 74.0126 610.912 78.3868 610.912 85.0663C610.912 87.1943 610.439 89.4405 609.552 91.6276C604.587 103.982 590.223 112.198 573.613 112.198Z"/>
<path d="M632.312 112.198C624.333 112.198 619.781 107.469 619.781 99.0755V37.0684C619.781 28.6746 624.333 23.9458 632.312 23.9458C640.292 23.9458 644.844 28.6746 644.844 37.0684V59.2349H645.317L671.503 29.6204C675.109 25.6009 678.36 23.9458 682.616 23.9458C689.177 23.9458 694.497 29.0884 694.497 35.5315C694.497 39.3146 693.197 42.0337 689.65 45.8168L672.035 64.614L690.477 87.4307C694.793 92.7507 696.625 96.5338 696.625 100.08C696.625 106.937 691.423 112.198 684.566 112.198C679.187 112.198 675.522 110.188 671.444 104.987L652.292 80.6921L644.844 88.3765V99.0755C644.844 107.469 640.292 112.198 632.312 112.198Z"/>
<path d="M735.525 64.082C729.495 64.082 725.83 60.6535 725.83 55.0971C725.83 53.9149 725.949 52.6145 726.185 51.6687L730.973 31.9257C732.273 26.5466 734.933 23.9458 740.549 23.9458C746.46 23.9458 749.534 28.1426 748.943 33.0488L746.401 54.4469C745.633 61.0673 741.672 64.082 735.525 64.082Z"/>
<path d="M770.402 110.72C762.245 110.72 758.698 106.169 758.698 99.9031C758.698 95.2924 760.826 91.7458 765.555 87.7854L789.022 67.6877C798.598 59.4713 801.317 55.7474 801.317 50.6638C801.317 45.2848 797.179 41.5608 791.091 41.5608C786.599 41.5608 783.525 43.6297 780.333 48.2403C777.023 53.0874 774.008 54.8607 769.22 54.8607C762.836 54.8607 758.935 51.1367 758.935 45.1074C758.935 43.1568 759.289 41.3243 760.058 39.551C764.55 29.384 776.55 23.0591 791.446 23.0591C812.194 23.0591 825.434 33.5217 825.434 49.0087C825.434 60.4762 819.523 66.4464 806.283 77.9139L790.736 91.332V91.8049H817.809C824.075 91.8049 827.622 95.5289 827.622 101.263C827.622 106.878 824.075 110.72 817.809 110.72H770.402Z"/>
<path d="M871.189 113.026C856.825 113.026 845.475 107.351 838.264 94.524C834.54 87.9036 832.353 78.6823 832.353 68.0424C832.353 40.2603 847.071 23 870.538 23C887.917 23 898.675 29.916 901.926 37.5412C902.517 39.019 902.872 40.5559 902.872 42.0928C902.872 47.2945 899.384 51.5505 892.882 51.5505C887.917 51.5505 885.198 49.5998 881.888 46.5852C878.164 43.2159 875.09 41.9154 870.538 41.9154C860.253 41.9154 855.938 52.7327 856.293 66.8602V67.8651H856.766C859.957 59.7669 867.937 54.3287 879.464 54.3287C896.192 54.3287 906.714 65.7962 906.714 81.697C906.714 100.14 891.7 113.026 871.189 113.026ZM870.834 94.1693C877.454 94.1693 882.656 89.204 882.715 82.8201C882.774 76.0223 877.632 71.3526 871.011 71.3526C864.214 71.3526 859.012 75.9041 859.012 82.4654C859.012 89.1449 864.213 94.1693 870.834 94.1693Z"/>
<path d="M51.1758 104.198C43.1958 104.198 38.6443 99.4693 38.6443 91.0755V37.403H26.0537C19.4333 37.403 15 33.7972 15 27.4133C15 21.0293 19.3151 17.4235 26.0537 17.4235H76.2979C83.0365 17.4235 87.3516 21.0293 87.3516 27.4133C87.3516 33.7972 82.9183 37.403 76.2979 37.403H63.7073V91.0755C63.7073 99.4693 59.1557 104.198 51.1758 104.198Z"/>
<path d="M104.851 104.198C96.8708 104.198 92.3192 99.4693 92.3192 91.0755V29.0684C92.3192 20.6746 96.8708 15.9458 104.851 15.9458C112.831 15.9458 117.382 20.6746 117.382 29.0684V91.0755C117.382 99.4693 112.831 104.198 104.851 104.198Z"/>
<path d="M139.315 102.72C131.335 102.72 126.783 97.9915 126.783 89.5978V30.5461C126.783 22.1524 131.335 17.4235 139.315 17.4235H163.255C189.145 17.4235 204.336 32.1421 204.336 59.4513C204.336 86.7605 189.086 102.72 163.255 102.72H139.315ZM151.846 82.8H159.708C172.239 82.8 178.801 75.1747 178.801 59.4513C178.801 45.0874 171.707 37.3439 159.708 37.3439H151.846V82.8Z"/>
<path d="M217.993 104.198C210.013 104.198 205.225 99.6466 205.225 92.0804C205.225 89.8933 205.876 86.7013 206.999 83.6867L226.092 30.9599C229.756 20.6155 235.963 15.9458 245.953 15.9458C256.652 15.9458 262.799 20.4382 266.642 30.9599L285.912 83.6867C287.094 86.9378 287.567 89.3022 287.567 92.0213C287.567 99.1146 282.306 104.198 275.035 104.198C267.646 104.198 263.804 100.829 261.676 92.5533L260.198 86.7605H232.416L230.939 92.1395C228.574 100.711 224.791 104.198 217.993 104.198ZM237.145 68.0815H254.938L246.071 37.1074H245.598L237.145 68.0815Z"/>
<path d="M307.785 102.72C299.805 102.72 295.254 97.9915 295.254 89.5978V29.0684C295.254 20.6746 299.805 15.9458 307.785 15.9458C315.765 15.9458 320.316 20.6746 320.316 29.0684V82.7409H343.902C350.522 82.7409 354.955 86.3467 354.955 92.7306C354.955 99.1146 350.64 102.72 343.902 102.72H307.785Z"/>
<path d="M373.341 104.198C365.361 104.198 360.81 99.4693 360.81 91.0755V29.0684C360.81 20.6746 365.361 15.9458 373.341 15.9458C381.321 15.9458 385.873 20.6746 385.873 29.0684V49.8162H415.901V29.0684C415.901 20.6746 420.452 15.9458 428.432 15.9458C436.412 15.9458 440.964 20.6746 440.964 29.0684V91.0755C440.964 99.4693 436.412 104.198 428.432 104.198C420.452 104.198 415.901 99.4693 415.901 91.0755V69.7366H385.873V91.0755C385.873 99.4693 381.321 104.198 373.341 104.198Z"/>
<path d="M461.359 104.198C453.38 104.198 448.592 99.6466 448.592 92.0804C448.592 89.8933 449.242 86.7013 450.365 83.6867L469.458 30.9599C473.123 20.6155 479.329 15.9458 489.319 15.9458C500.018 15.9458 506.165 20.4382 510.008 30.9599L529.278 83.6867C530.46 86.9378 530.933 89.3022 530.933 92.0213C530.933 99.1146 525.672 104.198 518.401 104.198C511.013 104.198 507.17 100.829 505.042 92.5533L503.565 86.7605H475.783L474.305 92.1395C471.94 100.711 468.157 104.198 461.359 104.198ZM480.511 68.0815H498.304L489.437 37.1074H488.964L480.511 68.0815Z"/>
<path d="M573.613 104.198C546.54 104.198 530.64 88.1791 530.64 60.0424C530.64 31.9057 546.895 15.9458 572.667 15.9458C588.982 15.9458 601.041 22.1524 607.779 34.0337C609.493 36.9892 610.38 40.1221 610.38 43.1367C610.38 49.5207 606.065 53.6584 599.504 53.6584C594.065 53.6584 590.755 51.5304 588.036 46.2696C584.253 38.999 579.524 35.6297 572.963 35.6297C562.678 35.6297 556.175 44.7327 556.175 59.9833C556.175 75.4112 562.619 84.5142 573.022 84.5142C579.879 84.5142 584.667 81.0267 588.273 73.4605C590.814 68.0815 593.829 66.0126 599.09 66.0126C606.242 66.0126 610.912 70.3868 610.912 77.0663C610.912 79.1943 610.439 81.4405 609.552 83.6276C604.587 95.9817 590.223 104.198 573.613 104.198Z"/>
<path d="M632.312 104.198C624.333 104.198 619.781 99.4693 619.781 91.0755V29.0684C619.781 20.6746 624.333 15.9458 632.312 15.9458C640.292 15.9458 644.844 20.6746 644.844 29.0684V51.2349H645.317L671.503 21.6204C675.109 17.6009 678.36 15.9458 682.616 15.9458C689.177 15.9458 694.497 21.0884 694.497 27.5315C694.497 31.3146 693.197 34.0337 689.65 37.8168L672.035 56.614L690.477 79.4307C694.793 84.7507 696.625 88.5338 696.625 92.0804C696.625 98.9373 691.423 104.198 684.566 104.198C679.187 104.198 675.522 102.188 671.444 96.9866L652.292 72.6921L644.844 80.3765V91.0755C644.844 99.4693 640.292 104.198 632.312 104.198Z"/>
<path d="M735.525 56.082C729.495 56.082 725.83 52.6535 725.83 47.0971C725.83 45.9149 725.949 44.6145 726.185 43.6687L730.973 23.9257C732.273 18.5466 734.933 15.9458 740.549 15.9458C746.46 15.9458 749.534 20.1426 748.943 25.0488L746.401 46.4469C745.633 53.0673 741.672 56.082 735.525 56.082Z"/>
<path d="M770.402 102.72C762.245 102.72 758.698 98.1688 758.698 91.9031C758.698 87.2924 760.826 83.7458 765.555 79.7854L789.022 59.6877C798.598 51.4713 801.317 47.7474 801.317 42.6638C801.317 37.2848 797.179 33.5608 791.091 33.5608C786.599 33.5608 783.525 35.6297 780.333 40.2403C777.023 45.0874 774.008 46.8607 769.22 46.8607C762.836 46.8607 758.935 43.1367 758.935 37.1074C758.935 35.1568 759.289 33.3243 760.058 31.551C764.55 21.384 776.55 15.0591 791.446 15.0591C812.194 15.0591 825.434 25.5217 825.434 41.0087C825.434 52.4762 819.523 58.4464 806.283 69.9139L790.736 83.332V83.8049H817.809C824.075 83.8049 827.622 87.5289 827.622 93.2626C827.622 98.8782 824.075 102.72 817.809 102.72H770.402Z"/>
<path d="M871.189 105.026C856.825 105.026 845.475 99.351 838.264 86.524C834.54 79.9036 832.353 70.6823 832.353 60.0424C832.353 32.2603 847.071 15 870.538 15C887.917 15 898.675 21.916 901.926 29.5412C902.517 31.019 902.872 32.5559 902.872 34.0928C902.872 39.2945 899.384 43.5505 892.882 43.5505C887.917 43.5505 885.198 41.5998 881.888 38.5852C878.164 35.2159 875.09 33.9154 870.538 33.9154C860.253 33.9154 855.938 44.7327 856.293 58.8602V59.8651H856.766C859.957 51.7669 867.937 46.3287 879.464 46.3287C896.192 46.3287 906.714 57.7962 906.714 73.697C906.714 92.1395 891.7 105.026 871.189 105.026ZM870.834 86.1693C877.454 86.1693 882.656 81.204 882.715 74.8201C882.774 68.0223 877.632 63.3526 871.011 63.3526C864.214 63.3526 859.012 67.9041 859.012 74.4654C859.012 81.1449 864.213 86.1693 870.834 86.1693Z"/>
</mask>
<path d="M51.1758 112.198C43.1958 112.198 38.6443 107.469 38.6443 99.0755V45.403H26.0537C19.4333 45.403 15 41.7972 15 35.4133C15 29.0293 19.3151 25.4235 26.0537 25.4235H76.2979C83.0365 25.4235 87.3516 29.0293 87.3516 35.4133C87.3516 41.7972 82.9183 45.403 76.2979 45.403H63.7073V99.0755C63.7073 107.469 59.1557 112.198 51.1758 112.198Z" fill="url(#paint0_linear_2088_39)"/>
<path d="M104.851 112.198C96.8708 112.198 92.3192 107.469 92.3192 99.0755V37.0684C92.3192 28.6746 96.8708 23.9458 104.851 23.9458C112.831 23.9458 117.382 28.6746 117.382 37.0684V99.0755C117.382 107.469 112.831 112.198 104.851 112.198Z" fill="url(#paint1_linear_2088_39)"/>
<path d="M139.315 110.72C131.335 110.72 126.783 105.992 126.783 97.5978V38.5461C126.783 30.1524 131.335 25.4235 139.315 25.4235H163.255C189.145 25.4235 204.336 40.1421 204.336 67.4513C204.336 94.7605 189.086 110.72 163.255 110.72H139.315ZM151.846 90.8H159.708C172.239 90.8 178.801 83.1747 178.801 67.4513C178.801 53.0874 171.707 45.3439 159.708 45.3439H151.846V90.8Z" fill="url(#paint2_linear_2088_39)"/>
<path d="M217.993 112.198C210.013 112.198 205.225 107.647 205.225 100.08C205.225 97.8933 205.876 94.7013 206.999 91.6867L226.092 38.9599C229.756 28.6155 235.963 23.9458 245.953 23.9458C256.652 23.9458 262.799 28.4382 266.642 38.9599L285.912 91.6867C287.094 94.9378 287.567 97.3022 287.567 100.021C287.567 107.115 282.306 112.198 275.035 112.198C267.646 112.198 263.804 108.829 261.676 100.553L260.198 94.7605H232.416L230.939 100.14C228.574 108.711 224.791 112.198 217.993 112.198ZM237.145 76.0815H254.938L246.071 45.1074H245.598L237.145 76.0815Z" fill="url(#paint3_linear_2088_39)"/>
<path d="M307.785 110.72C299.805 110.72 295.254 105.992 295.254 97.5978V37.0684C295.254 28.6746 299.805 23.9458 307.785 23.9458C315.765 23.9458 320.316 28.6746 320.316 37.0684V90.7409H343.902C350.522 90.7409 354.955 94.3467 354.955 100.731C354.955 107.115 350.64 110.72 343.902 110.72H307.785Z" fill="url(#paint4_linear_2088_39)"/>
<path d="M373.341 112.198C365.361 112.198 360.81 107.469 360.81 99.0755V37.0684C360.81 28.6746 365.361 23.9458 373.341 23.9458C381.321 23.9458 385.873 28.6746 385.873 37.0684V57.8162H415.901V37.0684C415.901 28.6746 420.452 23.9458 428.432 23.9458C436.412 23.9458 440.964 28.6746 440.964 37.0684V99.0755C440.964 107.469 436.412 112.198 428.432 112.198C420.452 112.198 415.901 107.469 415.901 99.0755V77.7366H385.873V99.0755C385.873 107.469 381.321 112.198 373.341 112.198Z" fill="url(#paint5_linear_2088_39)"/>
<path d="M461.359 112.198C453.38 112.198 448.592 107.647 448.592 100.08C448.592 97.8933 449.242 94.7013 450.365 91.6867L469.458 38.9599C473.123 28.6155 479.329 23.9458 489.319 23.9458C500.018 23.9458 506.165 28.4382 510.008 38.9599L529.278 91.6867C530.46 94.9378 530.933 97.3022 530.933 100.021C530.933 107.115 525.672 112.198 518.401 112.198C511.013 112.198 507.17 108.829 505.042 100.553L503.565 94.7605H475.783L474.305 100.14C471.94 108.711 468.157 112.198 461.359 112.198ZM480.511 76.0815H498.304L489.437 45.1074H488.964L480.511 76.0815Z" fill="url(#paint6_linear_2088_39)"/>
<path d="M573.613 112.198C546.54 112.198 530.64 96.1791 530.64 68.0424C530.64 39.9057 546.895 23.9458 572.667 23.9458C588.982 23.9458 601.041 30.1524 607.779 42.0337C609.493 44.9892 610.38 48.1221 610.38 51.1367C610.38 57.5207 606.065 61.6584 599.504 61.6584C594.065 61.6584 590.755 59.5304 588.036 54.2696C584.253 46.999 579.524 43.6297 572.963 43.6297C562.678 43.6297 556.175 52.7327 556.175 67.9833C556.175 83.4112 562.619 92.5142 573.022 92.5142C579.879 92.5142 584.667 89.0267 588.273 81.4605C590.814 76.0815 593.829 74.0126 599.09 74.0126C606.242 74.0126 610.912 78.3868 610.912 85.0663C610.912 87.1943 610.439 89.4405 609.552 91.6276C604.587 103.982 590.223 112.198 573.613 112.198Z" fill="url(#paint7_linear_2088_39)"/>
<path d="M632.312 112.198C624.333 112.198 619.781 107.469 619.781 99.0755V37.0684C619.781 28.6746 624.333 23.9458 632.312 23.9458C640.292 23.9458 644.844 28.6746 644.844 37.0684V59.2349H645.317L671.503 29.6204C675.109 25.6009 678.36 23.9458 682.616 23.9458C689.177 23.9458 694.497 29.0884 694.497 35.5315C694.497 39.3146 693.197 42.0337 689.65 45.8168L672.035 64.614L690.477 87.4307C694.793 92.7507 696.625 96.5338 696.625 100.08C696.625 106.937 691.423 112.198 684.566 112.198C679.187 112.198 675.522 110.188 671.444 104.987L652.292 80.6921L644.844 88.3765V99.0755C644.844 107.469 640.292 112.198 632.312 112.198Z" fill="url(#paint8_linear_2088_39)"/>
<path d="M735.525 64.082C729.495 64.082 725.83 60.6535 725.83 55.0971C725.83 53.9149 725.949 52.6145 726.185 51.6687L730.973 31.9257C732.273 26.5466 734.933 23.9458 740.549 23.9458C746.46 23.9458 749.534 28.1426 748.943 33.0488L746.401 54.4469C745.633 61.0673 741.672 64.082 735.525 64.082Z" fill="url(#paint9_linear_2088_39)"/>
<path d="M770.402 110.72C762.245 110.72 758.698 106.169 758.698 99.9031C758.698 95.2924 760.826 91.7458 765.555 87.7854L789.022 67.6877C798.598 59.4713 801.317 55.7474 801.317 50.6638C801.317 45.2848 797.179 41.5608 791.091 41.5608C786.599 41.5608 783.525 43.6297 780.333 48.2403C777.023 53.0874 774.008 54.8607 769.22 54.8607C762.836 54.8607 758.935 51.1367 758.935 45.1074C758.935 43.1568 759.289 41.3243 760.058 39.551C764.55 29.384 776.55 23.0591 791.446 23.0591C812.194 23.0591 825.434 33.5217 825.434 49.0087C825.434 60.4762 819.523 66.4464 806.283 77.9139L790.736 91.332V91.8049H817.809C824.075 91.8049 827.622 95.5289 827.622 101.263C827.622 106.878 824.075 110.72 817.809 110.72H770.402Z" fill="url(#paint10_linear_2088_39)"/>
<path d="M871.189 113.026C856.825 113.026 845.475 107.351 838.264 94.524C834.54 87.9036 832.353 78.6823 832.353 68.0424C832.353 40.2603 847.071 23 870.538 23C887.917 23 898.675 29.916 901.926 37.5412C902.517 39.019 902.872 40.5559 902.872 42.0928C902.872 47.2945 899.384 51.5505 892.882 51.5505C887.917 51.5505 885.198 49.5998 881.888 46.5852C878.164 43.2159 875.09 41.9154 870.538 41.9154C860.253 41.9154 855.938 52.7327 856.293 66.8602V67.8651H856.766C859.957 59.7669 867.937 54.3287 879.464 54.3287C896.192 54.3287 906.714 65.7962 906.714 81.697C906.714 100.14 891.7 113.026 871.189 113.026ZM870.834 94.1693C877.454 94.1693 882.656 89.204 882.715 82.8201C882.774 76.0223 877.632 71.3526 871.011 71.3526C864.214 71.3526 859.012 75.9041 859.012 82.4654C859.012 89.1449 864.213 94.1693 870.834 94.1693Z" fill="url(#paint11_linear_2088_39)"/>
<path d="M51.1758 104.198C43.1958 104.198 38.6443 99.4693 38.6443 91.0755V37.403H26.0537C19.4333 37.403 15 33.7972 15 27.4133C15 21.0293 19.3151 17.4235 26.0537 17.4235H76.2979C83.0365 17.4235 87.3516 21.0293 87.3516 27.4133C87.3516 33.7972 82.9183 37.403 76.2979 37.403H63.7073V91.0755C63.7073 99.4693 59.1557 104.198 51.1758 104.198Z" fill="white"/>
<path d="M104.851 104.198C96.8708 104.198 92.3192 99.4693 92.3192 91.0755V29.0684C92.3192 20.6746 96.8708 15.9458 104.851 15.9458C112.831 15.9458 117.382 20.6746 117.382 29.0684V91.0755C117.382 99.4693 112.831 104.198 104.851 104.198Z" fill="white"/>
<path d="M139.315 102.72C131.335 102.72 126.783 97.9915 126.783 89.5978V30.5461C126.783 22.1524 131.335 17.4235 139.315 17.4235H163.255C189.145 17.4235 204.336 32.1421 204.336 59.4513C204.336 86.7605 189.086 102.72 163.255 102.72H139.315ZM151.846 82.8H159.708C172.239 82.8 178.801 75.1747 178.801 59.4513C178.801 45.0874 171.707 37.3439 159.708 37.3439H151.846V82.8Z" fill="white"/>
<path d="M217.993 104.198C210.013 104.198 205.225 99.6466 205.225 92.0804C205.225 89.8933 205.876 86.7013 206.999 83.6867L226.092 30.9599C229.756 20.6155 235.963 15.9458 245.953 15.9458C256.652 15.9458 262.799 20.4382 266.642 30.9599L285.912 83.6867C287.094 86.9378 287.567 89.3022 287.567 92.0213C287.567 99.1146 282.306 104.198 275.035 104.198C267.646 104.198 263.804 100.829 261.676 92.5533L260.198 86.7605H232.416L230.939 92.1395C228.574 100.711 224.791 104.198 217.993 104.198ZM237.145 68.0815H254.938L246.071 37.1074H245.598L237.145 68.0815Z" fill="white"/>
<path d="M307.785 102.72C299.805 102.72 295.254 97.9915 295.254 89.5978V29.0684C295.254 20.6746 299.805 15.9458 307.785 15.9458C315.765 15.9458 320.316 20.6746 320.316 29.0684V82.7409H343.902C350.522 82.7409 354.955 86.3467 354.955 92.7306C354.955 99.1146 350.64 102.72 343.902 102.72H307.785Z" fill="white"/>
<path d="M373.341 104.198C365.361 104.198 360.81 99.4693 360.81 91.0755V29.0684C360.81 20.6746 365.361 15.9458 373.341 15.9458C381.321 15.9458 385.873 20.6746 385.873 29.0684V49.8162H415.901V29.0684C415.901 20.6746 420.452 15.9458 428.432 15.9458C436.412 15.9458 440.964 20.6746 440.964 29.0684V91.0755C440.964 99.4693 436.412 104.198 428.432 104.198C420.452 104.198 415.901 99.4693 415.901 91.0755V69.7366H385.873V91.0755C385.873 99.4693 381.321 104.198 373.341 104.198Z" fill="white"/>
<path d="M461.359 104.198C453.38 104.198 448.592 99.6466 448.592 92.0804C448.592 89.8933 449.242 86.7013 450.365 83.6867L469.458 30.9599C473.123 20.6155 479.329 15.9458 489.319 15.9458C500.018 15.9458 506.165 20.4382 510.008 30.9599L529.278 83.6867C530.46 86.9378 530.933 89.3022 530.933 92.0213C530.933 99.1146 525.672 104.198 518.401 104.198C511.013 104.198 507.17 100.829 505.042 92.5533L503.565 86.7605H475.783L474.305 92.1395C471.94 100.711 468.157 104.198 461.359 104.198ZM480.511 68.0815H498.304L489.437 37.1074H488.964L480.511 68.0815Z" fill="white"/>
<path d="M573.613 104.198C546.54 104.198 530.64 88.1791 530.64 60.0424C530.64 31.9057 546.895 15.9458 572.667 15.9458C588.982 15.9458 601.041 22.1524 607.779 34.0337C609.493 36.9892 610.38 40.1221 610.38 43.1367C610.38 49.5207 606.065 53.6584 599.504 53.6584C594.065 53.6584 590.755 51.5304 588.036 46.2696C584.253 38.999 579.524 35.6297 572.963 35.6297C562.678 35.6297 556.175 44.7327 556.175 59.9833C556.175 75.4112 562.619 84.5142 573.022 84.5142C579.879 84.5142 584.667 81.0267 588.273 73.4605C590.814 68.0815 593.829 66.0126 599.09 66.0126C606.242 66.0126 610.912 70.3868 610.912 77.0663C610.912 79.1943 610.439 81.4405 609.552 83.6276C604.587 95.9817 590.223 104.198 573.613 104.198Z" fill="white"/>
<path d="M632.312 104.198C624.333 104.198 619.781 99.4693 619.781 91.0755V29.0684C619.781 20.6746 624.333 15.9458 632.312 15.9458C640.292 15.9458 644.844 20.6746 644.844 29.0684V51.2349H645.317L671.503 21.6204C675.109 17.6009 678.36 15.9458 682.616 15.9458C689.177 15.9458 694.497 21.0884 694.497 27.5315C694.497 31.3146 693.197 34.0337 689.65 37.8168L672.035 56.614L690.477 79.4307C694.793 84.7507 696.625 88.5338 696.625 92.0804C696.625 98.9373 691.423 104.198 684.566 104.198C679.187 104.198 675.522 102.188 671.444 96.9866L652.292 72.6921L644.844 80.3765V91.0755C644.844 99.4693 640.292 104.198 632.312 104.198Z" fill="white"/>
<path d="M735.525 56.082C729.495 56.082 725.83 52.6535 725.83 47.0971C725.83 45.9149 725.949 44.6145 726.185 43.6687L730.973 23.9257C732.273 18.5466 734.933 15.9458 740.549 15.9458C746.46 15.9458 749.534 20.1426 748.943 25.0488L746.401 46.4469C745.633 53.0673 741.672 56.082 735.525 56.082Z" fill="white"/>
<path d="M770.402 102.72C762.245 102.72 758.698 98.1688 758.698 91.9031C758.698 87.2924 760.826 83.7458 765.555 79.7854L789.022 59.6877C798.598 51.4713 801.317 47.7474 801.317 42.6638C801.317 37.2848 797.179 33.5608 791.091 33.5608C786.599 33.5608 783.525 35.6297 780.333 40.2403C777.023 45.0874 774.008 46.8607 769.22 46.8607C762.836 46.8607 758.935 43.1367 758.935 37.1074C758.935 35.1568 759.289 33.3243 760.058 31.551C764.55 21.384 776.55 15.0591 791.446 15.0591C812.194 15.0591 825.434 25.5217 825.434 41.0087C825.434 52.4762 819.523 58.4464 806.283 69.9139L790.736 83.332V83.8049H817.809C824.075 83.8049 827.622 87.5289 827.622 93.2626C827.622 98.8782 824.075 102.72 817.809 102.72H770.402Z" fill="white"/>
<path d="M871.189 105.026C856.825 105.026 845.475 99.351 838.264 86.524C834.54 79.9036 832.353 70.6823 832.353 60.0424C832.353 32.2603 847.071 15 870.538 15C887.917 15 898.675 21.916 901.926 29.5412C902.517 31.019 902.872 32.5559 902.872 34.0928C902.872 39.2945 899.384 43.5505 892.882 43.5505C887.917 43.5505 885.198 41.5998 881.888 38.5852C878.164 35.2159 875.09 33.9154 870.538 33.9154C860.253 33.9154 855.938 44.7327 856.293 58.8602V59.8651H856.766C859.957 51.7669 867.937 46.3287 879.464 46.3287C896.192 46.3287 906.714 57.7962 906.714 73.697C906.714 92.1395 891.7 105.026 871.189 105.026ZM870.834 86.1693C877.454 86.1693 882.656 81.204 882.715 74.8201C882.774 68.0223 877.632 63.3526 871.011 63.3526C864.214 63.3526 859.012 67.9041 859.012 74.4654C859.012 81.1449 864.213 86.1693 870.834 86.1693Z" fill="white"/>
<path d="M51.1758 112.198C43.1958 112.198 38.6443 107.469 38.6443 99.0755V45.403H26.0537C19.4333 45.403 15 41.7972 15 35.4133C15 29.0293 19.3151 25.4235 26.0537 25.4235H76.2979C83.0365 25.4235 87.3516 29.0293 87.3516 35.4133C87.3516 41.7972 82.9183 45.403 76.2979 45.403H63.7073V99.0755C63.7073 107.469 59.1557 112.198 51.1758 112.198Z" stroke="url(#paint12_linear_2088_39)" stroke-width="30" mask="url(#path-1-outside-1_2088_39)"/>
<path d="M104.851 112.198C96.8708 112.198 92.3192 107.469 92.3192 99.0755V37.0684C92.3192 28.6746 96.8708 23.9458 104.851 23.9458C112.831 23.9458 117.382 28.6746 117.382 37.0684V99.0755C117.382 107.469 112.831 112.198 104.851 112.198Z" stroke="url(#paint13_linear_2088_39)" stroke-width="30" mask="url(#path-1-outside-1_2088_39)"/>
<path d="M139.315 110.72C131.335 110.72 126.783 105.992 126.783 97.5978V38.5461C126.783 30.1524 131.335 25.4235 139.315 25.4235H163.255C189.145 25.4235 204.336 40.1421 204.336 67.4513C204.336 94.7605 189.086 110.72 163.255 110.72H139.315ZM151.846 90.8H159.708C172.239 90.8 178.801 83.1747 178.801 67.4513C178.801 53.0874 171.707 45.3439 159.708 45.3439H151.846V90.8Z" stroke="url(#paint14_linear_2088_39)" stroke-width="30" mask="url(#path-1-outside-1_2088_39)"/>
<path d="M217.993 112.198C210.013 112.198 205.225 107.647 205.225 100.08C205.225 97.8933 205.876 94.7013 206.999 91.6867L226.092 38.9599C229.756 28.6155 235.963 23.9458 245.953 23.9458C256.652 23.9458 262.799 28.4382 266.642 38.9599L285.912 91.6867C287.094 94.9378 287.567 97.3022 287.567 100.021C287.567 107.115 282.306 112.198 275.035 112.198C267.646 112.198 263.804 108.829 261.676 100.553L260.198 94.7605H232.416L230.939 100.14C228.574 108.711 224.791 112.198 217.993 112.198ZM237.145 76.0815H254.938L246.071 45.1074H245.598L237.145 76.0815Z" stroke="url(#paint15_linear_2088_39)" stroke-width="30" mask="url(#path-1-outside-1_2088_39)"/>
<path d="M307.785 110.72C299.805 110.72 295.254 105.992 295.254 97.5978V37.0684C295.254 28.6746 299.805 23.9458 307.785 23.9458C315.765 23.9458 320.316 28.6746 320.316 37.0684V90.7409H343.902C350.522 90.7409 354.955 94.3467 354.955 100.731C354.955 107.115 350.64 110.72 343.902 110.72H307.785Z" stroke="url(#paint16_linear_2088_39)" stroke-width="30" mask="url(#path-1-outside-1_2088_39)"/>
<path d="M373.341 112.198C365.361 112.198 360.81 107.469 360.81 99.0755V37.0684C360.81 28.6746 365.361 23.9458 373.341 23.9458C381.321 23.9458 385.873 28.6746 385.873 37.0684V57.8162H415.901V37.0684C415.901 28.6746 420.452 23.9458 428.432 23.9458C436.412 23.9458 440.964 28.6746 440.964 37.0684V99.0755C440.964 107.469 436.412 112.198 428.432 112.198C420.452 112.198 415.901 107.469 415.901 99.0755V77.7366H385.873V99.0755C385.873 107.469 381.321 112.198 373.341 112.198Z" stroke="url(#paint17_linear_2088_39)" stroke-width="30" mask="url(#path-1-outside-1_2088_39)"/>
<path d="M461.359 112.198C453.38 112.198 448.592 107.647 448.592 100.08C448.592 97.8933 449.242 94.7013 450.365 91.6867L469.458 38.9599C473.123 28.6155 479.329 23.9458 489.319 23.9458C500.018 23.9458 506.165 28.4382 510.008 38.9599L529.278 91.6867C530.46 94.9378 530.933 97.3022 530.933 100.021C530.933 107.115 525.672 112.198 518.401 112.198C511.013 112.198 507.17 108.829 505.042 100.553L503.565 94.7605H475.783L474.305 100.14C471.94 108.711 468.157 112.198 461.359 112.198ZM480.511 76.0815H498.304L489.437 45.1074H488.964L480.511 76.0815Z" stroke="url(#paint18_linear_2088_39)" stroke-width="30" mask="url(#path-1-outside-1_2088_39)"/>
<path d="M573.613 112.198C546.54 112.198 530.64 96.1791 530.64 68.0424C530.64 39.9057 546.895 23.9458 572.667 23.9458C588.982 23.9458 601.041 30.1524 607.779 42.0337C609.493 44.9892 610.38 48.1221 610.38 51.1367C610.38 57.5207 606.065 61.6584 599.504 61.6584C594.065 61.6584 590.755 59.5304 588.036 54.2696C584.253 46.999 579.524 43.6297 572.963 43.6297C562.678 43.6297 556.175 52.7327 556.175 67.9833C556.175 83.4112 562.619 92.5142 573.022 92.5142C579.879 92.5142 584.667 89.0267 588.273 81.4605C590.814 76.0815 593.829 74.0126 599.09 74.0126C606.242 74.0126 610.912 78.3868 610.912 85.0663C610.912 87.1943 610.439 89.4405 609.552 91.6276C604.587 103.982 590.223 112.198 573.613 112.198Z" stroke="url(#paint19_linear_2088_39)" stroke-width="30" mask="url(#path-1-outside-1_2088_39)"/>
<path d="M632.312 112.198C624.333 112.198 619.781 107.469 619.781 99.0755V37.0684C619.781 28.6746 624.333 23.9458 632.312 23.9458C640.292 23.9458 644.844 28.6746 644.844 37.0684V59.2349H645.317L671.503 29.6204C675.109 25.6009 678.36 23.9458 682.616 23.9458C689.177 23.9458 694.497 29.0884 694.497 35.5315C694.497 39.3146 693.197 42.0337 689.65 45.8168L672.035 64.614L690.477 87.4307C694.793 92.7507 696.625 96.5338 696.625 100.08C696.625 106.937 691.423 112.198 684.566 112.198C679.187 112.198 675.522 110.188 671.444 104.987L652.292 80.6921L644.844 88.3765V99.0755C644.844 107.469 640.292 112.198 632.312 112.198Z" stroke="url(#paint20_linear_2088_39)" stroke-width="30" mask="url(#path-1-outside-1_2088_39)"/>
<path d="M735.525 64.082C729.495 64.082 725.83 60.6535 725.83 55.0971C725.83 53.9149 725.949 52.6145 726.185 51.6687L730.973 31.9257C732.273 26.5466 734.933 23.9458 740.549 23.9458C746.46 23.9458 749.534 28.1426 748.943 33.0488L746.401 54.4469C745.633 61.0673 741.672 64.082 735.525 64.082Z" stroke="url(#paint21_linear_2088_39)" stroke-width="30" mask="url(#path-1-outside-1_2088_39)"/>
<path d="M770.402 110.72C762.245 110.72 758.698 106.169 758.698 99.9031C758.698 95.2924 760.826 91.7458 765.555 87.7854L789.022 67.6877C798.598 59.4713 801.317 55.7474 801.317 50.6638C801.317 45.2848 797.179 41.5608 791.091 41.5608C786.599 41.5608 783.525 43.6297 780.333 48.2403C777.023 53.0874 774.008 54.8607 769.22 54.8607C762.836 54.8607 758.935 51.1367 758.935 45.1074C758.935 43.1568 759.289 41.3243 760.058 39.551C764.55 29.384 776.55 23.0591 791.446 23.0591C812.194 23.0591 825.434 33.5217 825.434 49.0087C825.434 60.4762 819.523 66.4464 806.283 77.9139L790.736 91.332V91.8049H817.809C824.075 91.8049 827.622 95.5289 827.622 101.263C827.622 106.878 824.075 110.72 817.809 110.72H770.402Z" stroke="url(#paint22_linear_2088_39)" stroke-width="30" mask="url(#path-1-outside-1_2088_39)"/>
<path d="M871.189 113.026C856.825 113.026 845.475 107.351 838.264 94.524C834.54 87.9036 832.353 78.6823 832.353 68.0424C832.353 40.2603 847.071 23 870.538 23C887.917 23 898.675 29.916 901.926 37.5412C902.517 39.019 902.872 40.5559 902.872 42.0928C902.872 47.2945 899.384 51.5505 892.882 51.5505C887.917 51.5505 885.198 49.5998 881.888 46.5852C878.164 43.2159 875.09 41.9154 870.538 41.9154C860.253 41.9154 855.938 52.7327 856.293 66.8602V67.8651H856.766C859.957 59.7669 867.937 54.3287 879.464 54.3287C896.192 54.3287 906.714 65.7962 906.714 81.697C906.714 100.14 891.7 113.026 871.189 113.026ZM870.834 94.1693C877.454 94.1693 882.656 89.204 882.715 82.8201C882.774 76.0223 877.632 71.3526 871.011 71.3526C864.214 71.3526 859.012 75.9041 859.012 82.4654C859.012 89.1449 864.213 94.1693 870.834 94.1693Z" stroke="url(#paint23_linear_2088_39)" stroke-width="30" mask="url(#path-1-outside-1_2088_39)"/>
<path d="M51.1758 104.198C43.1958 104.198 38.6443 99.4693 38.6443 91.0755V37.403H26.0537C19.4333 37.403 15 33.7972 15 27.4133C15 21.0293 19.3151 17.4235 26.0537 17.4235H76.2979C83.0365 17.4235 87.3516 21.0293 87.3516 27.4133C87.3516 33.7972 82.9183 37.403 76.2979 37.403H63.7073V91.0755C63.7073 99.4693 59.1557 104.198 51.1758 104.198Z" stroke="url(#paint24_linear_2088_39)" stroke-width="30" mask="url(#path-1-outside-1_2088_39)"/>
<path d="M104.851 104.198C96.8708 104.198 92.3192 99.4693 92.3192 91.0755V29.0684C92.3192 20.6746 96.8708 15.9458 104.851 15.9458C112.831 15.9458 117.382 20.6746 117.382 29.0684V91.0755C117.382 99.4693 112.831 104.198 104.851 104.198Z" stroke="url(#paint25_linear_2088_39)" stroke-width="30" mask="url(#path-1-outside-1_2088_39)"/>
<path d="M139.315 102.72C131.335 102.72 126.783 97.9915 126.783 89.5978V30.5461C126.783 22.1524 131.335 17.4235 139.315 17.4235H163.255C189.145 17.4235 204.336 32.1421 204.336 59.4513C204.336 86.7605 189.086 102.72 163.255 102.72H139.315ZM151.846 82.8H159.708C172.239 82.8 178.801 75.1747 178.801 59.4513C178.801 45.0874 171.707 37.3439 159.708 37.3439H151.846V82.8Z" stroke="url(#paint26_linear_2088_39)" stroke-width="30" mask="url(#path-1-outside-1_2088_39)"/>
<path d="M217.993 104.198C210.013 104.198 205.225 99.6466 205.225 92.0804C205.225 89.8933 205.876 86.7013 206.999 83.6867L226.092 30.9599C229.756 20.6155 235.963 15.9458 245.953 15.9458C256.652 15.9458 262.799 20.4382 266.642 30.9599L285.912 83.6867C287.094 86.9378 287.567 89.3022 287.567 92.0213C287.567 99.1146 282.306 104.198 275.035 104.198C267.646 104.198 263.804 100.829 261.676 92.5533L260.198 86.7605H232.416L230.939 92.1395C228.574 100.711 224.791 104.198 217.993 104.198ZM237.145 68.0815H254.938L246.071 37.1074H245.598L237.145 68.0815Z" stroke="url(#paint27_linear_2088_39)" stroke-width="30" mask="url(#path-1-outside-1_2088_39)"/>
<path d="M307.785 102.72C299.805 102.72 295.254 97.9915 295.254 89.5978V29.0684C295.254 20.6746 299.805 15.9458 307.785 15.9458C315.765 15.9458 320.316 20.6746 320.316 29.0684V82.7409H343.902C350.522 82.7409 354.955 86.3467 354.955 92.7306C354.955 99.1146 350.64 102.72 343.902 102.72H307.785Z" stroke="url(#paint28_linear_2088_39)" stroke-width="30" mask="url(#path-1-outside-1_2088_39)"/>
<path d="M373.341 104.198C365.361 104.198 360.81 99.4693 360.81 91.0755V29.0684C360.81 20.6746 365.361 15.9458 373.341 15.9458C381.321 15.9458 385.873 20.6746 385.873 29.0684V49.8162H415.901V29.0684C415.901 20.6746 420.452 15.9458 428.432 15.9458C436.412 15.9458 440.964 20.6746 440.964 29.0684V91.0755C440.964 99.4693 436.412 104.198 428.432 104.198C420.452 104.198 415.901 99.4693 415.901 91.0755V69.7366H385.873V91.0755C385.873 99.4693 381.321 104.198 373.341 104.198Z" stroke="url(#paint29_linear_2088_39)" stroke-width="30" mask="url(#path-1-outside-1_2088_39)"/>
<path d="M461.359 104.198C453.38 104.198 448.592 99.6466 448.592 92.0804C448.592 89.8933 449.242 86.7013 450.365 83.6867L469.458 30.9599C473.123 20.6155 479.329 15.9458 489.319 15.9458C500.018 15.9458 506.165 20.4382 510.008 30.9599L529.278 83.6867C530.46 86.9378 530.933 89.3022 530.933 92.0213C530.933 99.1146 525.672 104.198 518.401 104.198C511.013 104.198 507.17 100.829 505.042 92.5533L503.565 86.7605H475.783L474.305 92.1395C471.94 100.711 468.157 104.198 461.359 104.198ZM480.511 68.0815H498.304L489.437 37.1074H488.964L480.511 68.0815Z" stroke="url(#paint30_linear_2088_39)" stroke-width="30" mask="url(#path-1-outside-1_2088_39)"/>
<path d="M573.613 104.198C546.54 104.198 530.64 88.1791 530.64 60.0424C530.64 31.9057 546.895 15.9458 572.667 15.9458C588.982 15.9458 601.041 22.1524 607.779 34.0337C609.493 36.9892 610.38 40.1221 610.38 43.1367C610.38 49.5207 606.065 53.6584 599.504 53.6584C594.065 53.6584 590.755 51.5304 588.036 46.2696C584.253 38.999 579.524 35.6297 572.963 35.6297C562.678 35.6297 556.175 44.7327 556.175 59.9833C556.175 75.4112 562.619 84.5142 573.022 84.5142C579.879 84.5142 584.667 81.0267 588.273 73.4605C590.814 68.0815 593.829 66.0126 599.09 66.0126C606.242 66.0126 610.912 70.3868 610.912 77.0663C610.912 79.1943 610.439 81.4405 609.552 83.6276C604.587 95.9817 590.223 104.198 573.613 104.198Z" stroke="url(#paint31_linear_2088_39)" stroke-width="30" mask="url(#path-1-outside-1_2088_39)"/>
<path d="M632.312 104.198C624.333 104.198 619.781 99.4693 619.781 91.0755V29.0684C619.781 20.6746 624.333 15.9458 632.312 15.9458C640.292 15.9458 644.844 20.6746 644.844 29.0684V51.2349H645.317L671.503 21.6204C675.109 17.6009 678.36 15.9458 682.616 15.9458C689.177 15.9458 694.497 21.0884 694.497 27.5315C694.497 31.3146 693.197 34.0337 689.65 37.8168L672.035 56.614L690.477 79.4307C694.793 84.7507 696.625 88.5338 696.625 92.0804C696.625 98.9373 691.423 104.198 684.566 104.198C679.187 104.198 675.522 102.188 671.444 96.9866L652.292 72.6921L644.844 80.3765V91.0755C644.844 99.4693 640.292 104.198 632.312 104.198Z" stroke="url(#paint32_linear_2088_39)" stroke-width="30" mask="url(#path-1-outside-1_2088_39)"/>
<path d="M735.525 56.082C729.495 56.082 725.83 52.6535 725.83 47.0971C725.83 45.9149 725.949 44.6145 726.185 43.6687L730.973 23.9257C732.273 18.5466 734.933 15.9458 740.549 15.9458C746.46 15.9458 749.534 20.1426 748.943 25.0488L746.401 46.4469C745.633 53.0673 741.672 56.082 735.525 56.082Z" stroke="url(#paint33_linear_2088_39)" stroke-width="30" mask="url(#path-1-outside-1_2088_39)"/>
<path d="M770.402 102.72C762.245 102.72 758.698 98.1688 758.698 91.9031C758.698 87.2924 760.826 83.7458 765.555 79.7854L789.022 59.6877C798.598 51.4713 801.317 47.7474 801.317 42.6638C801.317 37.2848 797.179 33.5608 791.091 33.5608C786.599 33.5608 783.525 35.6297 780.333 40.2403C777.023 45.0874 774.008 46.8607 769.22 46.8607C762.836 46.8607 758.935 43.1367 758.935 37.1074C758.935 35.1568 759.289 33.3243 760.058 31.551C764.55 21.384 776.55 15.0591 791.446 15.0591C812.194 15.0591 825.434 25.5217 825.434 41.0087C825.434 52.4762 819.523 58.4464 806.283 69.9139L790.736 83.332V83.8049H817.809C824.075 83.8049 827.622 87.5289 827.622 93.2626C827.622 98.8782 824.075 102.72 817.809 102.72H770.402Z" stroke="url(#paint34_linear_2088_39)" stroke-width="30" mask="url(#path-1-outside-1_2088_39)"/>
<path d="M871.189 105.026C856.825 105.026 845.475 99.351 838.264 86.524C834.54 79.9036 832.353 70.6823 832.353 60.0424C832.353 32.2603 847.071 15 870.538 15C887.917 15 898.675 21.916 901.926 29.5412C902.517 31.019 902.872 32.5559 902.872 34.0928C902.872 39.2945 899.384 43.5505 892.882 43.5505C887.917 43.5505 885.198 41.5998 881.888 38.5852C878.164 35.2159 875.09 33.9154 870.538 33.9154C860.253 33.9154 855.938 44.7327 856.293 58.8602V59.8651H856.766C859.957 51.7669 867.937 46.3287 879.464 46.3287C896.192 46.3287 906.714 57.7962 906.714 73.697C906.714 92.1395 891.7 105.026 871.189 105.026ZM870.834 86.1693C877.454 86.1693 882.656 81.204 882.715 74.8201C882.774 68.0223 877.632 63.3526 871.011 63.3526C864.214 63.3526 859.012 67.9041 859.012 74.4654C859.012 81.1449 864.213 86.1693 870.834 86.1693Z" stroke="url(#paint35_linear_2088_39)" stroke-width="30" mask="url(#path-1-outside-1_2088_39)"/>
<mask id="path-2-outside-2_2088_39" maskUnits="userSpaceOnUse" x="6" y="6" width="910" height="117" fill="black">
<rect fill="white" x="6" y="6" width="910" height="117"/>
<path d="M51.1758 112.198C43.1958 112.198 38.6443 107.469 38.6443 99.0755V45.403H26.0537C19.4333 45.403 15 41.7972 15 35.4133C15 29.0293 19.3151 25.4235 26.0537 25.4235H76.2979C83.0365 25.4235 87.3516 29.0293 87.3516 35.4133C87.3516 41.7972 82.9183 45.403 76.2979 45.403H63.7073V99.0755C63.7073 107.469 59.1557 112.198 51.1758 112.198Z"/>
<path d="M104.851 112.198C96.8708 112.198 92.3192 107.469 92.3192 99.0755V37.0684C92.3192 28.6746 96.8708 23.9458 104.851 23.9458C112.831 23.9458 117.382 28.6746 117.382 37.0684V99.0755C117.382 107.469 112.831 112.198 104.851 112.198Z"/>
<path d="M139.315 110.72C131.335 110.72 126.783 105.992 126.783 97.5978V38.5461C126.783 30.1524 131.335 25.4235 139.315 25.4235H163.255C189.145 25.4235 204.336 40.1421 204.336 67.4513C204.336 94.7605 189.086 110.72 163.255 110.72H139.315ZM151.846 90.8H159.708C172.239 90.8 178.801 83.1747 178.801 67.4513C178.801 53.0874 171.707 45.3439 159.708 45.3439H151.846V90.8Z"/>
<path d="M217.993 112.198C210.013 112.198 205.225 107.647 205.225 100.08C205.225 97.8933 205.876 94.7013 206.999 91.6867L226.092 38.9599C229.756 28.6155 235.963 23.9458 245.953 23.9458C256.652 23.9458 262.799 28.4382 266.642 38.9599L285.912 91.6867C287.094 94.9378 287.567 97.3022 287.567 100.021C287.567 107.115 282.306 112.198 275.035 112.198C267.646 112.198 263.804 108.829 261.676 100.553L260.198 94.7605H232.416L230.939 100.14C228.574 108.711 224.791 112.198 217.993 112.198ZM237.145 76.0815H254.938L246.071 45.1074H245.598L237.145 76.0815Z"/>
<path d="M307.785 110.72C299.805 110.72 295.254 105.992 295.254 97.5978V37.0684C295.254 28.6746 299.805 23.9458 307.785 23.9458C315.765 23.9458 320.316 28.6746 320.316 37.0684V90.7409H343.902C350.522 90.7409 354.955 94.3467 354.955 100.731C354.955 107.115 350.64 110.72 343.902 110.72H307.785Z"/>
<path d="M373.341 112.198C365.361 112.198 360.81 107.469 360.81 99.0755V37.0684C360.81 28.6746 365.361 23.9458 373.341 23.9458C381.321 23.9458 385.873 28.6746 385.873 37.0684V57.8162H415.901V37.0684C415.901 28.6746 420.452 23.9458 428.432 23.9458C436.412 23.9458 440.964 28.6746 440.964 37.0684V99.0755C440.964 107.469 436.412 112.198 428.432 112.198C420.452 112.198 415.901 107.469 415.901 99.0755V77.7366H385.873V99.0755C385.873 107.469 381.321 112.198 373.341 112.198Z"/>
<path d="M461.359 112.198C453.38 112.198 448.592 107.647 448.592 100.08C448.592 97.8933 449.242 94.7013 450.365 91.6867L469.458 38.9599C473.123 28.6155 479.329 23.9458 489.319 23.9458C500.018 23.9458 506.165 28.4382 510.008 38.9599L529.278 91.6867C530.46 94.9378 530.933 97.3022 530.933 100.021C530.933 107.115 525.672 112.198 518.401 112.198C511.013 112.198 507.17 108.829 505.042 100.553L503.565 94.7605H475.783L474.305 100.14C471.94 108.711 468.157 112.198 461.359 112.198ZM480.511 76.0815H498.304L489.437 45.1074H488.964L480.511 76.0815Z"/>
<path d="M573.613 112.198C546.54 112.198 530.64 96.1791 530.64 68.0424C530.64 39.9057 546.895 23.9458 572.667 23.9458C588.982 23.9458 601.041 30.1524 607.779 42.0337C609.493 44.9892 610.38 48.1221 610.38 51.1367C610.38 57.5207 606.065 61.6584 599.504 61.6584C594.065 61.6584 590.755 59.5304 588.036 54.2696C584.253 46.999 579.524 43.6297 572.963 43.6297C562.678 43.6297 556.175 52.7327 556.175 67.9833C556.175 83.4112 562.619 92.5142 573.022 92.5142C579.879 92.5142 584.667 89.0267 588.273 81.4605C590.814 76.0815 593.829 74.0126 599.09 74.0126C606.242 74.0126 610.912 78.3868 610.912 85.0663C610.912 87.1943 610.439 89.4405 609.552 91.6276C604.587 103.982 590.223 112.198 573.613 112.198Z"/>
<path d="M632.312 112.198C624.333 112.198 619.781 107.469 619.781 99.0755V37.0684C619.781 28.6746 624.333 23.9458 632.312 23.9458C640.292 23.9458 644.844 28.6746 644.844 37.0684V59.2349H645.317L671.503 29.6204C675.109 25.6009 678.36 23.9458 682.616 23.9458C689.177 23.9458 694.497 29.0884 694.497 35.5315C694.497 39.3146 693.197 42.0337 689.65 45.8168L672.035 64.614L690.477 87.4307C694.793 92.7507 696.625 96.5338 696.625 100.08C696.625 106.937 691.423 112.198 684.566 112.198C679.187 112.198 675.522 110.188 671.444 104.987L652.292 80.6921L644.844 88.3765V99.0755C644.844 107.469 640.292 112.198 632.312 112.198Z"/>
<path d="M735.525 64.082C729.495 64.082 725.83 60.6535 725.83 55.0971C725.83 53.9149 725.949 52.6145 726.185 51.6687L730.973 31.9257C732.273 26.5466 734.933 23.9458 740.549 23.9458C746.46 23.9458 749.534 28.1426 748.943 33.0488L746.401 54.4469C745.633 61.0673 741.672 64.082 735.525 64.082Z"/>
<path d="M770.402 110.72C762.245 110.72 758.698 106.169 758.698 99.9031C758.698 95.2924 760.826 91.7458 765.555 87.7854L789.022 67.6877C798.598 59.4713 801.317 55.7474 801.317 50.6638C801.317 45.2848 797.179 41.5608 791.091 41.5608C786.599 41.5608 783.525 43.6297 780.333 48.2403C777.023 53.0874 774.008 54.8607 769.22 54.8607C762.836 54.8607 758.935 51.1367 758.935 45.1074C758.935 43.1568 759.289 41.3243 760.058 39.551C764.55 29.384 776.55 23.0591 791.446 23.0591C812.194 23.0591 825.434 33.5217 825.434 49.0087C825.434 60.4762 819.523 66.4464 806.283 77.9139L790.736 91.332V91.8049H817.809C824.075 91.8049 827.622 95.5289 827.622 101.263C827.622 106.878 824.075 110.72 817.809 110.72H770.402Z"/>
<path d="M871.189 113.026C856.825 113.026 845.475 107.351 838.264 94.524C834.54 87.9036 832.353 78.6823 832.353 68.0424C832.353 40.2603 847.071 23 870.538 23C887.917 23 898.675 29.916 901.926 37.5412C902.517 39.019 902.872 40.5559 902.872 42.0928C902.872 47.2945 899.384 51.5505 892.882 51.5505C887.917 51.5505 885.198 49.5998 881.888 46.5852C878.164 43.2159 875.09 41.9154 870.538 41.9154C860.253 41.9154 855.938 52.7327 856.293 66.8602V67.8651H856.766C859.957 59.7669 867.937 54.3287 879.464 54.3287C896.192 54.3287 906.714 65.7962 906.714 81.697C906.714 100.14 891.7 113.026 871.189 113.026ZM870.834 94.1693C877.454 94.1693 882.656 89.204 882.715 82.8201C882.774 76.0223 877.632 71.3526 871.011 71.3526C864.214 71.3526 859.012 75.9041 859.012 82.4654C859.012 89.1449 864.213 94.1693 870.834 94.1693Z"/>
<path d="M51.1758 104.198C43.1958 104.198 38.6443 99.4693 38.6443 91.0755V37.403H26.0537C19.4333 37.403 15 33.7972 15 27.4133C15 21.0293 19.3151 17.4235 26.0537 17.4235H76.2979C83.0365 17.4235 87.3516 21.0293 87.3516 27.4133C87.3516 33.7972 82.9183 37.403 76.2979 37.403H63.7073V91.0755C63.7073 99.4693 59.1557 104.198 51.1758 104.198Z"/>
<path d="M104.851 104.198C96.8708 104.198 92.3192 99.4693 92.3192 91.0755V29.0684C92.3192 20.6746 96.8708 15.9458 104.851 15.9458C112.831 15.9458 117.382 20.6746 117.382 29.0684V91.0755C117.382 99.4693 112.831 104.198 104.851 104.198Z"/>
<path d="M139.315 102.72C131.335 102.72 126.783 97.9915 126.783 89.5978V30.5461C126.783 22.1524 131.335 17.4235 139.315 17.4235H163.255C189.145 17.4235 204.336 32.1421 204.336 59.4513C204.336 86.7605 189.086 102.72 163.255 102.72H139.315ZM151.846 82.8H159.708C172.239 82.8 178.801 75.1747 178.801 59.4513C178.801 45.0874 171.707 37.3439 159.708 37.3439H151.846V82.8Z"/>
<path d="M217.993 104.198C210.013 104.198 205.225 99.6466 205.225 92.0804C205.225 89.8933 205.876 86.7013 206.999 83.6867L226.092 30.9599C229.756 20.6155 235.963 15.9458 245.953 15.9458C256.652 15.9458 262.799 20.4382 266.642 30.9599L285.912 83.6867C287.094 86.9378 287.567 89.3022 287.567 92.0213C287.567 99.1146 282.306 104.198 275.035 104.198C267.646 104.198 263.804 100.829 261.676 92.5533L260.198 86.7605H232.416L230.939 92.1395C228.574 100.711 224.791 104.198 217.993 104.198ZM237.145 68.0815H254.938L246.071 37.1074H245.598L237.145 68.0815Z"/>
<path d="M307.785 102.72C299.805 102.72 295.254 97.9915 295.254 89.5978V29.0684C295.254 20.6746 299.805 15.9458 307.785 15.9458C315.765 15.9458 320.316 20.6746 320.316 29.0684V82.7409H343.902C350.522 82.7409 354.955 86.3467 354.955 92.7306C354.955 99.1146 350.64 102.72 343.902 102.72H307.785Z"/>
<path d="M373.341 104.198C365.361 104.198 360.81 99.4693 360.81 91.0755V29.0684C360.81 20.6746 365.361 15.9458 373.341 15.9458C381.321 15.9458 385.873 20.6746 385.873 29.0684V49.8162H415.901V29.0684C415.901 20.6746 420.452 15.9458 428.432 15.9458C436.412 15.9458 440.964 20.6746 440.964 29.0684V91.0755C440.964 99.4693 436.412 104.198 428.432 104.198C420.452 104.198 415.901 99.4693 415.901 91.0755V69.7366H385.873V91.0755C385.873 99.4693 381.321 104.198 373.341 104.198Z"/>
<path d="M461.359 104.198C453.38 104.198 448.592 99.6466 448.592 92.0804C448.592 89.8933 449.242 86.7013 450.365 83.6867L469.458 30.9599C473.123 20.6155 479.329 15.9458 489.319 15.9458C500.018 15.9458 506.165 20.4382 510.008 30.9599L529.278 83.6867C530.46 86.9378 530.933 89.3022 530.933 92.0213C530.933 99.1146 525.672 104.198 518.401 104.198C511.013 104.198 507.17 100.829 505.042 92.5533L503.565 86.7605H475.783L474.305 92.1395C471.94 100.711 468.157 104.198 461.359 104.198ZM480.511 68.0815H498.304L489.437 37.1074H488.964L480.511 68.0815Z"/>
<path d="M573.613 104.198C546.54 104.198 530.64 88.1791 530.64 60.0424C530.64 31.9057 546.895 15.9458 572.667 15.9458C588.982 15.9458 601.041 22.1524 607.779 34.0337C609.493 36.9892 610.38 40.1221 610.38 43.1367C610.38 49.5207 606.065 53.6584 599.504 53.6584C594.065 53.6584 590.755 51.5304 588.036 46.2696C584.253 38.999 579.524 35.6297 572.963 35.6297C562.678 35.6297 556.175 44.7327 556.175 59.9833C556.175 75.4112 562.619 84.5142 573.022 84.5142C579.879 84.5142 584.667 81.0267 588.273 73.4605C590.814 68.0815 593.829 66.0126 599.09 66.0126C606.242 66.0126 610.912 70.3868 610.912 77.0663C610.912 79.1943 610.439 81.4405 609.552 83.6276C604.587 95.9817 590.223 104.198 573.613 104.198Z"/>
<path d="M632.312 104.198C624.333 104.198 619.781 99.4693 619.781 91.0755V29.0684C619.781 20.6746 624.333 15.9458 632.312 15.9458C640.292 15.9458 644.844 20.6746 644.844 29.0684V51.2349H645.317L671.503 21.6204C675.109 17.6009 678.36 15.9458 682.616 15.9458C689.177 15.9458 694.497 21.0884 694.497 27.5315C694.497 31.3146 693.197 34.0337 689.65 37.8168L672.035 56.614L690.477 79.4307C694.793 84.7507 696.625 88.5338 696.625 92.0804C696.625 98.9373 691.423 104.198 684.566 104.198C679.187 104.198 675.522 102.188 671.444 96.9866L652.292 72.6921L644.844 80.3765V91.0755C644.844 99.4693 640.292 104.198 632.312 104.198Z"/>
<path d="M735.525 56.082C729.495 56.082 725.83 52.6535 725.83 47.0971C725.83 45.9149 725.949 44.6145 726.185 43.6687L730.973 23.9257C732.273 18.5466 734.933 15.9458 740.549 15.9458C746.46 15.9458 749.534 20.1426 748.943 25.0488L746.401 46.4469C745.633 53.0673 741.672 56.082 735.525 56.082Z"/>
<path d="M770.402 102.72C762.245 102.72 758.698 98.1688 758.698 91.9031C758.698 87.2924 760.826 83.7458 765.555 79.7854L789.022 59.6877C798.598 51.4713 801.317 47.7474 801.317 42.6638C801.317 37.2848 797.179 33.5608 791.091 33.5608C786.599 33.5608 783.525 35.6297 780.333 40.2403C777.023 45.0874 774.008 46.8607 769.22 46.8607C762.836 46.8607 758.935 43.1367 758.935 37.1074C758.935 35.1568 759.289 33.3243 760.058 31.551C764.55 21.384 776.55 15.0591 791.446 15.0591C812.194 15.0591 825.434 25.5217 825.434 41.0087C825.434 52.4762 819.523 58.4464 806.283 69.9139L790.736 83.332V83.8049H817.809C824.075 83.8049 827.622 87.5289 827.622 93.2626C827.622 98.8782 824.075 102.72 817.809 102.72H770.402Z"/>
<path d="M871.189 105.026C856.825 105.026 845.475 99.351 838.264 86.524C834.54 79.9036 832.353 70.6823 832.353 60.0424C832.353 32.2603 847.071 15 870.538 15C887.917 15 898.675 21.916 901.926 29.5412C902.517 31.019 902.872 32.5559 902.872 34.0928C902.872 39.2945 899.384 43.5505 892.882 43.5505C887.917 43.5505 885.198 41.5998 881.888 38.5852C878.164 35.2159 875.09 33.9154 870.538 33.9154C860.253 33.9154 855.938 44.7327 856.293 58.8602V59.8651H856.766C859.957 51.7669 867.937 46.3287 879.464 46.3287C896.192 46.3287 906.714 57.7962 906.714 73.697C906.714 92.1395 891.7 105.026 871.189 105.026ZM870.834 86.1693C877.454 86.1693 882.656 81.204 882.715 74.8201C882.774 68.0223 877.632 63.3526 871.011 63.3526C864.214 63.3526 859.012 67.9041 859.012 74.4654C859.012 81.1449 864.213 86.1693 870.834 86.1693Z"/>
</mask>
<path d="M51.1758 112.198C43.1958 112.198 38.6443 107.469 38.6443 99.0755V45.403H26.0537C19.4333 45.403 15 41.7972 15 35.4133C15 29.0293 19.3151 25.4235 26.0537 25.4235H76.2979C83.0365 25.4235 87.3516 29.0293 87.3516 35.4133C87.3516 41.7972 82.9183 45.403 76.2979 45.403H63.7073V99.0755C63.7073 107.469 59.1557 112.198 51.1758 112.198Z" fill="url(#paint36_linear_2088_39)"/>
<path d="M104.851 112.198C96.8708 112.198 92.3192 107.469 92.3192 99.0755V37.0684C92.3192 28.6746 96.8708 23.9458 104.851 23.9458C112.831 23.9458 117.382 28.6746 117.382 37.0684V99.0755C117.382 107.469 112.831 112.198 104.851 112.198Z" fill="url(#paint37_linear_2088_39)"/>
<path d="M139.315 110.72C131.335 110.72 126.783 105.992 126.783 97.5978V38.5461C126.783 30.1524 131.335 25.4235 139.315 25.4235H163.255C189.145 25.4235 204.336 40.1421 204.336 67.4513C204.336 94.7605 189.086 110.72 163.255 110.72H139.315ZM151.846 90.8H159.708C172.239 90.8 178.801 83.1747 178.801 67.4513C178.801 53.0874 171.707 45.3439 159.708 45.3439H151.846V90.8Z" fill="url(#paint38_linear_2088_39)"/>
<path d="M217.993 112.198C210.013 112.198 205.225 107.647 205.225 100.08C205.225 97.8933 205.876 94.7013 206.999 91.6867L226.092 38.9599C229.756 28.6155 235.963 23.9458 245.953 23.9458C256.652 23.9458 262.799 28.4382 266.642 38.9599L285.912 91.6867C287.094 94.9378 287.567 97.3022 287.567 100.021C287.567 107.115 282.306 112.198 275.035 112.198C267.646 112.198 263.804 108.829 261.676 100.553L260.198 94.7605H232.416L230.939 100.14C228.574 108.711 224.791 112.198 217.993 112.198ZM237.145 76.0815H254.938L246.071 45.1074H245.598L237.145 76.0815Z" fill="url(#paint39_linear_2088_39)"/>
<path d="M307.785 110.72C299.805 110.72 295.254 105.992 295.254 97.5978V37.0684C295.254 28.6746 299.805 23.9458 307.785 23.9458C315.765 23.9458 320.316 28.6746 320.316 37.0684V90.7409H343.902C350.522 90.7409 354.955 94.3467 354.955 100.731C354.955 107.115 350.64 110.72 343.902 110.72H307.785Z" fill="url(#paint40_linear_2088_39)"/>
<path d="M373.341 112.198C365.361 112.198 360.81 107.469 360.81 99.0755V37.0684C360.81 28.6746 365.361 23.9458 373.341 23.9458C381.321 23.9458 385.873 28.6746 385.873 37.0684V57.8162H415.901V37.0684C415.901 28.6746 420.452 23.9458 428.432 23.9458C436.412 23.9458 440.964 28.6746 440.964 37.0684V99.0755C440.964 107.469 436.412 112.198 428.432 112.198C420.452 112.198 415.901 107.469 415.901 99.0755V77.7366H385.873V99.0755C385.873 107.469 381.321 112.198 373.341 112.198Z" fill="url(#paint41_linear_2088_39)"/>
<path d="M461.359 112.198C453.38 112.198 448.592 107.647 448.592 100.08C448.592 97.8933 449.242 94.7013 450.365 91.6867L469.458 38.9599C473.123 28.6155 479.329 23.9458 489.319 23.9458C500.018 23.9458 506.165 28.4382 510.008 38.9599L529.278 91.6867C530.46 94.9378 530.933 97.3022 530.933 100.021C530.933 107.115 525.672 112.198 518.401 112.198C511.013 112.198 507.17 108.829 505.042 100.553L503.565 94.7605H475.783L474.305 100.14C471.94 108.711 468.157 112.198 461.359 112.198ZM480.511 76.0815H498.304L489.437 45.1074H488.964L480.511 76.0815Z" fill="url(#paint42_linear_2088_39)"/>
<path d="M573.613 112.198C546.54 112.198 530.64 96.1791 530.64 68.0424C530.64 39.9057 546.895 23.9458 572.667 23.9458C588.982 23.9458 601.041 30.1524 607.779 42.0337C609.493 44.9892 610.38 48.1221 610.38 51.1367C610.38 57.5207 606.065 61.6584 599.504 61.6584C594.065 61.6584 590.755 59.5304 588.036 54.2696C584.253 46.999 579.524 43.6297 572.963 43.6297C562.678 43.6297 556.175 52.7327 556.175 67.9833C556.175 83.4112 562.619 92.5142 573.022 92.5142C579.879 92.5142 584.667 89.0267 588.273 81.4605C590.814 76.0815 593.829 74.0126 599.09 74.0126C606.242 74.0126 610.912 78.3868 610.912 85.0663C610.912 87.1943 610.439 89.4405 609.552 91.6276C604.587 103.982 590.223 112.198 573.613 112.198Z" fill="url(#paint43_linear_2088_39)"/>
<path d="M632.312 112.198C624.333 112.198 619.781 107.469 619.781 99.0755V37.0684C619.781 28.6746 624.333 23.9458 632.312 23.9458C640.292 23.9458 644.844 28.6746 644.844 37.0684V59.2349H645.317L671.503 29.6204C675.109 25.6009 678.36 23.9458 682.616 23.9458C689.177 23.9458 694.497 29.0884 694.497 35.5315C694.497 39.3146 693.197 42.0337 689.65 45.8168L672.035 64.614L690.477 87.4307C694.793 92.7507 696.625 96.5338 696.625 100.08C696.625 106.937 691.423 112.198 684.566 112.198C679.187 112.198 675.522 110.188 671.444 104.987L652.292 80.6921L644.844 88.3765V99.0755C644.844 107.469 640.292 112.198 632.312 112.198Z" fill="url(#paint44_linear_2088_39)"/>
<path d="M735.525 64.082C729.495 64.082 725.83 60.6535 725.83 55.0971C725.83 53.9149 725.949 52.6145 726.185 51.6687L730.973 31.9257C732.273 26.5466 734.933 23.9458 740.549 23.9458C746.46 23.9458 749.534 28.1426 748.943 33.0488L746.401 54.4469C745.633 61.0673 741.672 64.082 735.525 64.082Z" fill="url(#paint45_linear_2088_39)"/>
<path d="M770.402 110.72C762.245 110.72 758.698 106.169 758.698 99.9031C758.698 95.2924 760.826 91.7458 765.555 87.7854L789.022 67.6877C798.598 59.4713 801.317 55.7474 801.317 50.6638C801.317 45.2848 797.179 41.5608 791.091 41.5608C786.599 41.5608 783.525 43.6297 780.333 48.2403C777.023 53.0874 774.008 54.8607 769.22 54.8607C762.836 54.8607 758.935 51.1367 758.935 45.1074C758.935 43.1568 759.289 41.3243 760.058 39.551C764.55 29.384 776.55 23.0591 791.446 23.0591C812.194 23.0591 825.434 33.5217 825.434 49.0087C825.434 60.4762 819.523 66.4464 806.283 77.9139L790.736 91.332V91.8049H817.809C824.075 91.8049 827.622 95.5289 827.622 101.263C827.622 106.878 824.075 110.72 817.809 110.72H770.402Z" fill="url(#paint46_linear_2088_39)"/>
<path d="M871.189 113.026C856.825 113.026 845.475 107.351 838.264 94.524C834.54 87.9036 832.353 78.6823 832.353 68.0424C832.353 40.2603 847.071 23 870.538 23C887.917 23 898.675 29.916 901.926 37.5412C902.517 39.019 902.872 40.5559 902.872 42.0928C902.872 47.2945 899.384 51.5505 892.882 51.5505C887.917 51.5505 885.198 49.5998 881.888 46.5852C878.164 43.2159 875.09 41.9154 870.538 41.9154C860.253 41.9154 855.938 52.7327 856.293 66.8602V67.8651H856.766C859.957 59.7669 867.937 54.3287 879.464 54.3287C896.192 54.3287 906.714 65.7962 906.714 81.697C906.714 100.14 891.7 113.026 871.189 113.026ZM870.834 94.1693C877.454 94.1693 882.656 89.204 882.715 82.8201C882.774 76.0223 877.632 71.3526 871.011 71.3526C864.214 71.3526 859.012 75.9041 859.012 82.4654C859.012 89.1449 864.213 94.1693 870.834 94.1693Z" fill="url(#paint47_linear_2088_39)"/>
<path d="M51.1758 104.198C43.1958 104.198 38.6443 99.4693 38.6443 91.0755V37.403H26.0537C19.4333 37.403 15 33.7972 15 27.4133C15 21.0293 19.3151 17.4235 26.0537 17.4235H76.2979C83.0365 17.4235 87.3516 21.0293 87.3516 27.4133C87.3516 33.7972 82.9183 37.403 76.2979 37.403H63.7073V91.0755C63.7073 99.4693 59.1557 104.198 51.1758 104.198Z" fill="white"/>
<path d="M104.851 104.198C96.8708 104.198 92.3192 99.4693 92.3192 91.0755V29.0684C92.3192 20.6746 96.8708 15.9458 104.851 15.9458C112.831 15.9458 117.382 20.6746 117.382 29.0684V91.0755C117.382 99.4693 112.831 104.198 104.851 104.198Z" fill="white"/>
<path d="M139.315 102.72C131.335 102.72 126.783 97.9915 126.783 89.5978V30.5461C126.783 22.1524 131.335 17.4235 139.315 17.4235H163.255C189.145 17.4235 204.336 32.1421 204.336 59.4513C204.336 86.7605 189.086 102.72 163.255 102.72H139.315ZM151.846 82.8H159.708C172.239 82.8 178.801 75.1747 178.801 59.4513C178.801 45.0874 171.707 37.3439 159.708 37.3439H151.846V82.8Z" fill="white"/>
<path d="M217.993 104.198C210.013 104.198 205.225 99.6466 205.225 92.0804C205.225 89.8933 205.876 86.7013 206.999 83.6867L226.092 30.9599C229.756 20.6155 235.963 15.9458 245.953 15.9458C256.652 15.9458 262.799 20.4382 266.642 30.9599L285.912 83.6867C287.094 86.9378 287.567 89.3022 287.567 92.0213C287.567 99.1146 282.306 104.198 275.035 104.198C267.646 104.198 263.804 100.829 261.676 92.5533L260.198 86.7605H232.416L230.939 92.1395C228.574 100.711 224.791 104.198 217.993 104.198ZM237.145 68.0815H254.938L246.071 37.1074H245.598L237.145 68.0815Z" fill="white"/>
<path d="M307.785 102.72C299.805 102.72 295.254 97.9915 295.254 89.5978V29.0684C295.254 20.6746 299.805 15.9458 307.785 15.9458C315.765 15.9458 320.316 20.6746 320.316 29.0684V82.7409H343.902C350.522 82.7409 354.955 86.3467 354.955 92.7306C354.955 99.1146 350.64 102.72 343.902 102.72H307.785Z" fill="white"/>
<path d="M373.341 104.198C365.361 104.198 360.81 99.4693 360.81 91.0755V29.0684C360.81 20.6746 365.361 15.9458 373.341 15.9458C381.321 15.9458 385.873 20.6746 385.873 29.0684V49.8162H415.901V29.0684C415.901 20.6746 420.452 15.9458 428.432 15.9458C436.412 15.9458 440.964 20.6746 440.964 29.0684V91.0755C440.964 99.4693 436.412 104.198 428.432 104.198C420.452 104.198 415.901 99.4693 415.901 91.0755V69.7366H385.873V91.0755C385.873 99.4693 381.321 104.198 373.341 104.198Z" fill="white"/>
<path d="M461.359 104.198C453.38 104.198 448.592 99.6466 448.592 92.0804C448.592 89.8933 449.242 86.7013 450.365 83.6867L469.458 30.9599C473.123 20.6155 479.329 15.9458 489.319 15.9458C500.018 15.9458 506.165 20.4382 510.008 30.9599L529.278 83.6867C530.46 86.9378 530.933 89.3022 530.933 92.0213C530.933 99.1146 525.672 104.198 518.401 104.198C511.013 104.198 507.17 100.829 505.042 92.5533L503.565 86.7605H475.783L474.305 92.1395C471.94 100.711 468.157 104.198 461.359 104.198ZM480.511 68.0815H498.304L489.437 37.1074H488.964L480.511 68.0815Z" fill="white"/>
<path d="M573.613 104.198C546.54 104.198 530.64 88.1791 530.64 60.0424C530.64 31.9057 546.895 15.9458 572.667 15.9458C588.982 15.9458 601.041 22.1524 607.779 34.0337C609.493 36.9892 610.38 40.1221 610.38 43.1367C610.38 49.5207 606.065 53.6584 599.504 53.6584C594.065 53.6584 590.755 51.5304 588.036 46.2696C584.253 38.999 579.524 35.6297 572.963 35.6297C562.678 35.6297 556.175 44.7327 556.175 59.9833C556.175 75.4112 562.619 84.5142 573.022 84.5142C579.879 84.5142 584.667 81.0267 588.273 73.4605C590.814 68.0815 593.829 66.0126 599.09 66.0126C606.242 66.0126 610.912 70.3868 610.912 77.0663C610.912 79.1943 610.439 81.4405 609.552 83.6276C604.587 95.9817 590.223 104.198 573.613 104.198Z" fill="white"/>
<path d="M632.312 104.198C624.333 104.198 619.781 99.4693 619.781 91.0755V29.0684C619.781 20.6746 624.333 15.9458 632.312 15.9458C640.292 15.9458 644.844 20.6746 644.844 29.0684V51.2349H645.317L671.503 21.6204C675.109 17.6009 678.36 15.9458 682.616 15.9458C689.177 15.9458 694.497 21.0884 694.497 27.5315C694.497 31.3146 693.197 34.0337 689.65 37.8168L672.035 56.614L690.477 79.4307C694.793 84.7507 696.625 88.5338 696.625 92.0804C696.625 98.9373 691.423 104.198 684.566 104.198C679.187 104.198 675.522 102.188 671.444 96.9866L652.292 72.6921L644.844 80.3765V91.0755C644.844 99.4693 640.292 104.198 632.312 104.198Z" fill="white"/>
<path d="M735.525 56.082C729.495 56.082 725.83 52.6535 725.83 47.0971C725.83 45.9149 725.949 44.6145 726.185 43.6687L730.973 23.9257C732.273 18.5466 734.933 15.9458 740.549 15.9458C746.46 15.9458 749.534 20.1426 748.943 25.0488L746.401 46.4469C745.633 53.0673 741.672 56.082 735.525 56.082Z" fill="white"/>
<path d="M770.402 102.72C762.245 102.72 758.698 98.1688 758.698 91.9031C758.698 87.2924 760.826 83.7458 765.555 79.7854L789.022 59.6877C798.598 51.4713 801.317 47.7474 801.317 42.6638C801.317 37.2848 797.179 33.5608 791.091 33.5608C786.599 33.5608 783.525 35.6297 780.333 40.2403C777.023 45.0874 774.008 46.8607 769.22 46.8607C762.836 46.8607 758.935 43.1367 758.935 37.1074C758.935 35.1568 759.289 33.3243 760.058 31.551C764.55 21.384 776.55 15.0591 791.446 15.0591C812.194 15.0591 825.434 25.5217 825.434 41.0087C825.434 52.4762 819.523 58.4464 806.283 69.9139L790.736 83.332V83.8049H817.809C824.075 83.8049 827.622 87.5289 827.622 93.2626C827.622 98.8782 824.075 102.72 817.809 102.72H770.402Z" fill="white"/>
<path d="M871.189 105.026C856.825 105.026 845.475 99.351 838.264 86.524C834.54 79.9036 832.353 70.6823 832.353 60.0424C832.353 32.2603 847.071 15 870.538 15C887.917 15 898.675 21.916 901.926 29.5412C902.517 31.019 902.872 32.5559 902.872 34.0928C902.872 39.2945 899.384 43.5505 892.882 43.5505C887.917 43.5505 885.198 41.5998 881.888 38.5852C878.164 35.2159 875.09 33.9154 870.538 33.9154C860.253 33.9154 855.938 44.7327 856.293 58.8602V59.8651H856.766C859.957 51.7669 867.937 46.3287 879.464 46.3287C896.192 46.3287 906.714 57.7962 906.714 73.697C906.714 92.1395 891.7 105.026 871.189 105.026ZM870.834 86.1693C877.454 86.1693 882.656 81.204 882.715 74.8201C882.774 68.0223 877.632 63.3526 871.011 63.3526C864.214 63.3526 859.012 67.9041 859.012 74.4654C859.012 81.1449 864.213 86.1693 870.834 86.1693Z" fill="white"/>
<path d="M51.1758 112.198C43.1958 112.198 38.6443 107.469 38.6443 99.0755V45.403H26.0537C19.4333 45.403 15 41.7972 15 35.4133C15 29.0293 19.3151 25.4235 26.0537 25.4235H76.2979C83.0365 25.4235 87.3516 29.0293 87.3516 35.4133C87.3516 41.7972 82.9183 45.403 76.2979 45.403H63.7073V99.0755C63.7073 107.469 59.1557 112.198 51.1758 112.198Z" stroke="black" stroke-width="18" mask="url(#path-2-outside-2_2088_39)"/>
<path d="M104.851 112.198C96.8708 112.198 92.3192 107.469 92.3192 99.0755V37.0684C92.3192 28.6746 96.8708 23.9458 104.851 23.9458C112.831 23.9458 117.382 28.6746 117.382 37.0684V99.0755C117.382 107.469 112.831 112.198 104.851 112.198Z" stroke="black" stroke-width="18" mask="url(#path-2-outside-2_2088_39)"/>
<path d="M139.315 110.72C131.335 110.72 126.783 105.992 126.783 97.5978V38.5461C126.783 30.1524 131.335 25.4235 139.315 25.4235H163.255C189.145 25.4235 204.336 40.1421 204.336 67.4513C204.336 94.7605 189.086 110.72 163.255 110.72H139.315ZM151.846 90.8H159.708C172.239 90.8 178.801 83.1747 178.801 67.4513C178.801 53.0874 171.707 45.3439 159.708 45.3439H151.846V90.8Z" stroke="black" stroke-width="18" mask="url(#path-2-outside-2_2088_39)"/>
<path d="M217.993 112.198C210.013 112.198 205.225 107.647 205.225 100.08C205.225 97.8933 205.876 94.7013 206.999 91.6867L226.092 38.9599C229.756 28.6155 235.963 23.9458 245.953 23.9458C256.652 23.9458 262.799 28.4382 266.642 38.9599L285.912 91.6867C287.094 94.9378 287.567 97.3022 287.567 100.021C287.567 107.115 282.306 112.198 275.035 112.198C267.646 112.198 263.804 108.829 261.676 100.553L260.198 94.7605H232.416L230.939 100.14C228.574 108.711 224.791 112.198 217.993 112.198ZM237.145 76.0815H254.938L246.071 45.1074H245.598L237.145 76.0815Z" stroke="black" stroke-width="18" mask="url(#path-2-outside-2_2088_39)"/>
<path d="M307.785 110.72C299.805 110.72 295.254 105.992 295.254 97.5978V37.0684C295.254 28.6746 299.805 23.9458 307.785 23.9458C315.765 23.9458 320.316 28.6746 320.316 37.0684V90.7409H343.902C350.522 90.7409 354.955 94.3467 354.955 100.731C354.955 107.115 350.64 110.72 343.902 110.72H307.785Z" stroke="black" stroke-width="18" mask="url(#path-2-outside-2_2088_39)"/>
<path d="M373.341 112.198C365.361 112.198 360.81 107.469 360.81 99.0755V37.0684C360.81 28.6746 365.361 23.9458 373.341 23.9458C381.321 23.9458 385.873 28.6746 385.873 37.0684V57.8162H415.901V37.0684C415.901 28.6746 420.452 23.9458 428.432 23.9458C436.412 23.9458 440.964 28.6746 440.964 37.0684V99.0755C440.964 107.469 436.412 112.198 428.432 112.198C420.452 112.198 415.901 107.469 415.901 99.0755V77.7366H385.873V99.0755C385.873 107.469 381.321 112.198 373.341 112.198Z" stroke="black" stroke-width="18" mask="url(#path-2-outside-2_2088_39)"/>
<path d="M461.359 112.198C453.38 112.198 448.592 107.647 448.592 100.08C448.592 97.8933 449.242 94.7013 450.365 91.6867L469.458 38.9599C473.123 28.6155 479.329 23.9458 489.319 23.9458C500.018 23.9458 506.165 28.4382 510.008 38.9599L529.278 91.6867C530.46 94.9378 530.933 97.3022 530.933 100.021C530.933 107.115 525.672 112.198 518.401 112.198C511.013 112.198 507.17 108.829 505.042 100.553L503.565 94.7605H475.783L474.305 100.14C471.94 108.711 468.157 112.198 461.359 112.198ZM480.511 76.0815H498.304L489.437 45.1074H488.964L480.511 76.0815Z" stroke="black" stroke-width="18" mask="url(#path-2-outside-2_2088_39)"/>
<path d="M573.613 112.198C546.54 112.198 530.64 96.1791 530.64 68.0424C530.64 39.9057 546.895 23.9458 572.667 23.9458C588.982 23.9458 601.041 30.1524 607.779 42.0337C609.493 44.9892 610.38 48.1221 610.38 51.1367C610.38 57.5207 606.065 61.6584 599.504 61.6584C594.065 61.6584 590.755 59.5304 588.036 54.2696C584.253 46.999 579.524 43.6297 572.963 43.6297C562.678 43.6297 556.175 52.7327 556.175 67.9833C556.175 83.4112 562.619 92.5142 573.022 92.5142C579.879 92.5142 584.667 89.0267 588.273 81.4605C590.814 76.0815 593.829 74.0126 599.09 74.0126C606.242 74.0126 610.912 78.3868 610.912 85.0663C610.912 87.1943 610.439 89.4405 609.552 91.6276C604.587 103.982 590.223 112.198 573.613 112.198Z" stroke="black" stroke-width="18" mask="url(#path-2-outside-2_2088_39)"/>
<path d="M632.312 112.198C624.333 112.198 619.781 107.469 619.781 99.0755V37.0684C619.781 28.6746 624.333 23.9458 632.312 23.9458C640.292 23.9458 644.844 28.6746 644.844 37.0684V59.2349H645.317L671.503 29.6204C675.109 25.6009 678.36 23.9458 682.616 23.9458C689.177 23.9458 694.497 29.0884 694.497 35.5315C694.497 39.3146 693.197 42.0337 689.65 45.8168L672.035 64.614L690.477 87.4307C694.793 92.7507 696.625 96.5338 696.625 100.08C696.625 106.937 691.423 112.198 684.566 112.198C679.187 112.198 675.522 110.188 671.444 104.987L652.292 80.6921L644.844 88.3765V99.0755C644.844 107.469 640.292 112.198 632.312 112.198Z" stroke="black" stroke-width="18" mask="url(#path-2-outside-2_2088_39)"/>
<path d="M735.525 64.082C729.495 64.082 725.83 60.6535 725.83 55.0971C725.83 53.9149 725.949 52.6145 726.185 51.6687L730.973 31.9257C732.273 26.5466 734.933 23.9458 740.549 23.9458C746.46 23.9458 749.534 28.1426 748.943 33.0488L746.401 54.4469C745.633 61.0673 741.672 64.082 735.525 64.082Z" stroke="black" stroke-width="18" mask="url(#path-2-outside-2_2088_39)"/>
<path d="M770.402 110.72C762.245 110.72 758.698 106.169 758.698 99.9031C758.698 95.2924 760.826 91.7458 765.555 87.7854L789.022 67.6877C798.598 59.4713 801.317 55.7474 801.317 50.6638C801.317 45.2848 797.179 41.5608 791.091 41.5608C786.599 41.5608 783.525 43.6297 780.333 48.2403C777.023 53.0874 774.008 54.8607 769.22 54.8607C762.836 54.8607 758.935 51.1367 758.935 45.1074C758.935 43.1568 759.289 41.3243 760.058 39.551C764.55 29.384 776.55 23.0591 791.446 23.0591C812.194 23.0591 825.434 33.5217 825.434 49.0087C825.434 60.4762 819.523 66.4464 806.283 77.9139L790.736 91.332V91.8049H817.809C824.075 91.8049 827.622 95.5289 827.622 101.263C827.622 106.878 824.075 110.72 817.809 110.72H770.402Z" stroke="black" stroke-width="18" mask="url(#path-2-outside-2_2088_39)"/>
<path d="M871.189 113.026C856.825 113.026 845.475 107.351 838.264 94.524C834.54 87.9036 832.353 78.6823 832.353 68.0424C832.353 40.2603 847.071 23 870.538 23C887.917 23 898.675 29.916 901.926 37.5412C902.517 39.019 902.872 40.5559 902.872 42.0928C902.872 47.2945 899.384 51.5505 892.882 51.5505C887.917 51.5505 885.198 49.5998 881.888 46.5852C878.164 43.2159 875.09 41.9154 870.538 41.9154C860.253 41.9154 855.938 52.7327 856.293 66.8602V67.8651H856.766C859.957 59.7669 867.937 54.3287 879.464 54.3287C896.192 54.3287 906.714 65.7962 906.714 81.697C906.714 100.14 891.7 113.026 871.189 113.026ZM870.834 94.1693C877.454 94.1693 882.656 89.204 882.715 82.8201C882.774 76.0223 877.632 71.3526 871.011 71.3526C864.214 71.3526 859.012 75.9041 859.012 82.4654C859.012 89.1449 864.213 94.1693 870.834 94.1693Z" stroke="black" stroke-width="18" mask="url(#path-2-outside-2_2088_39)"/>
<path d="M51.1758 104.198C43.1958 104.198 38.6443 99.4693 38.6443 91.0755V37.403H26.0537C19.4333 37.403 15 33.7972 15 27.4133C15 21.0293 19.3151 17.4235 26.0537 17.4235H76.2979C83.0365 17.4235 87.3516 21.0293 87.3516 27.4133C87.3516 33.7972 82.9183 37.403 76.2979 37.403H63.7073V91.0755C63.7073 99.4693 59.1557 104.198 51.1758 104.198Z" stroke="black" stroke-width="18" mask="url(#path-2-outside-2_2088_39)"/>
<path d="M104.851 104.198C96.8708 104.198 92.3192 99.4693 92.3192 91.0755V29.0684C92.3192 20.6746 96.8708 15.9458 104.851 15.9458C112.831 15.9458 117.382 20.6746 117.382 29.0684V91.0755C117.382 99.4693 112.831 104.198 104.851 104.198Z" stroke="black" stroke-width="18" mask="url(#path-2-outside-2_2088_39)"/>
<path d="M139.315 102.72C131.335 102.72 126.783 97.9915 126.783 89.5978V30.5461C126.783 22.1524 131.335 17.4235 139.315 17.4235H163.255C189.145 17.4235 204.336 32.1421 204.336 59.4513C204.336 86.7605 189.086 102.72 163.255 102.72H139.315ZM151.846 82.8H159.708C172.239 82.8 178.801 75.1747 178.801 59.4513C178.801 45.0874 171.707 37.3439 159.708 37.3439H151.846V82.8Z" stroke="black" stroke-width="18" mask="url(#path-2-outside-2_2088_39)"/>
<path d="M217.993 104.198C210.013 104.198 205.225 99.6466 205.225 92.0804C205.225 89.8933 205.876 86.7013 206.999 83.6867L226.092 30.9599C229.756 20.6155 235.963 15.9458 245.953 15.9458C256.652 15.9458 262.799 20.4382 266.642 30.9599L285.912 83.6867C287.094 86.9378 287.567 89.3022 287.567 92.0213C287.567 99.1146 282.306 104.198 275.035 104.198C267.646 104.198 263.804 100.829 261.676 92.5533L260.198 86.7605H232.416L230.939 92.1395C228.574 100.711 224.791 104.198 217.993 104.198ZM237.145 68.0815H254.938L246.071 37.1074H245.598L237.145 68.0815Z" stroke="black" stroke-width="18" mask="url(#path-2-outside-2_2088_39)"/>
<path d="M307.785 102.72C299.805 102.72 295.254 97.9915 295.254 89.5978V29.0684C295.254 20.6746 299.805 15.9458 307.785 15.9458C315.765 15.9458 320.316 20.6746 320.316 29.0684V82.7409H343.902C350.522 82.7409 354.955 86.3467 354.955 92.7306C354.955 99.1146 350.64 102.72 343.902 102.72H307.785Z" stroke="black" stroke-width="18" mask="url(#path-2-outside-2_2088_39)"/>
<path d="M373.341 104.198C365.361 104.198 360.81 99.4693 360.81 91.0755V29.0684C360.81 20.6746 365.361 15.9458 373.341 15.9458C381.321 15.9458 385.873 20.6746 385.873 29.0684V49.8162H415.901V29.0684C415.901 20.6746 420.452 15.9458 428.432 15.9458C436.412 15.9458 440.964 20.6746 440.964 29.0684V91.0755C440.964 99.4693 436.412 104.198 428.432 104.198C420.452 104.198 415.901 99.4693 415.901 91.0755V69.7366H385.873V91.0755C385.873 99.4693 381.321 104.198 373.341 104.198Z" stroke="black" stroke-width="18" mask="url(#path-2-outside-2_2088_39)"/>
<path d="M461.359 104.198C453.38 104.198 448.592 99.6466 448.592 92.0804C448.592 89.8933 449.242 86.7013 450.365 83.6867L469.458 30.9599C473.123 20.6155 479.329 15.9458 489.319 15.9458C500.018 15.9458 506.165 20.4382 510.008 30.9599L529.278 83.6867C530.46 86.9378 530.933 89.3022 530.933 92.0213C530.933 99.1146 525.672 104.198 518.401 104.198C511.013 104.198 507.17 100.829 505.042 92.5533L503.565 86.7605H475.783L474.305 92.1395C471.94 100.711 468.157 104.198 461.359 104.198ZM480.511 68.0815H498.304L489.437 37.1074H488.964L480.511 68.0815Z" stroke="black" stroke-width="18" mask="url(#path-2-outside-2_2088_39)"/>
<path d="M573.613 104.198C546.54 104.198 530.64 88.1791 530.64 60.0424C530.64 31.9057 546.895 15.9458 572.667 15.9458C588.982 15.9458 601.041 22.1524 607.779 34.0337C609.493 36.9892 610.38 40.1221 610.38 43.1367C610.38 49.5207 606.065 53.6584 599.504 53.6584C594.065 53.6584 590.755 51.5304 588.036 46.2696C584.253 38.999 579.524 35.6297 572.963 35.6297C562.678 35.6297 556.175 44.7327 556.175 59.9833C556.175 75.4112 562.619 84.5142 573.022 84.5142C579.879 84.5142 584.667 81.0267 588.273 73.4605C590.814 68.0815 593.829 66.0126 599.09 66.0126C606.242 66.0126 610.912 70.3868 610.912 77.0663C610.912 79.1943 610.439 81.4405 609.552 83.6276C604.587 95.9817 590.223 104.198 573.613 104.198Z" stroke="black" stroke-width="18" mask="url(#path-2-outside-2_2088_39)"/>
<path d="M632.312 104.198C624.333 104.198 619.781 99.4693 619.781 91.0755V29.0684C619.781 20.6746 624.333 15.9458 632.312 15.9458C640.292 15.9458 644.844 20.6746 644.844 29.0684V51.2349H645.317L671.503 21.6204C675.109 17.6009 678.36 15.9458 682.616 15.9458C689.177 15.9458 694.497 21.0884 694.497 27.5315C694.497 31.3146 693.197 34.0337 689.65 37.8168L672.035 56.614L690.477 79.4307C694.793 84.7507 696.625 88.5338 696.625 92.0804C696.625 98.9373 691.423 104.198 684.566 104.198C679.187 104.198 675.522 102.188 671.444 96.9866L652.292 72.6921L644.844 80.3765V91.0755C644.844 99.4693 640.292 104.198 632.312 104.198Z" stroke="black" stroke-width="18" mask="url(#path-2-outside-2_2088_39)"/>
<path d="M735.525 56.082C729.495 56.082 725.83 52.6535 725.83 47.0971C725.83 45.9149 725.949 44.6145 726.185 43.6687L730.973 23.9257C732.273 18.5466 734.933 15.9458 740.549 15.9458C746.46 15.9458 749.534 20.1426 748.943 25.0488L746.401 46.4469C745.633 53.0673 741.672 56.082 735.525 56.082Z" stroke="black" stroke-width="18" mask="url(#path-2-outside-2_2088_39)"/>
<path d="M770.402 102.72C762.245 102.72 758.698 98.1688 758.698 91.9031C758.698 87.2924 760.826 83.7458 765.555 79.7854L789.022 59.6877C798.598 51.4713 801.317 47.7474 801.317 42.6638C801.317 37.2848 797.179 33.5608 791.091 33.5608C786.599 33.5608 783.525 35.6297 780.333 40.2403C777.023 45.0874 774.008 46.8607 769.22 46.8607C762.836 46.8607 758.935 43.1367 758.935 37.1074C758.935 35.1568 759.289 33.3243 760.058 31.551C764.55 21.384 776.55 15.0591 791.446 15.0591C812.194 15.0591 825.434 25.5217 825.434 41.0087C825.434 52.4762 819.523 58.4464 806.283 69.9139L790.736 83.332V83.8049H817.809C824.075 83.8049 827.622 87.5289 827.622 93.2626C827.622 98.8782 824.075 102.72 817.809 102.72H770.402Z" stroke="black" stroke-width="18" mask="url(#path-2-outside-2_2088_39)"/>
<path d="M871.189 105.026C856.825 105.026 845.475 99.351 838.264 86.524C834.54 79.9036 832.353 70.6823 832.353 60.0424C832.353 32.2603 847.071 15 870.538 15C887.917 15 898.675 21.916 901.926 29.5412C902.517 31.019 902.872 32.5559 902.872 34.0928C902.872 39.2945 899.384 43.5505 892.882 43.5505C887.917 43.5505 885.198 41.5998 881.888 38.5852C878.164 35.2159 875.09 33.9154 870.538 33.9154C860.253 33.9154 855.938 44.7327 856.293 58.8602V59.8651H856.766C859.957 51.7669 867.937 46.3287 879.464 46.3287C896.192 46.3287 906.714 57.7962 906.714 73.697C906.714 92.1395 891.7 105.026 871.189 105.026ZM870.834 86.1693C877.454 86.1693 882.656 81.204 882.715 74.8201C882.774 68.0223 877.632 63.3526 871.011 63.3526C864.214 63.3526 859.012 67.9041 859.012 74.4654C859.012 81.1449 864.213 86.1693 870.834 86.1693Z" stroke="black" stroke-width="18" mask="url(#path-2-outside-2_2088_39)"/>
<defs>
<linearGradient id="paint0_linear_2088_39" x1="419.648" y1="29.4628" x2="419.648" y2="98.5629" gradientUnits="userSpaceOnUse">
<stop stop-color="#4E99D7"/>
<stop offset="0.73444" stop-color="#6BACE1"/>
<stop offset="0.947115" stop-color="#4E99D7"/>
<stop offset="1" stop-color="#64A5DA"/>
</linearGradient>
<linearGradient id="paint1_linear_2088_39" x1="419.648" y1="29.4628" x2="419.648" y2="98.5629" gradientUnits="userSpaceOnUse">
<stop stop-color="#4E99D7"/>
<stop offset="0.73444" stop-color="#6BACE1"/>
<stop offset="0.947115" stop-color="#4E99D7"/>
<stop offset="1" stop-color="#64A5DA"/>
</linearGradient>
<linearGradient id="paint2_linear_2088_39" x1="419.648" y1="29.4628" x2="419.648" y2="98.5629" gradientUnits="userSpaceOnUse">
<stop stop-color="#4E99D7"/>
<stop offset="0.73444" stop-color="#6BACE1"/>
<stop offset="0.947115" stop-color="#4E99D7"/>
<stop offset="1" stop-color="#64A5DA"/>
</linearGradient>
<linearGradient id="paint3_linear_2088_39" x1="419.648" y1="29.4628" x2="419.648" y2="98.5629" gradientUnits="userSpaceOnUse">
<stop stop-color="#4E99D7"/>
<stop offset="0.73444" stop-color="#6BACE1"/>
<stop offset="0.947115" stop-color="#4E99D7"/>
<stop offset="1" stop-color="#64A5DA"/>
</linearGradient>
<linearGradient id="paint4_linear_2088_39" x1="419.648" y1="29.4628" x2="419.648" y2="98.5629" gradientUnits="userSpaceOnUse">
<stop stop-color="#4E99D7"/>
<stop offset="0.73444" stop-color="#6BACE1"/>
<stop offset="0.947115" stop-color="#4E99D7"/>
<stop offset="1" stop-color="#64A5DA"/>
</linearGradient>
<linearGradient id="paint5_linear_2088_39" x1="419.648" y1="29.4628" x2="419.648" y2="98.5629" gradientUnits="userSpaceOnUse">
<stop stop-color="#4E99D7"/>
<stop offset="0.73444" stop-color="#6BACE1"/>
<stop offset="0.947115" stop-color="#4E99D7"/>
<stop offset="1" stop-color="#64A5DA"/>
</linearGradient>
<linearGradient id="paint6_linear_2088_39" x1="419.648" y1="29.4628" x2="419.648" y2="98.5629" gradientUnits="userSpaceOnUse">
<stop stop-color="#4E99D7"/>
<stop offset="0.73444" stop-color="#6BACE1"/>
<stop offset="0.947115" stop-color="#4E99D7"/>
<stop offset="1" stop-color="#64A5DA"/>
</linearGradient>
<linearGradient id="paint7_linear_2088_39" x1="419.648" y1="29.4628" x2="419.648" y2="98.5629" gradientUnits="userSpaceOnUse">
<stop stop-color="#4E99D7"/>
<stop offset="0.73444" stop-color="#6BACE1"/>
<stop offset="0.947115" stop-color="#4E99D7"/>
<stop offset="1" stop-color="#64A5DA"/>
</linearGradient>
<linearGradient id="paint8_linear_2088_39" x1="419.648" y1="29.4628" x2="419.648" y2="98.5629" gradientUnits="userSpaceOnUse">
<stop stop-color="#4E99D7"/>
<stop offset="0.73444" stop-color="#6BACE1"/>
<stop offset="0.947115" stop-color="#4E99D7"/>
<stop offset="1" stop-color="#64A5DA"/>
</linearGradient>
<linearGradient id="paint9_linear_2088_39" x1="419.648" y1="29.4628" x2="419.648" y2="98.5629" gradientUnits="userSpaceOnUse">
<stop stop-color="#4E99D7"/>
<stop offset="0.73444" stop-color="#6BACE1"/>
<stop offset="0.947115" stop-color="#4E99D7"/>
<stop offset="1" stop-color="#64A5DA"/>
</linearGradient>
<linearGradient id="paint10_linear_2088_39" x1="419.648" y1="29.4628" x2="419.648" y2="98.5629" gradientUnits="userSpaceOnUse">
<stop stop-color="#4E99D7"/>
<stop offset="0.73444" stop-color="#6BACE1"/>
<stop offset="0.947115" stop-color="#4E99D7"/>
<stop offset="1" stop-color="#64A5DA"/>
</linearGradient>
<linearGradient id="paint11_linear_2088_39" x1="419.648" y1="29.4628" x2="419.648" y2="98.5629" gradientUnits="userSpaceOnUse">
<stop stop-color="#4E99D7"/>
<stop offset="0.73444" stop-color="#6BACE1"/>
<stop offset="0.947115" stop-color="#4E99D7"/>
<stop offset="1" stop-color="#64A5DA"/>
</linearGradient>
<linearGradient id="paint12_linear_2088_39" x1="15" y1="64.0128" x2="906.714" y2="64.0128" gradientUnits="userSpaceOnUse">
<stop stop-color="#CCE4FF"/>
<stop offset="1" stop-color="white" stop-opacity="0.894118"/>
</linearGradient>
<linearGradient id="paint13_linear_2088_39" x1="15" y1="64.0128" x2="906.714" y2="64.0128" gradientUnits="userSpaceOnUse">
<stop stop-color="#CCE4FF"/>
<stop offset="1" stop-color="white" stop-opacity="0.894118"/>
</linearGradient>
<linearGradient id="paint14_linear_2088_39" x1="15" y1="64.0128" x2="906.714" y2="64.0128" gradientUnits="userSpaceOnUse">
<stop stop-color="#CCE4FF"/>
<stop offset="1" stop-color="white" stop-opacity="0.894118"/>
</linearGradient>
<linearGradient id="paint15_linear_2088_39" x1="15" y1="64.0128" x2="906.714" y2="64.0128" gradientUnits="userSpaceOnUse">
<stop stop-color="#CCE4FF"/>
<stop offset="1" stop-color="white" stop-opacity="0.894118"/>
</linearGradient>
<linearGradient id="paint16_linear_2088_39" x1="15" y1="64.0128" x2="906.714" y2="64.0128" gradientUnits="userSpaceOnUse">
<stop stop-color="#CCE4FF"/>
<stop offset="1" stop-color="white" stop-opacity="0.894118"/>
</linearGradient>
<linearGradient id="paint17_linear_2088_39" x1="15" y1="64.0128" x2="906.714" y2="64.0128" gradientUnits="userSpaceOnUse">
<stop stop-color="#CCE4FF"/>
<stop offset="1" stop-color="white" stop-opacity="0.894118"/>
</linearGradient>
<linearGradient id="paint18_linear_2088_39" x1="15" y1="64.0128" x2="906.714" y2="64.0128" gradientUnits="userSpaceOnUse">
<stop stop-color="#CCE4FF"/>
<stop offset="1" stop-color="white" stop-opacity="0.894118"/>
</linearGradient>
<linearGradient id="paint19_linear_2088_39" x1="15" y1="64.0128" x2="906.714" y2="64.0128" gradientUnits="userSpaceOnUse">
<stop stop-color="#CCE4FF"/>
<stop offset="1" stop-color="white" stop-opacity="0.894118"/>
</linearGradient>
<linearGradient id="paint20_linear_2088_39" x1="15" y1="64.0128" x2="906.714" y2="64.0128" gradientUnits="userSpaceOnUse">
<stop stop-color="#CCE4FF"/>
<stop offset="1" stop-color="white" stop-opacity="0.894118"/>
</linearGradient>
<linearGradient id="paint21_linear_2088_39" x1="15" y1="64.0128" x2="906.714" y2="64.0128" gradientUnits="userSpaceOnUse">
<stop stop-color="#CCE4FF"/>
<stop offset="1" stop-color="white" stop-opacity="0.894118"/>
</linearGradient>
<linearGradient id="paint22_linear_2088_39" x1="15" y1="64.0128" x2="906.714" y2="64.0128" gradientUnits="userSpaceOnUse">
<stop stop-color="#CCE4FF"/>
<stop offset="1" stop-color="white" stop-opacity="0.894118"/>
</linearGradient>
<linearGradient id="paint23_linear_2088_39" x1="15" y1="64.0128" x2="906.714" y2="64.0128" gradientUnits="userSpaceOnUse">
<stop stop-color="#CCE4FF"/>
<stop offset="1" stop-color="white" stop-opacity="0.894118"/>
</linearGradient>
<linearGradient id="paint24_linear_2088_39" x1="15" y1="64.0128" x2="906.714" y2="64.0128" gradientUnits="userSpaceOnUse">
<stop stop-color="#CCE4FF"/>
<stop offset="1" stop-color="white" stop-opacity="0.894118"/>
</linearGradient>
<linearGradient id="paint25_linear_2088_39" x1="15" y1="64.0128" x2="906.714" y2="64.0128" gradientUnits="userSpaceOnUse">
<stop stop-color="#CCE4FF"/>
<stop offset="1" stop-color="white" stop-opacity="0.894118"/>
</linearGradient>
<linearGradient id="paint26_linear_2088_39" x1="15" y1="64.0128" x2="906.714" y2="64.0128" gradientUnits="userSpaceOnUse">
<stop stop-color="#CCE4FF"/>
<stop offset="1" stop-color="white" stop-opacity="0.894118"/>
</linearGradient>
<linearGradient id="paint27_linear_2088_39" x1="15" y1="64.0128" x2="906.714" y2="64.0128" gradientUnits="userSpaceOnUse">
<stop stop-color="#CCE4FF"/>
<stop offset="1" stop-color="white" stop-opacity="0.894118"/>
</linearGradient>
<linearGradient id="paint28_linear_2088_39" x1="15" y1="64.0128" x2="906.714" y2="64.0128" gradientUnits="userSpaceOnUse">
<stop stop-color="#CCE4FF"/>
<stop offset="1" stop-color="white" stop-opacity="0.894118"/>
</linearGradient>
<linearGradient id="paint29_linear_2088_39" x1="15" y1="64.0128" x2="906.714" y2="64.0128" gradientUnits="userSpaceOnUse">
<stop stop-color="#CCE4FF"/>
<stop offset="1" stop-color="white" stop-opacity="0.894118"/>
</linearGradient>
<linearGradient id="paint30_linear_2088_39" x1="15" y1="64.0128" x2="906.714" y2="64.0128" gradientUnits="userSpaceOnUse">
<stop stop-color="#CCE4FF"/>
<stop offset="1" stop-color="white" stop-opacity="0.894118"/>
</linearGradient>
<linearGradient id="paint31_linear_2088_39" x1="15" y1="64.0128" x2="906.714" y2="64.0128" gradientUnits="userSpaceOnUse">
<stop stop-color="#CCE4FF"/>
<stop offset="1" stop-color="white" stop-opacity="0.894118"/>
</linearGradient>
<linearGradient id="paint32_linear_2088_39" x1="15" y1="64.0128" x2="906.714" y2="64.0128" gradientUnits="userSpaceOnUse">
<stop stop-color="#CCE4FF"/>
<stop offset="1" stop-color="white" stop-opacity="0.894118"/>
</linearGradient>
<linearGradient id="paint33_linear_2088_39" x1="15" y1="64.0128" x2="906.714" y2="64.0128" gradientUnits="userSpaceOnUse">
<stop stop-color="#CCE4FF"/>
<stop offset="1" stop-color="white" stop-opacity="0.894118"/>
</linearGradient>
<linearGradient id="paint34_linear_2088_39" x1="15" y1="64.0128" x2="906.714" y2="64.0128" gradientUnits="userSpaceOnUse">
<stop stop-color="#CCE4FF"/>
<stop offset="1" stop-color="white" stop-opacity="0.894118"/>
</linearGradient>
<linearGradient id="paint35_linear_2088_39" x1="15" y1="64.0128" x2="906.714" y2="64.0128" gradientUnits="userSpaceOnUse">
<stop stop-color="#CCE4FF"/>
<stop offset="1" stop-color="white" stop-opacity="0.894118"/>
</linearGradient>
<linearGradient id="paint36_linear_2088_39" x1="419.648" y1="29.4628" x2="419.648" y2="98.5629" gradientUnits="userSpaceOnUse">
<stop stop-color="#4E99D7"/>
<stop offset="0.73444" stop-color="#6BACE1"/>
<stop offset="0.947115" stop-color="#4E99D7"/>
<stop offset="1" stop-color="#64A5DA"/>
</linearGradient>
<linearGradient id="paint37_linear_2088_39" x1="419.648" y1="29.4628" x2="419.648" y2="98.5629" gradientUnits="userSpaceOnUse">
<stop stop-color="#4E99D7"/>
<stop offset="0.73444" stop-color="#6BACE1"/>
<stop offset="0.947115" stop-color="#4E99D7"/>
<stop offset="1" stop-color="#64A5DA"/>
</linearGradient>
<linearGradient id="paint38_linear_2088_39" x1="419.648" y1="29.4628" x2="419.648" y2="98.5629" gradientUnits="userSpaceOnUse">
<stop stop-color="#4E99D7"/>
<stop offset="0.73444" stop-color="#6BACE1"/>
<stop offset="0.947115" stop-color="#4E99D7"/>
<stop offset="1" stop-color="#64A5DA"/>
</linearGradient>
<linearGradient id="paint39_linear_2088_39" x1="419.648" y1="29.4628" x2="419.648" y2="98.5629" gradientUnits="userSpaceOnUse">
<stop stop-color="#4E99D7"/>
<stop offset="0.73444" stop-color="#6BACE1"/>
<stop offset="0.947115" stop-color="#4E99D7"/>
<stop offset="1" stop-color="#64A5DA"/>
</linearGradient>
<linearGradient id="paint40_linear_2088_39" x1="419.648" y1="29.4628" x2="419.648" y2="98.5629" gradientUnits="userSpaceOnUse">
<stop stop-color="#4E99D7"/>
<stop offset="0.73444" stop-color="#6BACE1"/>
<stop offset="0.947115" stop-color="#4E99D7"/>
<stop offset="1" stop-color="#64A5DA"/>
</linearGradient>
<linearGradient id="paint41_linear_2088_39" x1="419.648" y1="29.4628" x2="419.648" y2="98.5629" gradientUnits="userSpaceOnUse">
<stop stop-color="#4E99D7"/>
<stop offset="0.73444" stop-color="#6BACE1"/>
<stop offset="0.947115" stop-color="#4E99D7"/>
<stop offset="1" stop-color="#64A5DA"/>
</linearGradient>
<linearGradient id="paint42_linear_2088_39" x1="419.648" y1="29.4628" x2="419.648" y2="98.5629" gradientUnits="userSpaceOnUse">
<stop stop-color="#4E99D7"/>
<stop offset="0.73444" stop-color="#6BACE1"/>
<stop offset="0.947115" stop-color="#4E99D7"/>
<stop offset="1" stop-color="#64A5DA"/>
</linearGradient>
<linearGradient id="paint43_linear_2088_39" x1="419.648" y1="29.4628" x2="419.648" y2="98.5629" gradientUnits="userSpaceOnUse">
<stop stop-color="#4E99D7"/>
<stop offset="0.73444" stop-color="#6BACE1"/>
<stop offset="0.947115" stop-color="#4E99D7"/>
<stop offset="1" stop-color="#64A5DA"/>
</linearGradient>
<linearGradient id="paint44_linear_2088_39" x1="419.648" y1="29.4628" x2="419.648" y2="98.5629" gradientUnits="userSpaceOnUse">
<stop stop-color="#4E99D7"/>
<stop offset="0.73444" stop-color="#6BACE1"/>
<stop offset="0.947115" stop-color="#4E99D7"/>
<stop offset="1" stop-color="#64A5DA"/>
</linearGradient>
<linearGradient id="paint45_linear_2088_39" x1="419.648" y1="29.4628" x2="419.648" y2="98.5629" gradientUnits="userSpaceOnUse">
<stop stop-color="#4E99D7"/>
<stop offset="0.73444" stop-color="#6BACE1"/>
<stop offset="0.947115" stop-color="#4E99D7"/>
<stop offset="1" stop-color="#64A5DA"/>
</linearGradient>
<linearGradient id="paint46_linear_2088_39" x1="419.648" y1="29.4628" x2="419.648" y2="98.5629" gradientUnits="userSpaceOnUse">
<stop stop-color="#4E99D7"/>
<stop offset="0.73444" stop-color="#6BACE1"/>
<stop offset="0.947115" stop-color="#4E99D7"/>
<stop offset="1" stop-color="#64A5DA"/>
</linearGradient>
<linearGradient id="paint47_linear_2088_39" x1="419.648" y1="29.4628" x2="419.648" y2="98.5629" gradientUnits="userSpaceOnUse">
<stop stop-color="#4E99D7"/>
<stop offset="0.73444" stop-color="#6BACE1"/>
<stop offset="0.947115" stop-color="#4E99D7"/>
<stop offset="1" stop-color="#64A5DA"/>
</linearGradient>
</defs>
</svg>
