<svg width="3041" height="211" viewBox="0 0 3041 211" fill="none" xmlns="http://www.w3.org/2000/svg">
<path d="M0.157517 49.6363L30.147 60.3284C60.1368 70.6217 120.115 92.6038 180.115 92.3641C240.115 92.7223 300.137 70.8589 360.131 76.5981C420.126 81.9387 480.094 113.886 540.073 135.17C600.052 156.853 660.042 166.877 720.052 156.673C780.063 146.07 840.094 114.241 900.115 93.0753C960.136 71.511 1020.15 61.6052 1080.13 77.3093C1140.11 93.6111 1200.07 135.523 1260.09 114.656C1294.97 102.531 1339.91 80.4876 1377.34 55.8822C1416.68 30.0267 1471.12 20.2461 1511.4 44.6058L1520.5 50.1104L1520.5 113L1520 209.069L1410 210.467C1380 210.437 1320 210.378 1260 210.319C1200 210.26 1140 210.2 1080 210.141C1020 210.082 960 210.022 900 209.963C840 209.904 780 209.845 720 209.785C660 209.726 600 209.667 540 209.608C480 209.548 420 209.489 360 209.43C300 209.371 240 209.311 180 209.252C120 209.193 60 209.134 30 209.104L3.94279e-05 209.074L0.157517 49.6363Z" fill="#C5EDFF"/>
<path d="M0.157517 49.6363L30.147 60.3284C60.1368 70.6217 120.115 92.6038 180.115 92.3641C240.115 92.7223 300.137 70.8589 360.131 76.5981C420.126 81.9387 480.094 113.886 540.073 135.17C600.052 156.853 660.042 166.877 720.052 156.673C780.063 146.07 840.094 114.241 900.115 93.0753C960.136 71.511 1020.15 61.6052 1080.13 77.3093C1140.11 93.6111 1200.07 135.523 1260.09 114.656C1294.97 102.531 1339.91 80.4876 1377.34 55.8822C1416.68 30.0267 1471.12 20.2461 1511.4 44.6058L1520.5 50.1104L1520.5 113L1520 209.069L1410 210.467C1380 210.437 1320 210.378 1260 210.319C1200 210.26 1140 210.2 1080 210.141C1020 210.082 960 210.022 900 209.963C840 209.904 780 209.845 720 209.785C660 209.726 600 209.667 540 209.608C480 209.548 420 209.489 360 209.43C300 209.371 240 209.311 180 209.252C120 209.193 60 209.134 30 209.104L3.94279e-05 209.074L0.157517 49.6363Z" fill="#C5EDFF"/>
<path d="M1520.01 49.8201L1534.5 58L1552 66.5C1600 88.5 1640.13 92.6039 1700.13 92.3642C1760.13 92.7224 1820.15 70.859 1880.15 76.5982C1940.14 81.9387 2000.11 113.886 2060.08 135.17C2120.06 156.853 2180.05 166.877 2240.06 156.673C2300.07 146.07 2360.1 114.241 2420.12 93.0753C2480.14 71.511 2540.15 61.6053 2600.14 77.3093C2660.12 93.6111 2720.08 135.523 2780.1 114.656C2814.98 102.53 2859.93 80.4823 2897.36 55.8732C2936.68 30.02 2991.12 20.2341 3031.39 44.5815L3040 49.7845L3040 112.922L3040 209.069L2930 210.467C2900 210.437 2840 210.378 2780 210.319C2720 210.26 2660 210.2 2600.01 210.141C2540.01 210.082 2480.01 210.023 2420.01 209.963C2360.01 209.904 2300.01 209.845 2240.01 209.785C2180.01 209.726 2120.01 209.667 2060.01 209.608C2000.01 209.548 1940.01 209.489 1880.01 209.43C1820.01 209.371 1760.02 209.311 1700.02 209.252C1640.02 209.193 1580.02 209.134 1550.02 209.104L1520.02 209.074L1520.01 49.8201Z" fill="#C5EDFF"/>
<path d="M1520.01 49.8201L1534.5 58L1552 66.5C1600 88.5 1640.13 92.6039 1700.13 92.3642C1760.13 92.7224 1820.15 70.859 1880.15 76.5982C1940.14 81.9387 2000.11 113.886 2060.08 135.17C2120.06 156.853 2180.05 166.877 2240.06 156.673C2300.07 146.07 2360.1 114.241 2420.12 93.0753C2480.14 71.511 2540.15 61.6053 2600.14 77.3093C2660.12 93.6111 2720.08 135.523 2780.1 114.656C2814.98 102.53 2859.93 80.4823 2897.36 55.8732C2936.68 30.02 2991.12 20.2341 3031.39 44.5815L3040 49.7845L3040 112.922L3040 209.069L2930 210.467C2900 210.437 2840 210.378 2780 210.319C2720 210.26 2660 210.2 2600.01 210.141C2540.01 210.082 2480.01 210.023 2420.01 209.963C2360.01 209.904 2300.01 209.845 2240.01 209.785C2180.01 209.726 2120.01 209.667 2060.01 209.608C2000.01 209.548 1940.01 209.489 1880.01 209.43C1820.01 209.371 1760.02 209.311 1700.02 209.252C1640.02 209.193 1580.02 209.134 1550.02 209.104L1520.02 209.074L1520.01 49.8201Z" fill="#C5EDFF"/>
</svg>
