<svg width="457" height="457" viewBox="0 0 457 457" fill="none" xmlns="http://www.w3.org/2000/svg">
<path fill-rule="evenodd" clip-rule="evenodd" d="M248.35 180.579L320 124.5L390.074 66.9261L335 138L276.421 208.65L457 228.5L276.421 248.35L390.074 390.074L248.35 276.421L228.5 457L208.65 276.421L66.9261 390.074L180.579 248.35L0 228.5L180.579 208.65L66.9261 66.9261L208.65 180.579L228.5 0L248.35 180.579ZM242.334 185.344L241.889 181.289L244.915 180.956C243.237 181.141 242.489 181.223 242.156 181.259C241.888 181.289 241.889 181.289 241.889 181.289L228.5 59.489L214.567 186.239C222.06 194.536 235.481 193.985 242.334 185.344ZM243.328 193.467C235.185 199.8 223.595 200.405 214.838 194.899C214.746 205.818 206.507 214.841 196.283 216.692C201.526 224.35 201.355 234.671 196.194 242.187C206.264 243.018 214.88 250.819 216.548 260.889C224.614 256.452 234.725 256.907 242.364 261.98C243.07 251.444 251.353 242.924 261.432 241.368C255.919 233.511 255.923 222.502 261.936 214.704C251.859 212.91 243.696 204.153 243.328 193.467ZM186.802 242.495C195.712 236.421 196.111 222.696 186.838 216.315C185.553 215.977 184.265 215.516 182.986 214.925L59.489 228.5L186.802 242.495ZM208.262 268.401C208.887 267.498 209.557 266.654 210.266 265.868C211.304 254.07 198.852 244.731 187.417 250.27L187.399 250.234L108.991 348.009L208.262 268.401ZM242.442 270.678C235.876 262.964 223.889 262.188 216.379 268.951C216.229 269.683 216.043 270.419 215.817 271.159L214.93 274.062L228.5 397.511L242.442 270.678ZM249.875 269.313L249.554 268.261C245.923 256.369 256.519 245.712 267.749 247.925L348.009 348.009L249.875 269.313ZM206.862 187.477L207.6 189.894C211.135 201.47 201.187 211.877 190.296 210.378L108.991 108.991L206.862 187.477ZM250.87 186.861L250.554 187.894C246.977 199.61 257.21 210.128 268.253 208.319L329.928 133.934L349.501 108.674L324.067 129.571L250.87 186.861ZM272.005 242.296C261.505 236.536 260.905 220.993 271.678 214.668L397.511 228.5L272.005 242.296Z" fill="#D7CDB7"/>
</svg>
