<svg width="35" height="29" viewBox="0 0 35 29" fill="none" xmlns="http://www.w3.org/2000/svg">
<path d="M19.4828 0.77277C19.9516 0.277965 20.5874 0 21.2503 0C21.9132 0 22.549 0.277965 23.0179 0.77277L34.268 12.6499C34.7367 13.1449 35 13.8161 35 14.5159C35 15.2158 34.7367 15.887 34.268 16.382L23.0179 28.2591C22.5463 28.7399 21.9148 29.0059 21.2593 28.9999C20.6038 28.9939 19.9768 28.7163 19.5133 28.2269C19.0497 27.7376 18.7868 27.0756 18.7811 26.3836C18.7754 25.6915 19.0274 25.0248 19.4828 24.527L26.2504 17.1553H2.50004C1.83699 17.1553 1.20109 16.8772 0.732244 16.3822C0.263396 15.8873 0 15.2159 0 14.5159C0 13.8159 0.263396 13.1446 0.732244 12.6496C1.20109 12.1546 1.83699 11.8766 2.50004 11.8766H26.2504L19.4828 4.50483C19.0141 4.00988 18.7508 3.33866 18.7508 2.6388C18.7508 1.93893 19.0141 1.26772 19.4828 0.77277Z" fill="white"/>
</svg>
