<svg width="204" height="212" viewBox="0 0 204 212" fill="none" xmlns="http://www.w3.org/2000/svg">
<path d="M86.3003 5.93819L120.758 60.9733C123.416 65.2175 128.514 67.2543 133.364 66.0095L195.39 50.091C197.724 49.4921 199.471 52.2161 197.953 54.0873L157.131 104.418C154.035 108.235 153.707 113.598 156.316 117.764L190.998 173.158C192.286 175.214 190.183 177.715 187.936 176.8L128.555 152.606C123.864 150.695 118.475 152.078 115.284 156.012L74.8928 205.811C73.3642 207.696 70.3171 206.517 70.4552 204.094L74.1753 138.845C74.4551 133.938 71.5851 129.395 67.0331 127.541L7.01906 103.089C4.78777 102.18 5.00715 98.9515 7.34086 98.3526L69.3667 82.4341C74.217 81.1893 77.7043 76.949 77.9893 71.9496L81.6854 7.12257C81.8241 4.68945 85.007 3.87257 86.3003 5.93819Z" fill="#FFC93E" stroke="#FFD569" stroke-width="9"/>
</svg>
