<?xml version="1.0" encoding="UTF-8" standalone="no"?>
<!-- Created with Inkscape (http://www.inkscape.org/) -->

<svg
   width="208mm"
   height="32mm"
   viewBox="0 89 208 32"
   version="1.1"
   id="svg1"
   xmlns:inkscape="http://www.inkscape.org/namespaces/inkscape"
   xmlns:sodipodi="http://sodipodi.sourceforge.net/DTD/sodipodi-0.dtd"
   xmlns="http://www.w3.org/2000/svg"
   xmlns:svg="http://www.w3.org/2000/svg">
  <sodipodi:namedview
     id="namedview1"
     pagecolor="#ffffff"
     bordercolor="#000000"
     borderopacity="0.25"
     inkscape:showpageshadow="2"
     inkscape:pageopacity="0.0"
     inkscape:pagecheckerboard="0"
     inkscape:deskcolor="#d1d1d1"
     inkscape:document-units="mm"
     inkscape:export-bgcolor="#ffffffff" />
  <defs
     id="defs1" />
  <g
     inkscape:label="Layer 1"
     inkscape:groupmode="layer"
     id="layer1"
     transform="translate(-7.506014,-134.9285)">
    <g
       id="g2"
       transform="translate(6.6204238,90.729778)">
      <g
         id="g61"
         transform="matrix(0.33135601,0,0,0.33135601,-25.324825,9.7903147)">
        <path
           style="fill:#afcaff;fill-opacity:1;fill-rule:evenodd;stroke:none;stroke-width:3;stroke-dasharray:none;stroke-opacity:1"
           d="m 99.080258,459.54518 c 6.238632,-3.38718 8.369752,-9.73508 11.347982,-15.68917 2.91822,-5.02195 9.28225,-5.34784 10.63913,-3.69519 0.55597,0.68233 -4.27236,0.89608 -3.96664,8.25194 0.25999,3.00242 5.62192,8.93692 7.7111,11.12927 z"
           id="path1-9"
           sodipodi:nodetypes="cssscc" />
        <path
           style="fill:#0082ea;fill-opacity:1;fill-rule:evenodd;stroke:none;stroke-width:3;stroke-dasharray:none;stroke-opacity:1"
           d="m 116.37507,459.54518 c 13.08732,-5.15014 16.16944,-18.04834 21.95534,-29.38106 4.82914,-8.06272 17.17684,-8.55055 19.37241,-5.87644 0.89962,1.10409 -7.83764,3.07795 -7.34296,14.98039 0.42067,4.85817 12.69212,16.71097 16.07262,20.25838 z"
           id="path1-9-2"
           sodipodi:nodetypes="cssscc" />
        <path
           style="fill:#0055a0;fill-opacity:1;fill-rule:evenodd;stroke:none;stroke-width:3;stroke-dasharray:none;stroke-opacity:1"
           d="m 139.15307,459.51438 c 0,0 9.41837,-2.97826 17.20404,-10.67382 17.59165,-17.38803 22.43564,-39.27341 30.88871,-55.60954 10.56682,-20.42112 48.21814,-15.69625 45.79598,-13.47509 -12.5546,11.51274 -17.97552,20.84982 -17.2194,34.0135 0.79614,13.86029 33.76993,40.26289 48.38203,45.80028 z"
           id="path1-9-2-7"
           sodipodi:nodetypes="csssscc" />
      </g>
      <g
         id="g1"
         transform="translate(-53.833558,34.461675)">
        <rect
           style="fill:#000000;fill-opacity:1;fill-rule:evenodd;stroke-width:0.619996"
           id="rect1"
           width="4.8174901"
           height="17.946636"
           x="132.23329"
           y="110.95814"
           ry="0.96357781" />
        <rect
           style="fill:#000000;fill-opacity:1;fill-rule:evenodd;stroke-width:0.756146"
           id="rect1-1"
           width="4.8174901"
           height="26.694141"
           x="160.73389"
           y="102.28117"
           ry="1.4332424" />
        <rect
           style="fill:#000000;fill-opacity:1;fill-rule:evenodd;stroke-width:0.756146"
           id="rect1-1-9"
           width="4.8174901"
           height="26.694141"
           x="239.30701"
           y="102.06709"
           ry="1.4332424" />
        <rect
           style="fill:#000000;fill-opacity:1;fill-rule:evenodd;stroke-width:0.680718"
           id="rect1-5"
           width="4.8174901"
           height="21.634096"
           x="101.94234"
           y="-145.45909"
           ry="1.1615624"
           transform="rotate(90)" />
        <rect
           style="fill:#000000;fill-opacity:1;fill-rule:evenodd;stroke-width:0.631196"
           id="rect1-5-1"
           width="4.8174901"
           height="18.600863"
           x="123.94375"
           y="-258.09872"
           ry="0.9987042"
           transform="rotate(90)" />
        <path
           style="fill:#000000;fill-opacity:1;fill-rule:evenodd;stroke-width:0.616131"
           d="m 181.66751,106.39318 c 0.76202,0.0282 4.72242,-0.23975 7.06529,0 0.87672,0.0897 1.76416,0.22537 2.58909,0.53551 0.4425,0.16635 0.83582,0.44417 1.23411,0.69883 0.43688,0.27932 0.86296,0.57809 1.26384,0.90699 0.48255,0.39591 0.98922,0.78257 1.36794,1.27872 0.38068,0.49872 0.63102,1.08823 0.87726,1.66531 0.22143,0.51896 0.41245,1.05512 0.53527,1.60583 0.16621,0.74523 0.24594,1.51169 0.26764,2.27492 0.0164,0.57574 -0.008,1.15687 -0.10408,1.72478 -0.12793,0.75653 -0.32787,1.50784 -0.62449,2.21545 -0.23173,0.55278 -0.53568,1.07935 -0.89213,1.56123 -0.54214,0.7329 -1.16021,1.42468 -1.87347,1.99242 -0.83068,0.6612 -1.73327,1.30246 -2.75073,1.60582 -1.0225,0.30487 -2.12995,0.1816 -3.19679,0.16356 -1.6089,-0.0272 -3.25686,-0.0381 -4.95502,-0.0595 -0.35978,-0.004 -0.94088,-0.13493 -0.94788,0.14869 -0.0304,1.22921 -0.10285,2.6646 -0.0595,3.79154 0.009,0.23114 0.2594,0.48751 0.49067,0.49067 3.16414,0.0433 5.1295,-0.0236 7.49386,-0.13382 1.11175,-0.0518 2.21482,-0.31859 3.27114,-0.66909 0.59764,-0.19831 1.15751,-0.50068 1.70991,-0.80292 0.75033,-0.41053 1.46635,-0.88295 2.17085,-1.36793 0.34701,-0.23887 0.69597,-0.47868 1.01108,-0.75831 0.46146,-0.40951 0.89419,-0.8557 1.27871,-1.33819 0.34783,-0.43645 0.63883,-0.91666 0.92186,-1.39766 0.39686,-0.67445 0.78735,-1.35809 1.08542,-2.08164 0.28663,-0.69574 0.54499,-1.41381 0.66911,-2.15597 0.26826,-1.60414 0.35921,-3.26424 0.14869,-4.87697 -0.0897,-0.68726 -0.36461,-1.33865 -0.59476,-1.99241 -0.2879,-0.8178 -0.55587,-1.65334 -0.98134,-2.40875 -0.5424,-0.96302 -1.19027,-1.88576 -1.97755,-2.66152 -1.3227,-1.30336 -2.8382,-2.46919 -4.52011,-3.25626 -1.24666,-0.58338 -2.63467,-0.84947 -3.99971,-1.02595 -2.57361,-0.33273 -5.51033,-0.18497 -7.78495,-0.0472 -0.14902,0.009 -0.32467,-0.0492 -0.32592,0.0946 -0.01,1.11741 -0.0895,2.48671 -0.0999,3.61413 3e-4,0.21705 0.002,0.65632 0.23659,0.66501 z"
           id="path1"
           sodipodi:nodetypes="sssssssssssssssssssssssssssssssssssscs" />
        <path
           style="fill:#000000;fill-opacity:1;fill-rule:evenodd;stroke-width:0.616131"
           d="m 215.32012,109.47869 c -2.58511,5.76793 -7.7169,18.53395 -7.7169,18.53395 l -0.13478,0.35444 -0.13668,0.34695 4.31066,0.16822 c 0,0 0.60739,0.10896 0.66238,-0.0421 1.32083,-3.62693 3.37947,-8.83747 5.6471,-14.00132 0.16531,-0.37644 0.33739,-0.95088 0.10002,-1.49534 -0.61927,-1.42045 -1.48085,-3.12455 -1.9764,-4.00627 -0.20494,-0.36465 -0.5493,-0.31843 -0.7554,0.14141 z"
           id="path2"
           sodipodi:nodetypes="sccccsssss" />
        <path
           style="fill:#000000;fill-opacity:1;fill-rule:evenodd;stroke-width:0.616131"
           d="m 228.26379,128.77087 c 0.0143,0.0357 0.0322,0.0364 0.0518,0.0359 0.0442,-8.9e-4 0.0809,-0.009 0.19649,-0.007 0.8147,0.0101 2.6853,-0.0159 3.33599,-0.005 0.17868,0.003 0.509,-0.002 0.509,-0.002 0,0 -5.88247,-17.53045 -9.59627,-26.48161 -0.0318,-0.0766 -0.0324,-0.20334 -0.10594,-0.20325 -1.15581,0.002 -2.70371,-0.009 -3.99572,0.0224 -0.1962,0.004 -0.62944,-0.0892 -0.56648,0.0966 2.95779,8.73244 6.15415,16.56431 10.17113,26.5438 z"
           id="path3"
           sodipodi:nodetypes="sssscsssss" />
      </g>
    </g>
  </g>
</svg>
